<?xml version="1.0" encoding="utf-8"?>
<!-- Generator: Adobe Illustrator 21.1.0, SVG Export Plug-In . SVG Version: 6.00 Build 0)  -->
<svg version="1.1" id="Layer_1" xmlns="http://www.w3.org/2000/svg" xmlns:xlink="http://www.w3.org/1999/xlink" x="0px" y="0px"
	 viewBox="0 0 250 100" style="enable-background:new 0 0 250 100;" xml:space="preserve">
<style type="text/css">
	.st0{fill:#FFFFFF;}
	.st1{fill:#0063D8;}
</style>
<g>
	<g>
		<path class="st0" d="M61.8,48.1c-0.6,0.8-1.3,1.6-2.1,2.5s-1.4,1.8-1.8,2.8c-0.4,1-0.4,1.9,0.1,2.7s1.1,1.4,1.9,1.8
			c0.8,0.4,1.6,0.5,2.4,0.4c0.8-0.1,1.4-0.6,1.7-1.4c0.3-0.8,0.9-1.7,1.6-2.7c0.8-1,1.6-2,2.5-3s1.7-2,2.5-3s1.4-1.9,1.9-2.7
			c0.4-0.8,0.5-1.8,0.4-2.8s-0.5-2-1.3-2.8s-2-1.3-3.7-1.7c-1.7-0.3-4-0.2-6.8,0.4c-4.2,0.9-12.5,5.1-12.5,5.1
			c-0.2-0.2-0.4-0.5-0.6-0.7c-3.2-3.4-7.7-3-11.1-0.3c-6.7,5.2-10.9,13-11.6,21.5C18.5,66.8,12.9,71.1,9,77.5
			c-1.3,2.2-0.8,4.5,0.7,6.4c3.6,4.6,7.8,8.9,13,11.7c5.9,3.2,11.5-5.7,5.5-9c-3.1-1.7-5.7-4-8.1-6.6c2.3-2.7,5.1-4.7,8.5-5.9
			c0.4-0.2,0.8-0.4,1.2-0.6c0.3,0.1,0.7,0.3,1,0.3l0,0c0.3,2.6,1.5,7.1,2.6,9.1s2.5,3.6,4.2,4.9c1.7,1.2,3.6,2,5.8,2.3
			s4.4,0,6.9-0.9c2.4-0.9,4.9-2.5,7.4-4.8s5-5.4,7.5-9.4c0.5-0.9,0.8-1.8,0.9-2.8s0-1.9-0.3-2.8s-0.7-1.6-1.2-2.2s-1.1-1.1-1.7-1.3
			c-0.6-0.2-1.2-0.2-1.9,0.1c-0.6,0.3-1.2,1-1.7,1.9c-0.5,1-1.1,2.2-2,3.6s-1.8,2.8-2.9,4.3c-1.1,1.4-2.3,2.8-3.5,4
			c-1.3,1.2-2.5,2.2-3.8,2.9c-1.3,0.7-2.5,1.1-3.7,1c-1.2,0-2.3-0.6-3.4-1.7c-0.9-1-1.4-2.5-1.6-4.3c-0.2-1.9,0-4,0.5-6.3
			s1.4-4.7,2.6-7.3c1.2-2.5,2.9-5,4.9-7.3s3.9-4.4,5.7-6.1c1.8-1.7,3.4-3.1,4.9-4.2c1.4-1.1,2.7-1.8,3.6-2.3s1.7-0.5,2.1-0.2
			c0.6,0.6,0.7,1.2,0.5,1.8C62.9,46.6,62.4,47.3,61.8,48.1z M145.7,66.1c-0.3-0.3-0.7-0.5-1.3-0.5c-0.5,0-1.1,0.3-1.6,0.7
			c-1.3,1.2-2.8,2.2-4.6,2.9c-1.7,0.7-3.4,1.3-5.1,1.8c0.7-1.9,1.3-3.7,1.6-5.4c0.3-1.7,0.5-3.2,0.5-4.5c0-0.7-0.2-1.4-0.6-2
			c-0.4-0.6-0.9-1-1.5-1.3s-1.3-0.5-2-0.6s-1.3,0-2,0.3c-0.6,0.2-1.3,0.7-2.2,1.4c-0.9,0.7-1.9,1.5-2.9,2.3s-1.9,1.7-2.9,2.5
			c-0.9,0.8-1.6,1.5-2.1,2l0,0c-1.5,1.4-2.8,2.4-3.9,3s-2.1,0.9-3,1c1.2-2.5,1.8-4.8,1.7-6.9c-0.1-2.1-0.9-3.7-2.5-4.7
			c-1.1-0.7-2.3-1-3.8-1c-1.4,0-2.9,0.3-4.4,1c-1.5,0.6-3.1,1.6-4.6,2.8c-1.6,1.2-3,2.6-4.4,4.3l0,0c-2.4,2.3-4.5,4.2-6.3,5.8
			c-1.7,1.5-3.2,2.9-4.5,4c-0.8,0.7-1.4,1.2-2,1.6s-1,0.5-1.2,0.4c-0.3-0.1-0.3-0.5-0.2-1.3c0.1-0.7,0.5-1.9,1.1-3.5
			c0.6-1.5,1.7-3.7,3.1-6.6s3.1-6.1,5.1-9.6c1.9-3.5,4.1-7,6.4-10.7c2.3-3.6,4.7-7,7.1-10c0.7-0.9,1.1-1.8,1.1-2.7
			c0-0.9-0.2-1.6-0.5-2.1c-0.4-0.5-0.9-0.8-1.6-0.7c-0.7,0-1.4,0.4-2.1,1.3c-0.7,0.8-1.9,2.3-3.8,4.7c-1.9,2.3-4.1,5.1-6.8,8.3
			c-2.7,3.2-5.7,6.5-9,10.1c-3.3,3.6-6.7,7.1-10.1,10.4c-0.8,0.7-1.2,1.4-1.3,2c-0.1,0.6,0,1,0.4,1.4c0.3,0.3,0.8,0.4,1.5,0.4
			c0.6-0.1,1.3-0.4,2-1c2-2,3.9-3.9,5.7-5.8c1.7-1.9,3.2-3.4,4.2-4.6c1.1-1.2,1.8-1.8,2-2c0.3-0.1,0,0.5-0.8,1.9s-1.7,3.2-2.8,5.3
			c-1.1,2.1-2.2,4.3-3.3,6.6c-1.1,2.3-2.2,4.6-3.1,6.8c-0.9,2.3-1.6,4.2-2,5.9c-0.4,1.7-0.5,3.1-0.4,4.2s0.5,1.8,1.1,2.2
			c0.6,0.4,1.4,0.3,2.5-0.1c1-0.4,2.3-1.4,3.8-2.8c2.8-2.6,5.7-5.5,8.7-8.6c0.4-0.4,0.8-0.8,1.2-1.2c-0.2,1.5-0.2,2.8,0.2,4
			c0.4,1.2,1.1,2.2,2.2,2.9c1.1,0.7,2.3,1,3.8,1c1.4,0,2.9-0.3,4.4-1c1.5-0.6,3-1.6,4.6-2.8c1.6-1.2,3-2.6,4.4-4.3l1.4-1.8
			c1.5,0.3,3.2,0.1,5.2-0.6s4.1-2.1,6.4-4.2l0,0c0.4-0.3,0.8-0.7,1.3-1.2s1.1-1,1.6-1.5s1-0.9,1.5-1.3s0.8-0.6,1.1-0.8
			c0.4-0.2,0.8-0.2,1.1-0.1c0.3,0.1,0.5,0.5,0.4,1.2c-0.1,2.1-0.4,3.7-1,4.7c-0.6,1.1-1.2,1.7-1.9,1.9c-1.2,0.3-2.3,0.7-3.4,1.4
			c-1.1,0.6-2.1,1.5-2.8,2.4c-1.2,1.5-1.7,2.8-1.6,4s0.6,2.1,1.6,2.7c0.9,0.6,2.1,0.8,3.5,0.6c1.4-0.2,2.8-1,4.1-2.4
			c0.7-0.7,1.4-1.5,2-2.3s1.2-1.7,1.8-2.5c2.3-0.3,4.8-1,7.5-2c2.6-1.1,4.9-2.5,6.9-4.4c0.6-0.5,0.9-1.1,0.9-1.6
			C146.1,66.9,146,66.4,145.7,66.1z M105.9,62.8c-0.3,0.6-0.6,1.4-0.8,2.1c-0.2,0.8-0.3,1.6-0.4,2.4c0,0.8,0,1.5,0.2,2.2
			s0.4,1.3,0.8,1.7l-0.3,0.5c-1.1,1.8-2.4,3.2-3.9,4.1s-2.8,1.2-4.1,0.7c-0.6-0.2-1.1-0.6-1.4-1.2s-0.4-1.2-0.4-2
			c0-0.7,0.2-1.6,0.5-2.4c0.3-0.9,0.8-1.8,1.3-2.7c0.6-0.9,1.2-1.7,1.9-2.6c0.7-0.8,1.5-1.5,2.3-2.1s1.6-1,2.3-1.2
			c0.8-0.3,1.5-0.3,2.1-0.1L105.9,62.8z M49.1,40.7c3.9,0.1,7.2-3,7.3-7c0.1-3.9-3-7.2-6.9-7.3c-3.9-0.1-7.2,3-7.3,7
			C42.2,37.3,45.2,40.6,49.1,40.7z M53.9,25.4c0.1-0.4,0.3-0.8,0.4-1.2l4,1.2l-0.2,0.8c-0.4,1.2,0.2,2.6,1.4,3.1l22,9.3
			c0.1,0,0.2,0.1,0.2,0.1c1.3,0.4,2.7-0.3,3.1-1.6l3.1-9.7l0,0c0.4-1.4-0.4-2.9-1.9-3.2L62.8,19c-1.3-0.3-2.5,0.4-2.9,1.7l-0.2,0.8
			l-3.9-1.2c1.8-5.2-6.2-7.6-8-2.5c-1.1,3-2.2,6-3.3,9c1.7-1.6,4-2.6,6.5-2.5C51.9,24.3,53,25,53.9,25.4z M58,18
			c1.2-1.5,3.2-2.2,5.2-1.8l0,0l14.3,3.2l8.3-2c1.4-0.3,2.3-1.8,1.8-3.2l-3.3-9.6c-0.5-1.4-2.1-2.1-3.4-1.5l-21.8,9.6
			c-1.2,0.5-1.8,1.9-1.4,3.1l0.3,0.8l-2.3,0.8L58,18z"/>
	</g>
</g>
<path class="st1" d="M229.5,26.4L170,35.1c-2.1,0.3-4.3,1.2-6.7,2.6c-2.4,1.4-4.2,3-5.4,4.6L143,62.2c-1.2,1.7-1.7,3.5-1.4,5.7
	c0.3,2.1,1.3,3.8,2.9,5l19.9,14.8c1.7,1.3,3.9,2.2,6.5,2.9c2.7,0.7,5,0.8,7.1,0.5l59.7-8.6c2.1-0.3,3.7-1.3,5-3
	c1.2-1.7,1.7-3.5,1.5-5.7l-6-41c-0.3-2.1-1.3-3.7-3-5C233.5,26.7,231.7,26.2,229.5,26.4L229.5,26.4z"/>
<g id="_x2E_com_1_">
	<g>
		<path class="st0" d="M208.9,77.4l0.3,2.1l2-0.3l-0.3-2.1L208.9,77.4z M216.5,76.8c-0.4,0.5-0.8,0.6-0.9,0.6
			c-1.1,0.1-1.6-0.9-1.7-1.8c-0.1-0.8,0.1-2.1,1.2-2.2c0.3,0,0.6,0,0.8,0.1c0.4,0.2,0.5,0.4,0.7,0.6l1.4-1c-1-1.3-2.3-1.3-3.1-1.2
			c-2.2,0.3-3.1,2.1-2.9,4c0.4,2.7,2.5,3.2,3.8,3.1c0.8-0.1,1.4-0.4,1.8-0.8c0.5-0.5,0.7-0.9,0.9-1.3l-1.6-0.6
			C216.6,76.4,216.6,76.6,216.5,76.8z M221.5,70.9c-2.6,0.2-3.7,2-3.4,4c0.3,2.5,2.2,3.3,4.1,3.1c2.6-0.3,3.4-2.3,3.1-4
			C225.2,72.8,224.3,70.7,221.5,70.9z M222,76.5c-1.1,0.1-1.7-0.7-1.9-1.8c-0.1-0.5,0-0.9,0.2-1.3c0.2-0.5,0.5-0.7,1.1-0.8
			c0.3-0.1,0.7-0.1,1.2,0.2c0.4,0.3,0.7,0.9,0.8,1.6C223.5,75.4,223.1,76.4,222,76.5z M236.2,71.6c-0.1-0.7-0.2-1.2-0.4-1.5
			c-0.3-0.4-0.9-0.9-2-0.7c-1.1,0.1-1.5,0.7-1.9,1c-0.4-0.3-0.9-0.7-2-0.5c-1.2,0.1-1.6,0.8-1.8,1.1l-0.1-0.7l-1.9,0.3l0.9,6.7
			l2-0.3l-0.5-3.8c-0.1-0.5-0.1-1,0.3-1.4c0.2-0.1,0.4-0.2,0.5-0.2c0.3,0,0.6,0.1,0.8,0.2c0.2,0.2,0.3,0.6,0.3,0.9l0.5,4l1.9-0.3
			l-0.5-3.6c-0.1-0.7-0.1-1.1,0.2-1.5c0.2-0.2,0.4-0.3,0.6-0.3c0.2,0,0.7,0,0.9,0.5c0.1,0.2,0.2,0.7,0.2,1.1l0.5,3.5l1.9-0.3
			L236.2,71.6z"/>
	</g>
</g>
<g id="deal_2_">
	<g>
		<path class="st0" d="M170.4,36.5l-4.6,0.6l2.1,16.6c0.1,0.5,0,0.7-0.1,0.7c0,0-0.2-0.1-0.5-0.2c-1.1-0.7-2.4-1.2-3.7-1.4
			c-1.3-0.3-2.7-0.3-4.1-0.2c-3.4,0.4-6.1,2.2-8.2,5.2c-1.9,2.9-2.7,6-2.2,9.4c0.4,3.1,2.1,5.7,5.1,7.7s6.1,2.8,9.3,2.4
			c3.3-0.4,5.9-2,7.9-4.7s2.8-5.7,2.4-9.1L170.4,36.5z M168,70.1c-1.4,1.7-3.1,2.7-5.4,3c-2.3,0.3-4.3-0.2-6.2-1.5s-2.9-3-3.2-5.2
			c-0.3-2.3,0.2-4.4,1.6-6.4c1.4-2,3.2-3.2,5.6-3.5c2.3-0.3,4.4,0.4,6.2,2c1.7,1.5,2.7,3.4,3,5.7C169.9,66.4,169.3,68.4,168,70.1z
			 M179.9,64.1c0.4-0.1,1-0.2,1.8-0.3l17.9-2.3c0-0.3-0.1-0.8-0.2-1.4c-0.4-3.4-2.1-6.2-5-8.4s-6-3-9.5-2.6c-3.4,0.4-6.2,2-8.3,4.7
			s-3,5.7-2.6,9c0.4,3.5,2,6.3,4.7,8.5s5.8,3.1,9.2,2.6c1.8-0.2,3.4-0.7,4.7-1.5c1.3-0.7,2.6-1.8,3.9-3.1l-2.9-2.6
			c-0.9,0.9-1.8,1.5-2.6,2c-1.2,0.7-2.4,1.1-3.6,1.3c-1.9,0.2-3.7-0.2-5.6-1.4c-1.9-1.2-2.8-2.4-2.7-3.6
			C179.3,64.6,179.5,64.3,179.9,64.1z M179.1,59.8c-0.3-1.3,0.3-2.7,1.8-4.2s3.2-2.4,5-2.6c1.8-0.2,3.6,0.1,5.1,0.9
			c1.6,0.9,2.6,2.1,3.3,3.6c0.1,0.3,0.1,0.5-0.2,0.6c-0.3,0.2-0.8,0.3-1.4,0.3c-0.2,0-0.5,0.1-0.9,0.1L181.4,60
			c-0.1,0-0.4,0.1-0.7,0.1c-0.4,0-0.7,0.1-1,0C179.3,60.1,179.1,60,179.1,59.8z M219,47.7c-2.5-1.7-5.3-2.4-8.4-2
			c-3.5,0.4-6.3,2-8.4,4.7c-2.2,2.7-3,5.7-2.6,9.1c0.4,3.4,2.1,6.2,4.8,8.4c2.8,2.1,5.9,3,9.4,2.5c2.1-0.3,4.1-1.1,5.8-2.4
			s3-3,3.9-4.9l3.2,5.2l5-0.5L224,54.5C223.2,51.7,221.5,49.4,219,47.7z M219,63.3c-1.4,1.9-3.3,3-5.7,3.3c-2.4,0.3-4.5-0.3-6.3-1.7
			c-1.9-1.4-2.9-3.3-3.2-5.7s0.3-4.5,1.7-6.3c1.5-1.8,3.3-2.9,5.7-3.2c2.3-0.3,4.4,0.2,6.2,1.6c1.9,1.4,3,3.2,3.2,5.5
			C221,59.2,220.4,61.4,219,63.3z M231,28.1l-4.1,0.5l5.1,39.3l4.1-0.5L231,28.1z"/>
	</g>
</g>
</svg>
