<svg id="smile" xmlns="http://www.w3.org/2000/svg" viewBox="0 0 604.96 158"><defs><style>.cls-1{fill:#fff;}</style></defs><title>congratulations</title><path class="cls-1" d="M280.63,191.5q-.51-3.67-1.09-7.2t-1.23-6.42h-5.59c-1.4,1.93-2.76,3.91-4.11,5.94s-2.71,4.16-4.12,6.42-2.87,4.65-4.39,7.2-3.15,5.33-4.89,8.33h6.56c.54-1,1.1-2.07,1.69-3.08s1.16-2,1.69-3h10.47c.08,1,.15,2,.22,3s.13,2,.18,3.08h6.32c-.24-2.14-.5-4.45-.79-6.9S281,194,280.63,191.5Zm-12.94,3.28q1.53-2.78,3.16-5.43c1.09-1.77,2.19-3.56,3.32-5.35.27,1.85.47,3.7.62,5.55s.29,3.6.43,5.23Zm32.92-.2L298,205.77h6l2.74-11.43q1.17-4.74-.6-7.49c-1.18-1.82-3.36-2.73-6.52-2.73a24.78,24.78,0,0,0-2.88.14,21.47,21.47,0,0,0-2.3.36c-.68.15-1.3.31-1.85.48l-1.51.47-4.87,20.2h6l3.9-16.38a12.24,12.24,0,0,1,2.38-.24,2.86,2.86,0,0,1,1.79.46,2.06,2.06,0,0,1,.75,1.21,5.21,5.21,0,0,1,0,1.73C300.9,193.21,300.77,193.89,300.61,194.58Zm11.33,9.2a6.27,6.27,0,0,0,2.34,1.87,7.84,7.84,0,0,0,3.44.69,7.7,7.7,0,0,0,3.08-.61,10.47,10.47,0,0,0,2.51-1.53c.14.38.27.71.41,1s.28.6.44.92l5.35-.76a16.75,16.75,0,0,1-.92-4.13,13.24,13.24,0,0,1,.32-4.6l5.31-22.1-6.24,1-2.17,9.1a9.76,9.76,0,0,0-1.27-.24,11.15,11.15,0,0,0-1.35-.08,12.7,12.7,0,0,0-9.29,3.9,13.34,13.34,0,0,0-2.72,4.25,13.59,13.59,0,0,0-1,5.17,13.25,13.25,0,0,0,.42,3.4A8.06,8.06,0,0,0,311.94,203.78Zm4.69-9.54a8.82,8.82,0,0,1,1.35-2.56,6.8,6.8,0,0,1,2.07-1.79,5.39,5.39,0,0,1,2.62-.66h.72l.47,0a2.25,2.25,0,0,1,.36.06l.42.08-1.49,6.2c-.13.62-.26,1.29-.38,2s-.21,1.44-.26,2.11a5.78,5.78,0,0,1-1.61,1.21,3.91,3.91,0,0,1-1.69.36,2.56,2.56,0,0,1-2.4-1.1,5.94,5.94,0,0,1-.66-3A9.12,9.12,0,0,1,316.63,194.24Zm31.52,11.53h6.28l5.43-22.62H368l1.29-5.27H346.7l-1.29,5.27h8.17Zm24.15,0,3.9-16.34c.38-.08.76-.15,1.15-.2a9.65,9.65,0,0,1,1.23-.08,2.43,2.43,0,0,1,2.07.74,3,3,0,0,1,.54,1.79,7.48,7.48,0,0,1-.14,1.45c-.09.51-.19,1-.3,1.45l-2.66,11.19h6l2.74-11.43a13.94,13.94,0,0,0,.4-3.34,8.73,8.73,0,0,0-.4-2.7,5.89,5.89,0,0,0-1.21-2.15,5.52,5.52,0,0,0-2.05-1.41,8.08,8.08,0,0,0-3-.5,11.28,11.28,0,0,0-1.63.12c-.55.08-1.09.17-1.63.28l2.45-10.1-6.23,1-7.25,30.27Zm19.66-2a6.48,6.48,0,0,0,2.33,1.89,7.75,7.75,0,0,0,3.45.71,7.51,7.51,0,0,0,3.05-.61,10.41,10.41,0,0,0,2.5-1.53c.13.38.27.71.4,1s.28.6.45.92l5.35-.76a16.29,16.29,0,0,1-.93-4.13,13.49,13.49,0,0,1,.32-4.6l2.62-10.95a13,13,0,0,0-2.45-.89,20.22,20.22,0,0,0-2.46-.46c-.78-.09-1.47-.16-2.07-.18s-1,0-1.27,0A12.65,12.65,0,0,0,394,188a13.1,13.1,0,0,0-2.73,4.29,13.86,13.86,0,0,0-1,5.23,13.72,13.72,0,0,0,.4,3.4A7.68,7.68,0,0,0,392,203.74Zm4.75-9.64a8.42,8.42,0,0,1,1.39-2.56,7.51,7.51,0,0,1,2.07-1.79,5.08,5.08,0,0,1,2.56-.68,10,10,0,0,1,1,0l.95.12-1.57,6.36c-.14.62-.26,1.29-.38,2s-.21,1.44-.26,2.11a6.19,6.19,0,0,1-1.59,1.21,3.83,3.83,0,0,1-1.68.36,2.49,2.49,0,0,1-2.37-1.12,6.16,6.16,0,0,1-.64-3.06A9,9,0,0,1,396.71,194.1Zm25.9-4.71a12.14,12.14,0,0,1,2.37-.24,2.87,2.87,0,0,1,1.8.46,2.1,2.1,0,0,1,.74,1.21,5,5,0,0,1,0,1.73c-.09.66-.22,1.34-.38,2l-2.66,11.19h6l2.74-11.43q1.15-4.74-.61-7.49t-6.52-2.73a25,25,0,0,0-2.88.14,21.26,21.26,0,0,0-2.29.36c-.68.15-1.3.31-1.85.48l-1.51.47-4.87,20.2h6Zm24,11.61c.44.82.84,1.65,1.21,2.48s.66,1.59.9,2.29h6.68c-.29-.91-.66-1.88-1.1-2.9s-.93-2-1.45-3-1.08-2-1.65-2.86a27.87,27.87,0,0,0-1.71-2.42q3.14-2.69,5.57-5.09c1.62-1.59,3.19-3.23,4.69-4.89H453q-1.53,1.69-3.66,3.7c-1.43,1.35-2.94,2.66-4.55,3.95L449,174.54l-6.24,1-7.24,30.27h6l2.25-9.26a23.86,23.86,0,0,1,1.45,2.1C445.67,199.39,446.14,200.18,446.58,201Zm39.14-5.63q1.25-2.4,2.4-5.05t2.27-5.72H484a82.67,82.67,0,0,1-2.76,7.81,37.29,37.29,0,0,1-3.4,6.44c-.16-1-.31-2-.44-3.26s-.26-2.45-.36-3.72-.2-2.55-.28-3.81-.14-2.41-.17-3.46h-6.15a95.43,95.43,0,0,0,1.18,11.27c.58,3.33,1.22,6.33,1.92,9a7.2,7.2,0,0,1-2.12,2.43,4.48,4.48,0,0,1-2.67.91,5.84,5.84,0,0,1-1.57-.18,12.84,12.84,0,0,1-1.45-.51L464,212.25a9.7,9.7,0,0,0,1.89.71,9.87,9.87,0,0,0,2.41.26,9.57,9.57,0,0,0,4.05-.81,12.59,12.59,0,0,0,3.18-2.09,18.49,18.49,0,0,0,2.59-2.9c.78-1.07,1.53-2.13,2.26-3.18q1.49-2.13,2.82-4.3C484,198.49,484.89,197,485.72,195.37Zm7.15,8.51a6.76,6.76,0,0,0,2.59,1.81,9.71,9.71,0,0,0,3.7.65,10.58,10.58,0,0,0,5.18-1.23,11.77,11.77,0,0,0,3.72-3.16,14.05,14.05,0,0,0,2.25-4.35,15.92,15.92,0,0,0,.77-4.83,11.46,11.46,0,0,0-.52-3.52,7.94,7.94,0,0,0-1.55-2.76,6.87,6.87,0,0,0-2.62-1.81,9.75,9.75,0,0,0-3.68-.64,10.4,10.4,0,0,0-5.08,1.22,12.57,12.57,0,0,0-3.74,3.16,13.78,13.78,0,0,0-2.31,4.35,15.36,15.36,0,0,0-.79,4.83,11.16,11.16,0,0,0,.53,3.52A7.63,7.63,0,0,0,492.87,203.88Zm4.22-9.52a9.41,9.41,0,0,1,1-2.55,6.49,6.49,0,0,1,1.69-1.94,3.74,3.74,0,0,1,2.33-.76,2.47,2.47,0,0,1,2.34,1.11,6.32,6.32,0,0,1,.64,3.16,10.85,10.85,0,0,1-.34,2.63,9.47,9.47,0,0,1-1,2.56,6.45,6.45,0,0,1-1.69,1.93,3.74,3.74,0,0,1-2.33.76,2.47,2.47,0,0,1-2.34-1.1,6.35,6.35,0,0,1-.64-3.16A11,11,0,0,1,497.09,194.36Zm35.52,11a16.75,16.75,0,0,1-.92-4.13,13.24,13.24,0,0,1,.32-4.6l2.86-12h-6l-2.62,11c-.13.62-.26,1.29-.38,2s-.21,1.44-.26,2.11a5.93,5.93,0,0,1-1.67,1.19,4.25,4.25,0,0,1-1.71.34,2.14,2.14,0,0,1-1.59-.5,2.2,2.2,0,0,1-.63-1.29,5.79,5.79,0,0,1,0-1.71c.1-.61.21-1.22.35-1.81l2.69-11.35h-6L514.34,196a13.82,13.82,0,0,0-.42,3.79,7.81,7.81,0,0,0,.78,3.28,5.54,5.54,0,0,0,2.19,2.29,7.49,7.49,0,0,0,3.85.87,8,8,0,0,0,3.14-.61,11.09,11.09,0,0,0,2.53-1.49,18.47,18.47,0,0,0,.85,2Zm17.75,3.36a42.53,42.53,0,0,0,3-8.95l2.46-10.27h7l1.21-4.91H557l.24-1a6.07,6.07,0,0,1,1.47-2.81,4.33,4.33,0,0,1,3.28-1.13,9.37,9.37,0,0,1,1.75.18,6.5,6.5,0,0,1,1.68.54l2-4.7a14.5,14.5,0,0,0-2-.71,11.89,11.89,0,0,0-3.16-.38q-4.76,0-7.37,2.33a12.41,12.41,0,0,0-3.62,6.6L547,201c-.21.94-.49,2-.82,3a28,28,0,0,1-1.21,3.2,24.15,24.15,0,0,1-1.59,3,12.05,12.05,0,0,1-1.93,2.38l5.35.76A13,13,0,0,0,550.36,208.73ZM581.84,202a14.05,14.05,0,0,0,2.25-4.35,15.92,15.92,0,0,0,.77-4.83,11.16,11.16,0,0,0-.53-3.52,7.78,7.78,0,0,0-1.55-2.76,6.76,6.76,0,0,0-2.61-1.81,9.77,9.77,0,0,0-3.69-.64,10.39,10.39,0,0,0-5.07,1.22,12.57,12.57,0,0,0-3.74,3.16,14,14,0,0,0-2.32,4.35,15.64,15.64,0,0,0-.78,4.83,11.17,11.17,0,0,0,.52,3.52,7.94,7.94,0,0,0,1.55,2.76,6.88,6.88,0,0,0,2.6,1.81,9.71,9.71,0,0,0,3.7.65,10.54,10.54,0,0,0,5.17-1.23A11.92,11.92,0,0,0,581.84,202ZM578.56,196a9.47,9.47,0,0,1-1,2.56,6.59,6.59,0,0,1-1.69,1.93,3.74,3.74,0,0,1-2.33.76,2.47,2.47,0,0,1-2.34-1.1,6.35,6.35,0,0,1-.64-3.16,11,11,0,0,1,.34-2.64,9.41,9.41,0,0,1,1-2.55,6.35,6.35,0,0,1,1.69-1.94,3.74,3.74,0,0,1,2.33-.76,2.47,2.47,0,0,1,2.34,1.11,6.43,6.43,0,0,1,.64,3.16A11.37,11.37,0,0,1,578.56,196Zm17.81-6.5a10.58,10.58,0,0,1,1.12-.22,8.36,8.36,0,0,1,1.25-.1,11.21,11.21,0,0,1,2.32.18l1.59.38,1.77-4.83a8.49,8.49,0,0,0-2.16-.58,15.38,15.38,0,0,0-2.23-.18,21.71,21.71,0,0,0-4.85.5c-1.44.34-2.73.69-3.88,1.07l-4.83,20h6Zm-279.9,44.8a12.89,12.89,0,0,1-.74,2.25,5.08,5.08,0,0,1-1,1.51,3.64,3.64,0,0,1-1.43.85,6.62,6.62,0,0,1-1.95.26,6.5,6.5,0,0,1-2.72-.52,12.74,12.74,0,0,1-2.11-1.21l-2.78,4.67a12.06,12.06,0,0,0,3.44,1.79,12.81,12.81,0,0,0,4.13.66,14.69,14.69,0,0,0,4.59-.62,8.68,8.68,0,0,0,3.18-1.81,9.61,9.61,0,0,0,2.09-2.86,17.67,17.67,0,0,0,1.29-3.72l4.67-19.44h-6.28Zm36-15.72a10,10,0,0,0-3.54-2.31,12.18,12.18,0,0,0-4.51-.81A14,14,0,0,0,337.8,217a16.18,16.18,0,0,0-5,4,18.47,18.47,0,0,0-3.12,5.57,18.88,18.88,0,0,0-1.08,6.24,13.74,13.74,0,0,0,.82,4.91,10.39,10.39,0,0,0,2.31,3.68,10.17,10.17,0,0,0,3.55,2.32,12.16,12.16,0,0,0,4.5.8A14.28,14.28,0,0,0,346.5,243a15.92,15.92,0,0,0,5-4,17.92,17.92,0,0,0,3.1-5.6,19.17,19.17,0,0,0,1.06-6.25,13.7,13.7,0,0,0-.82-4.91A10.4,10.4,0,0,0,352.49,218.59Zm-4,13.37a12.59,12.59,0,0,1-1.85,3.68,9.66,9.66,0,0,1-2.78,2.57,6.46,6.46,0,0,1-3.44,1,4.62,4.62,0,0,1-4.13-1.87,8.61,8.61,0,0,1-1.26-4.89,14.26,14.26,0,0,1,.66-4.31,12.58,12.58,0,0,1,1.85-3.7,9.84,9.84,0,0,1,2.78-2.58,6.55,6.55,0,0,1,3.44-1,4.63,4.63,0,0,1,4.13,1.87,8.61,8.61,0,0,1,1.26,4.89A14.25,14.25,0,0,1,348.53,232Zm15.31-15.84L357.16,244h6.24l6.72-27.89Zm29.91,0-4,16.78q-1-2.33-2.14-4.73t-2.25-4.61c-.75-1.47-1.49-2.85-2.2-4.12s-1.37-2.38-2-3.32H376.4L369.72,244h6.16l4.43-18.47a92.58,92.58,0,0,1,4.48,9q2.08,4.76,3.77,9.5h4.71L400,216.12Zm12.52,0L399.59,244h6.23l6.73-27.89Zm25.92,16.78q-1-2.33-2.13-4.73t-2.26-4.61c-.75-1.47-1.48-2.85-2.19-4.12s-1.38-2.38-2-3.32h-4.79L412.14,244h6.16l4.43-18.47a92.61,92.61,0,0,1,4.49,9q2.07,4.76,3.76,9.5h4.71l6.72-27.89h-6.24Zm20.93-8.63a9.58,9.58,0,0,1,3.24-2.52,9.85,9.85,0,0,1,4.37-.92,11.51,11.51,0,0,1,3.12.44,11.26,11.26,0,0,1,3,1.33l2.26-4.87a13.11,13.11,0,0,0-3.89-1.69,15.9,15.9,0,0,0-4.08-.57,17.1,17.1,0,0,0-7.41,1.53,16.49,16.49,0,0,0-8.67,9.5,18.42,18.42,0,0,0-1.11,6.24,15.26,15.26,0,0,0,.73,4.91,9.42,9.42,0,0,0,5.77,6.06,13.85,13.85,0,0,0,5,.82,29.08,29.08,0,0,0,5.44-.42,20.89,20.89,0,0,0,3.26-.86l3.38-14h-6.28l-2.34,9.7c-.35.05-.73.1-1.16.14s-.92.06-1.45.06a5.58,5.58,0,0,1-4.37-1.63q-1.47-1.63-1.47-5.17a14.07,14.07,0,0,1,.69-4.43A10.87,10.87,0,0,1,453.12,224.27Zm37.33,0a9.72,9.72,0,0,1,3.14-2.52,9,9,0,0,1,4.12-.92,11.82,11.82,0,0,1,2.86.32,13.35,13.35,0,0,1,3,1.21l2.26-4.87a15.27,15.27,0,0,0-3.93-1.57,17.16,17.16,0,0,0-11,1.08,16.69,16.69,0,0,0-8.53,9.5,18.42,18.42,0,0,0-1.11,6.24,14.12,14.12,0,0,0,.81,4.93,10.43,10.43,0,0,0,2.27,3.72,10,10,0,0,0,3.54,2.36,12.3,12.3,0,0,0,4.57.82,21.5,21.5,0,0,0,4.91-.48,17.61,17.61,0,0,0,3.67-1.29l-.69-5.11a17.25,17.25,0,0,1-3,1.05,14.7,14.7,0,0,1-3.56.4,5.92,5.92,0,0,1-4.45-1.61q-1.54-1.6-1.55-5.15a14.07,14.07,0,0,1,.69-4.43A11.18,11.18,0,0,1,490.45,224.27ZM518,216.12h-6.28L505,244h18.6l1.28-5.31H512.57Zm33.13,2.47a10.15,10.15,0,0,0-3.55-2.31,12.13,12.13,0,0,0-4.5-.81,14.09,14.09,0,0,0-6.65,1.55,16.3,16.3,0,0,0-5,4,18.47,18.47,0,0,0-3.12,5.57,18.88,18.88,0,0,0-1.08,6.24,13.74,13.74,0,0,0,.82,4.91,10.27,10.27,0,0,0,2.32,3.68,10,10,0,0,0,3.54,2.32,12.18,12.18,0,0,0,4.51.8,14.27,14.27,0,0,0,6.68-1.53,15.81,15.81,0,0,0,5-4,17.92,17.92,0,0,0,3.1-5.6,19.19,19.19,0,0,0,1.07-6.25,13.7,13.7,0,0,0-.83-4.91A10.53,10.53,0,0,0,551.13,218.59Zm-4,13.37a12.59,12.59,0,0,1-1.85,3.68,9.66,9.66,0,0,1-2.78,2.57,6.44,6.44,0,0,1-3.44,1,4.6,4.6,0,0,1-4.12-1.87,8.53,8.53,0,0,1-1.27-4.89,14.26,14.26,0,0,1,.66-4.31,12.58,12.58,0,0,1,1.85-3.7,9.84,9.84,0,0,1,2.78-2.58,6.55,6.55,0,0,1,3.44-1,4.62,4.62,0,0,1,4.13,1.87,8.61,8.61,0,0,1,1.27,4.89A14.25,14.25,0,0,1,547.16,232Zm27.55-15.72a19.5,19.5,0,0,0-2.25-.55,14.62,14.62,0,0,0-2.5-.22,16.06,16.06,0,0,0-4.91.67,10.08,10.08,0,0,0-3.48,1.83,7.67,7.67,0,0,0-2.09,2.76,8.37,8.37,0,0,0-.71,3.44,7.41,7.41,0,0,0,.41,2.55,7.68,7.68,0,0,0,1.08,2,8.79,8.79,0,0,0,1.65,1.63,21.59,21.59,0,0,0,2.06,1.36c.56.33,1.12.62,1.69.89a11.15,11.15,0,0,1,1.53.88,5.22,5.22,0,0,1,1.12,1.07,2.21,2.21,0,0,1,.45,1.39,2.91,2.91,0,0,1-.47,1.71,3.16,3.16,0,0,1-1.18,1,5.56,5.56,0,0,1-1.66.5,12.7,12.7,0,0,1-1.85.14,8.85,8.85,0,0,1-2-.22,16.29,16.29,0,0,1-1.83-.54,14.29,14.29,0,0,1-1.55-.69c-.46-.24-.85-.47-1.17-.68L554.39,242a11.65,11.65,0,0,0,1.38.8,14.19,14.19,0,0,0,2.06.83,23.84,23.84,0,0,0,2.65.66,16.66,16.66,0,0,0,3.16.28,18.94,18.94,0,0,0,4.69-.54,10.47,10.47,0,0,0,3.65-1.67,7.79,7.79,0,0,0,2.37-2.82,8.81,8.81,0,0,0,.85-4,7.12,7.12,0,0,0-.53-2.86,7.55,7.55,0,0,0-1.41-2.15,9.9,9.9,0,0,0-2-1.67c-.78-.49-1.58-.94-2.41-1.37l-1.37-.69a5.47,5.47,0,0,1-1.13-.72,3.25,3.25,0,0,1-.78-.95,3,3,0,0,1,.08-2.83,2.85,2.85,0,0,1,1-1,4.33,4.33,0,0,1,1.49-.54,9.24,9.24,0,0,1,1.77-.17,9.48,9.48,0,0,1,5.6,1.82l2.61-4.63a11.86,11.86,0,0,0-1.47-.83A12.47,12.47,0,0,0,574.71,216.24Zm27.59,2.65a11.19,11.19,0,0,0-4-2.29,16.35,16.35,0,0,0-5.33-.81c-1.13,0-2.4.07-3.81.19a40.93,40.93,0,0,0-4.41.62l-6.48,26.93a35.63,35.63,0,0,0,4.27.64c1.48.14,2.78.2,3.91.2a25,25,0,0,0,8-1.2,17.13,17.13,0,0,0,6-3.45,14.91,14.91,0,0,0,3.81-5.45,19.06,19.06,0,0,0,1.32-7.29,11.84,11.84,0,0,0-.84-4.54A9.79,9.79,0,0,0,602.3,218.89Zm-3.92,13.35a10.54,10.54,0,0,1-2.27,3.7,9.66,9.66,0,0,1-3.59,2.31,13.11,13.11,0,0,1-4.73.81l-1.26,0c-.31,0-.62,0-.91-.06l4.27-17.79c.83-.08,1.65-.12,2.45-.12a10,10,0,0,1,3.16.44,5.47,5.47,0,0,1,2.13,1.27,4.79,4.79,0,0,1,1.19,2,8.56,8.56,0,0,1,.36,2.56A14.2,14.2,0,0,1,598.38,232.24Zm28.5-.26,1.24-5.08H617.58l1.29-5.63h12l1.29-5.15H613.88L607.19,244h19.12l1.29-5.19H614.72l1.61-6.84Zm27.83-2.24q-.51-3.68-1.09-7.2t-1.23-6.42H646.8c-1.4,1.93-2.76,3.91-4.11,5.93s-2.71,4.17-4.12,6.42-2.87,4.66-4.39,7.21S631,241,629.29,244h6.56c.54-1,1.1-2.07,1.69-3.08s1.16-2,1.69-3H649.7c.08,1,.15,2,.22,3s.13,2,.18,3.08h6.32q-.36-3.22-.79-6.9C655.35,234.65,655,232.2,654.71,229.74ZM641.77,233q1.53-2.78,3.16-5.43t3.32-5.36q.4,2.79.62,5.56c.15,1.85.29,3.6.43,5.23Zm25.88,5.68,5.43-22.58H666.8L660.12,244h18.6L680,238.7Z" transform="translate(-75.04 -89.31)"/><path class="cls-1" d="M286.94,126.41c-.18,0-.28.1-.31.32a7,7,0,0,1-1.59,1.91,51,51,0,0,1-4.18,3.68q-2.61,2.1-5.55,4.09a35.19,35.19,0,0,1-6.21,3.37,15,15,0,0,1-5.66,1.38,4.45,4.45,0,0,1-3.54-1.31,5,5,0,0,1-1.15-3.47q0-5.19,3.83-11.71a48.52,48.52,0,0,1,9-11.27,52.91,52.91,0,0,1,10.88-7.75q5.7-3,8.92-3c.81,0,1.21.3,1.21.89,0,.88-.75,2.18-2.25,3.92a32.22,32.22,0,0,1-5,4.72c-1.86,1.4-3.18,2.09-4,2.09s-1.19-.13-1.19-.41a.55.55,0,0,1,.14-.34c-.37,0-.67.33-.91,1a5.38,5.38,0,0,0-.36,1.82,2.8,2.8,0,0,0,1.2,1.87,4.23,4.23,0,0,0,2.89,1,9.44,9.44,0,0,0,4.49-1.72,33.8,33.8,0,0,0,5.43-4.19,29.07,29.07,0,0,0,4.55-5.49,10,10,0,0,0,1.93-5,4.55,4.55,0,0,0-1.24-3.28,7.69,7.69,0,0,0-5.74-2.44,27,27,0,0,0-9,1.68,42.59,42.59,0,0,0-9.08,4.54,58,58,0,0,0-8.33,6.74,55.77,55.77,0,0,0-6.95,8.1A40.17,40.17,0,0,0,254.5,127a25.59,25.59,0,0,0-1.73,8.94,10.3,10.3,0,0,0,3.08,7.47,9.33,9.33,0,0,0,6.8,3.14,25.45,25.45,0,0,0,7.65-1.23,32.86,32.86,0,0,0,11.93-6.88q4.51-4,5-6.19a31.22,31.22,0,0,0,.58-4.56C287.77,126.85,287.49,126.41,286.94,126.41ZM314.49,129a13.13,13.13,0,0,0,1.34-5,3.5,3.5,0,0,0-1.09-2.83,3.27,3.27,0,0,0-2.11-.93,11,11,0,0,0-1.51.07v-.21a.85.85,0,0,0-.35-.55,3.94,3.94,0,0,0-2.85-.93q-4.23,0-9.84,4.51a37.11,37.11,0,0,0-5,5,23.84,23.84,0,0,0-3.77,6.38,17.81,17.81,0,0,0-1.46,6.58,6.46,6.46,0,0,0,1.6,4.65,5.63,5.63,0,0,0,4.25,1.67,12.54,12.54,0,0,0,5.89-1.78,26.82,26.82,0,0,0,6.06-4.54,51.59,51.59,0,0,0,5.14-5.91A33.1,33.1,0,0,0,314.49,129Zm-6.21.2a42,42,0,0,1-4.09,6,24.9,24.9,0,0,1-5.52,5.3q-2.79,1.86-4.2,1.86c-.94,0-1.41-.65-1.41-1.93q.07-3.88,4.47-9.53a25.54,25.54,0,0,1,4.92-4.88,18.5,18.5,0,0,1,5.26-2.89c0,1.17.4,1.75,1.21,1.75h.24c.32,0,.48.31.48.91A9.64,9.64,0,0,1,308.28,129.17ZM398.43,126c1.27-2.1,1.91-3.59,1.91-4.49a2.86,2.86,0,0,0-.91-2.18,3.3,3.3,0,0,0-2.32-.85q-5.72,0-13.82,9.22l1.44-2.16c2-3,3-5,3-6.09,0-.69-.27-1-.82-1q-3.69,0-5.23,2a27.62,27.62,0,0,0-2.13,3.3q-.63,1.09-3.78,6.4-2.4,4-3.84,6.48a71.86,71.86,0,0,0-13.49,9.82q7.94-14,15.54-24.87l.26-.24a3.89,3.89,0,0,0,.39-.43.62.62,0,0,0,.17-.38.57.57,0,0,0,0-.22s-.09-.28-.21-.69a2.06,2.06,0,0,0-.38-.84c-.13-.15-.49-.23-1.06-.23s-1.06,0-1.45,0a4.56,4.56,0,0,0-3.33,1.65c-.44-.89-1.43-1.34-3-1.34a15.65,15.65,0,0,0-5.54,1.24,31.66,31.66,0,0,0-6.51,3.52,44.15,44.15,0,0,0-6.18,5.16,25.15,25.15,0,0,0-4.67,6.52,17.31,17.31,0,0,0-1.38,3.69l-.2.2a20.59,20.59,0,0,1-3,2.4,5.38,5.38,0,0,1-2.77,1.1c-1.37,0-2.06-.5-2.06-1.51a5.6,5.6,0,0,1,.48-2c.18-.44.36-.84.53-1.21s.4-.8.69-1.31.53-.92.72-1.27.45-.77.78-1.29l.68-1.08.64-1,.53-.83,1.31-1.91c.8-1.16,1.45-2.13,1.94-2.9a27,27,0,0,0,1.46-2.62,5.87,5.87,0,0,0,.72-2.51,2.55,2.55,0,0,0-.94-1.91,3.66,3.66,0,0,0-2.55-.86,9.28,9.28,0,0,0-3.59.86q-4.1,1.75-10,8.36l1.45-2.16c2-3,3-5,3-6.09,0-.69-.28-1-.83-1q-3.67,0-5.22,2a27.42,27.42,0,0,0-2.14,3.3q-.61,1.09-3.78,6.4t-4.69,8c-1,1.77-1.7,2.94-2.05,3.49s-.59,1-.74,1.22a8.12,8.12,0,0,0-.46,1,2.84,2.84,0,0,0-.24,1,.73.73,0,0,0,.27.62,8.46,8.46,0,0,0,1.5.67,5.85,5.85,0,0,0,1.94.47c.48,0,1.1-.5,1.86-1.48q4-5.4,7-8.64t7.41-7.6q4.49-4.36,5.62-4.47l.07.07a14,14,0,0,1-1.89,3.32c-1.19,1.78-2.2,3.34-3,4.68a35.06,35.06,0,0,0-2.39,4.83,13.37,13.37,0,0,0-1.17,5,4.8,4.8,0,0,0,1.79,3.76,5.69,5.69,0,0,0,3.61,1.59,9.62,9.62,0,0,0,3.33-.49,17.33,17.33,0,0,0,4.36-2.66c.66,1.68,2.3,2.53,4.93,2.53q1.71,0,5.21-2.31a42.92,42.92,0,0,0,7.2-6.19q-4.37,7-6.91,10.84c-.14.16-1,.86-2.51,2.09a53.09,53.09,0,0,0-5.06,4.78c-2.45,2.62-3.68,5.17-3.68,7.67s1.3,3.68,3.89,3.68a3,3,0,0,0,2.79-1.47,80.52,80.52,0,0,1,7.39-10,51.78,51.78,0,0,1,10.17-9c1.12-.78,2.18-1.49,3.22-2.18a.79.79,0,0,0,.24.56,7.36,7.36,0,0,0,1.48.67,5.89,5.89,0,0,0,2,.47c.49,0,1.09-.5,1.8-1.48q3.69-5,6.83-8.41c2.1-2.31,4.64-4.91,7.63-7.83s4.87-4.4,5.62-4.47l.07.07c-1.69,2-2.54,3.78-2.54,5.37a3,3,0,0,0,.6,1.85,2,2,0,0,0,1.68.79,2.45,2.45,0,0,0,2-1.1C396,129.88,397.16,128.11,398.43,126Zm-43.75,9.58q-2.26,2.06-4.13,3.56a28.64,28.64,0,0,1-2.87,2.11,3.64,3.64,0,0,1-1.3.62c-.2,0-.3-.19-.3-.58q0-2.45,3.1-6.88a33.58,33.58,0,0,1,3.92-4.63,27.11,27.11,0,0,1,5.77-4.23,26.44,26.44,0,0,1,7.5-2.83A118.75,118.75,0,0,1,354.68,135.59Zm215-6.62a13.13,13.13,0,0,0,1.34-5,3.53,3.53,0,0,0-1.08-2.83,3.32,3.32,0,0,0-2.12-.93,11,11,0,0,0-1.51.07v-.21a.87.87,0,0,0-.34-.55,4,4,0,0,0-2.86-.93q-4.23,0-9.83,4.51a37.18,37.18,0,0,0-5,5,23.82,23.82,0,0,0-3.76,6.38,21,21,0,0,0-1.12,3.59c-.3.31-.62.64-1,1a16.11,16.11,0,0,1-2.94,2.39,6.16,6.16,0,0,1-3.29,1.08c-1,0-1.58-.39-1.58-1.17a5.36,5.36,0,0,1,.69-2.3c.23-.44.43-.81.6-1.12s.41-.7.72-1.17.5-.77.57-.91q8.19-14.1,8.18-14.89a2.78,2.78,0,0,0-.85-1.76,2.59,2.59,0,0,0-2-1,6.33,6.33,0,0,0-3.13,1.49,24.84,24.84,0,0,0-3.47,3c-.95,1-1.43,1.65-1.43,1.89s.24.62.71,1.12.7.84.7,1a23.38,23.38,0,0,1-1.89,3.31c-1.26,2-2.52,4.27-3.78,6.68-.09.16-.16.32-.24.48-.56.48-1.22,1.06-2,1.75a24.62,24.62,0,0,1-3.17,2.36,6,6,0,0,1-3.13,1.08c-.94,0-1.41-.45-1.41-1.34a13.58,13.58,0,0,1,.14-1.68q.32-2.28,5.31-11.3t7.79-13.3c.55,0,3.49-.29,8.8-.82a4.82,4.82,0,0,0,1.88-.6,1.83,1.83,0,0,0,.72-.68,1.74,1.74,0,0,0,2,1.83,5.22,5.22,0,0,0,3.8-2,5.9,5.9,0,0,0,1.82-3.94,1.85,1.85,0,0,0-.55-1.44,2.06,2.06,0,0,0-1.48-.52,5.16,5.16,0,0,0-3.83,1.88,6.07,6.07,0,0,0-1.65,3.13,1.2,1.2,0,0,0-.36-.59,5.78,5.78,0,0,1-1-1.06,2.44,2.44,0,0,0-.95-.86,4.73,4.73,0,0,0-1.53-.16c-.74,0-2,.07-3.8.21,0-.09.4-.65,1-1.67s1.22-1.93,1.7-2.74a5,5,0,0,0,.72-1.47,1,1,0,0,0-.24-.59.7.7,0,0,0-.55-.31l-1.41-.34-1.61.2a1.34,1.34,0,0,0-.69.12c-.11.09-.53.54-1.25,1.36a67.68,67.68,0,0,0-4,5.57l-3.09.14c-.32,0-.79,0-1.39.07l-1.65.07-1.53.09a6,6,0,0,0-2.36,1q-1.56.93-1.8,1.68a2.79,2.79,0,0,1-.6.86,1.67,1.67,0,0,0-.5,1.14c0,.39.31.71.93,1a4.88,4.88,0,0,0,1.92.39h.31c.44,0,2-.15,4.64-.44l1.31-.18Q523.7,121,520,127.71a74,74,0,0,0-3.76,7.72c-.21.51-.39,1-.56,1.48a3,3,0,0,0-.23.26c-.7.78-1.42,1.54-2.15,2.29a18.85,18.85,0,0,1-2.51,2.1,4.56,4.56,0,0,1-2.44,1c-.69,0-1-.63-1-1.9a3.41,3.41,0,0,1,.11-1,30.22,30.22,0,0,1,2.28-6.72,71.47,71.47,0,0,1,3.24-6.47,21,21,0,0,1,1.9-3,1.93,1.93,0,0,0,.45-1.41c0-1.2-.87-1.79-2.61-1.79a3.56,3.56,0,0,0-1.7.32,5.12,5.12,0,0,0-1.4,1.57,2.8,2.8,0,0,0-1.48-1.55,6.43,6.43,0,0,0-3-.62q-4.81,0-10.52,4.47a37.85,37.85,0,0,0-5,4.73A22.64,22.64,0,0,0,485.9,135a15.94,15.94,0,0,0-1.26,4.45,16.9,16.9,0,0,1-2.8,2.17,6.37,6.37,0,0,1-3.31,1.1,3.85,3.85,0,0,1-2.6-.91,2.68,2.68,0,0,1-1.05-2.05,10,10,0,0,1,.26-2.25,13.15,13.15,0,0,0,.29-1.53q5.51-6.09,11.49-13.73,3.78-4.81,6.77-9.09a76,76,0,0,0,5.12-8.4c1.42-2.73,2.13-4.75,2.13-6a3.49,3.49,0,0,0-1.25-2.91,4.63,4.63,0,0,0-2.91-1q-5.36,0-15.5,14.38a73,73,0,0,0-8.1,15.42A53.31,53.31,0,0,0,470,135.82a.61.61,0,0,0-.42-.16.88.88,0,0,0-.58.19,15.72,15.72,0,0,0-1.26,1.29c-.67.73-1.36,1.45-2,2.16q-2.82,2.92-4.82,3.2c-.73,0-1.1-.48-1.1-1.44q0-2.55,4.06-10.94.27-.56,2.7-4.71a39.76,39.76,0,0,0,2.73-5.13,2.19,2.19,0,0,0-.27-.86c-.19-.36-.35-.56-.48-.58a4.18,4.18,0,0,0-.59,0,7.27,7.27,0,0,0-3.82,1,7.19,7.19,0,0,0-1.46,1.68,28.68,28.68,0,0,0-2,3.39q-1,2-7.6,9.17t-8.21,7.15c-.26,0-.38-.17-.38-.52q0-2,6.81-14.34a24.8,24.8,0,0,0,2.3-4.64,2.84,2.84,0,0,0-2.51-2.15,2.87,2.87,0,0,0-2,1.37,37.29,37.29,0,0,0-2.64,4.18q-1.6,2.82-2.58,4.49c-.66,1.11-1.13,1.94-1.43,2.49s-.75,1.44-1.36,2.65-1.06,2.24-1.37,3.06c0,.05,0,.1,0,.14-.38.34-.79.69-1.24,1.1a24,24,0,0,1-3.17,2.36A6,6,0,0,1,432,142.5c-.94,0-1.41-.45-1.41-1.34a13.27,13.27,0,0,1,.13-1.68q.31-2.28,5.32-11.3t7.78-13.3q.82,0,8.81-.82a4.83,4.83,0,0,0,1.87-.6,1.45,1.45,0,0,0,.88-1.22,1.31,1.31,0,0,0-.45-1.09,5.78,5.78,0,0,1-1-1.06,2.44,2.44,0,0,0-.95-.86,4.73,4.73,0,0,0-1.53-.16c-.74,0-2,.07-3.8.21.05-.09.4-.65,1.05-1.67s1.22-1.93,1.71-2.74a5,5,0,0,0,.72-1.47,1,1,0,0,0-.24-.59.72.72,0,0,0-.55-.31l-1.41-.34-1.62.2a1.36,1.36,0,0,0-.69.12c-.11.09-.53.54-1.25,1.36s-2,2.69-4,5.57l-3.1.14c-.32,0-.78,0-1.39.07l-1.65.07-1.53.09a6.1,6.1,0,0,0-2.36,1q-1.56.93-1.8,1.68a2.79,2.79,0,0,1-.6.86,1.67,1.67,0,0,0-.5,1.14c0,.39.31.71.93,1a4.92,4.92,0,0,0,1.92.39h.31c.44,0,2-.15,4.64-.44l1.31-.18q-3.72,5.85-7.43,12.52a76.06,76.06,0,0,0-3.76,7.72c-.21.51-.39,1-.55,1.48l-.24.26c-.7.78-1.42,1.54-2.15,2.29a18.85,18.85,0,0,1-2.51,2.1,4.54,4.54,0,0,1-2.44,1c-.69,0-1-.63-1-1.9a3.47,3.47,0,0,1,.1-1,29.81,29.81,0,0,1,2.29-6.72,71.73,71.73,0,0,1,3.23-6.47,19.78,19.78,0,0,1,1.91-3,2,2,0,0,0,.44-1.41c0-1.2-.87-1.79-2.61-1.79a3.58,3.58,0,0,0-1.7.32,5.13,5.13,0,0,0-1.39,1.57,2.83,2.83,0,0,0-1.48-1.55,6.5,6.5,0,0,0-3-.62q-4.81,0-10.52,4.47a37.85,37.85,0,0,0-5,4.73,22.64,22.64,0,0,0-3.66,5.75,15.29,15.29,0,0,0-1.39,6.26,6.31,6.31,0,0,0,1.89,4.86,5.32,5.32,0,0,0,3.82,1.41q2.34,0,6-2.58a29.33,29.33,0,0,0,6.55-6.29,8.74,8.74,0,0,0-.69,3.59,6,6,0,0,0,1.31,3.74,4.84,4.84,0,0,0,4.08,1.68q2.76,0,6.15-2.75c.49-.4.93-.78,1.35-1.15a5,5,0,0,0,1,1.89,6.74,6.74,0,0,0,4,2,4.22,4.22,0,0,0,1,.1,8.79,8.79,0,0,0,4.75-1.51c.74-.47,1.57-1.07,2.48-1.76a4.73,4.73,0,0,0,1.07,2,3.91,3.91,0,0,0,3.12,1.38q4.84,0,13.37-10.7a11.17,11.17,0,0,0-1.48,5.47c0,1.86.53,3.16,1.58,3.9a5.82,5.82,0,0,0,3.44,1.12q3,0,6.4-2.77a22.76,22.76,0,0,0,3.73-3.69,7.65,7.65,0,0,0,1.63,4.62,6.09,6.09,0,0,0,4.92,2,15.81,15.81,0,0,0,6.84-1.74,18.2,18.2,0,0,0,2.28-1.35,5.45,5.45,0,0,0,1.09,1.4,5.3,5.3,0,0,0,3.82,1.41c1.55,0,3.57-.86,6-2.58a29.54,29.54,0,0,0,6.55-6.29,8.74,8.74,0,0,0-.69,3.59,6,6,0,0,0,1.31,3.74,4.84,4.84,0,0,0,4.07,1.68q2.77,0,6.16-2.75c.49-.4.93-.78,1.34-1.15a5,5,0,0,0,1,1.89,6.74,6.74,0,0,0,4,2,4.1,4.1,0,0,0,1,.1,8.73,8.73,0,0,0,4.74-1.51c.91-.58,2-1.34,3.11-2.25a6.74,6.74,0,0,0,1.57,2,6.61,6.61,0,0,0,4.68,1.83,13.33,13.33,0,0,0,6.39-2.12,14.73,14.73,0,0,0,2.23-1.56,5.23,5.23,0,0,0,1,1.53,5.6,5.6,0,0,0,4.24,1.67,12.58,12.58,0,0,0,5.9-1.78,27,27,0,0,0,6-4.54,50.63,50.63,0,0,0,5.14-5.91A32,32,0,0,0,569.71,129Zm-88.55-11.09a107.17,107.17,0,0,1,7.41-11q5.12-6.87,6.32-6.87c.23,0,.35.17.35.51q0,2.42-7.17,12.61t-11.23,15A57.93,57.93,0,0,1,481.16,117.88ZM412,132.56a52.15,52.15,0,0,1-5.85,5.59q-4.4,3.79-5.36,3.8-.69,0-.69-1.2t1.88-4.47a28.85,28.85,0,0,1,4.11-5.61q6.28-6.54,12.17-6.53Q413.61,130.56,412,132.56Zm89.81,0a53.09,53.09,0,0,1-5.85,5.59q-4.39,3.79-5.36,3.8-.69,0-.69-1.2c0-.8.63-2.29,1.87-4.47a28.85,28.85,0,0,1,4.11-5.61q6.3-6.54,12.17-6.53Q503.43,130.56,501.84,132.56Zm61.66-3.39a41.2,41.2,0,0,1-4.09,6,24.9,24.9,0,0,1-5.52,5.3q-2.77,1.86-4.19,1.86c-.94,0-1.41-.65-1.41-1.93q.06-3.88,4.47-9.53a25,25,0,0,1,4.92-4.88,18.37,18.37,0,0,1,5.26-2.89c0,1.17.4,1.75,1.2,1.75h.24c.32,0,.48.31.48.91A9.44,9.44,0,0,1,563.5,129.17Zm57.16-12.09a26.12,26.12,0,0,0-9.59,2.38,37.08,37.08,0,0,0-5.4,2.78,15.72,15.72,0,0,0-4.17,3.8,7.37,7.37,0,0,0-1.67,4.48,3.86,3.86,0,0,0,1.61,3.38,7.41,7.41,0,0,0,1.48.86,17.29,17.29,0,0,0,2,.67c.83.24,2.15.58,4,1a35.72,35.72,0,0,1,3.89,1.07c.77.28,1.15.62,1.15,1,0,.83-1.06,1.65-3.18,2.48a20.18,20.18,0,0,1-7.31,1.24,1.88,1.88,0,0,1-1.2-.62,2,2,0,0,1-.65-1.48l0-.55c0-.32-.22-.52-.61-.63,0-.24.06-.48.06-.75,0-1.72-.3-2.58-.89-2.58-.32,0-1.68,1.18-4.06,3.55a20.07,20.07,0,0,1-3,2.4,5.35,5.35,0,0,1-2.77,1.1c-1.37,0-2.06-.5-2.06-1.51a5.6,5.6,0,0,1,.48-2c.19-.44.36-.84.54-1.21s.4-.8.68-1.31l.73-1.27c.19-.34.45-.77.77-1.29l.69-1.08c.13-.21.35-.53.63-1l.54-.83c.06-.1.5-.74,1.3-1.91s1.45-2.13,1.94-2.9a27,27,0,0,0,1.47-2.62,5.87,5.87,0,0,0,.72-2.51,2.56,2.56,0,0,0-1-1.91,3.65,3.65,0,0,0-2.54-.86,9.2,9.2,0,0,0-3.59.86q-4.1,1.75-10,8.36l1.44-2.16c2-3,3-5,3-6.09,0-.69-.27-1-.82-1q-3.69,0-5.23,2a27.62,27.62,0,0,0-2.13,3.3c-.41.73-1.68,2.86-3.78,6.4s-3.68,6.18-4.7,8-1.7,2.94-2,3.49-.59,1-.74,1.22a8,8,0,0,0-.47,1,2.84,2.84,0,0,0-.24,1,.71.71,0,0,0,.28.62,7.88,7.88,0,0,0,1.49.67,5.9,5.9,0,0,0,2,.47c.48,0,1.1-.5,1.85-1.48q4.06-5.4,7-8.64t7.41-7.6c3-2.91,4.87-4.4,5.62-4.47l.07.07a14,14,0,0,1-1.89,3.32q-1.78,2.67-3,4.68a36.24,36.24,0,0,0-2.39,4.83,13.37,13.37,0,0,0-1.17,5,4.8,4.8,0,0,0,1.79,3.76,5.71,5.71,0,0,0,3.61,1.59,9.64,9.64,0,0,0,3.34-.49,20.05,20.05,0,0,0,5.29-3.4,3.72,3.72,0,0,0,1.53,2.73c1,.84,2.94,1.26,5.68,1.26A22.61,22.61,0,0,0,614,145a13.53,13.53,0,0,0,4.33-3.2,6.15,6.15,0,0,0,1.76-4.16,4.45,4.45,0,0,0-.86-2.37,7.3,7.3,0,0,0-3.1-2.34,50.57,50.57,0,0,0-9.35-2.44c-1.06-.21-1.58-.48-1.58-.81s.39-.85,1.17-1.56a23.31,23.31,0,0,1,2.94-2.24,22.32,22.32,0,0,1,4.24-2.12,15,15,0,0,1,4.75-1,2.76,2.76,0,0,1-.48.91,1.33,1.33,0,0,0-.35.84c0,.27.09.45.26.52a1,1,0,0,1,.43.32,1.26,1.26,0,0,0,.43.36,3.33,3.33,0,0,0,1.24.14,6.45,6.45,0,0,0,2.64-.82,6.79,6.79,0,0,0,2.45-1.86,4.72,4.72,0,0,0,.77-2.86V120a2.92,2.92,0,0,0-.28-1.3C624.78,117.64,623.21,117.08,620.66,117.08ZM663.13,95l-2.65-.34a3.63,3.63,0,0,0-2,.34q-1.57,1.25-7.25,9.37T639.7,122q-5.91,9.48-5.9,11.78a1.14,1.14,0,0,0,1.27,1.31,1.91,1.91,0,0,0,1.07-.21,1.63,1.63,0,0,1,1-.2,3.14,3.14,0,0,0,1.2-.21.69.69,0,0,0,.23-.09l.12-.08a.08.08,0,0,1,.07,0,2.86,2.86,0,0,0,1.4-1.41Q653.19,111.62,663.85,96a1.78,1.78,0,0,0,.14-.45C664,95.15,663.7,95,663.13,95Zm-30.76,45.85a5.46,5.46,0,0,0-3.83,1.77,5.38,5.38,0,0,0-1.82,3.95c0,1.46.66,2.19,2,2.19a5.3,5.3,0,0,0,3.83-2,5.83,5.83,0,0,0,1.84-4A1.77,1.77,0,0,0,632.37,140.82Z" transform="translate(-75.04 -89.31)"/><path class="cls-1" d="M154,89.31a79,79,0,1,0,79,79A79.06,79.06,0,0,0,154,89.31Zm10.08,47.94a16.7,16.7,0,0,1,12.53-5.45c2.18.27,4.63.27,6.81,1.36a16.89,16.89,0,0,1,5.72,4.09,19.9,19.9,0,0,1,5.18,12A28.77,28.77,0,0,0,187,139.7a16.9,16.9,0,0,0-20.7,0,28.77,28.77,0,0,0-7.36,9.54A19.09,19.09,0,0,1,164.12,137.25Zm-37.05-9.53c5.45,0,9.81,6,9.81,13.07,0,7.36-4.36,13.08-9.81,13.08s-9.8-6-9.8-13.08C117.27,133.44,121.62,127.72,127.07,127.72Zm26.15,88.8c-27,0-45.22-17.7-48.49-47.13H111c5.18,22.89,19.07,34.06,41.95,34.06s36.78-11.44,42-34.06h6.54C198.44,198.82,180.19,216.52,153.22,216.52Z" transform="translate(-75.04 -89.31)"/></svg>