<svg id="hint" xmlns="http://www.w3.org/2000/svg" viewBox="0 0 712.26 314.04"><defs><style>.cls-1{fill:#fff;}.cls-2,.cls-3,.cls-4{fill:none;stroke:#fff;}.cls-2{stroke-width:4px;}.cls-3,.cls-4{stroke-width:5px;}.cls-4{stroke-miterlimit:10;}</style></defs><title>hint</title><path class="cls-1" d="M456.75,87.11a4.59,4.59,0,0,0,.82-1.72.9.9,0,0,0-.42-.73,4.86,4.86,0,0,1-.49-.31.24.24,0,0,0-.15-.09.38.38,0,0,1-.14-.05.62.62,0,0,0-.26,0h-.46L452.59,84a3.1,3.1,0,0,0-1.47.32,4.27,4.27,0,0,0-1.32,1.32q-.74,1-13.88,21.68-10.82.34-20.13.34,1.74-2.7,5.53-8.46t6.19-9.45q2.4-3.69,2.67-4.22a2,2,0,0,0,.26-.76.59.59,0,0,0-.23-.44,2.47,2.47,0,0,1-.47-.55,4.72,4.72,0,0,0-.45-.59,2.42,2.42,0,0,0-.65-.45,3.24,3.24,0,0,0-1.41-.23,4.72,4.72,0,0,0-2.09.56q-2,1.27-5.3,3.23a36.49,36.49,0,0,1-4.64,2.27,10.63,10.63,0,0,1-3.75.89,8.16,8.16,0,0,1-2.74-.44c-.81-.28-1.22-.61-1.22-1,0-.11.12-.23.37-.34s.37-.22.37-.32c0-.27-.45-.41-1.33-.41a4.62,4.62,0,0,0-2.79,1.13,3.65,3.65,0,0,0-1.46,3.07,3.73,3.73,0,0,0,1.91,3.21,8.06,8.06,0,0,0,4.57,1.27,15.8,15.8,0,0,0,10.22-3.75q-6.32,8.93-10.85,16l-2,.07c-.77,0-2,0-3.81-.14l-3.34-.18-.91-.24c-.53,0-.8.31-.8.94a6.78,6.78,0,0,0,.35,1.87c.49,2,1.39,3,2.72,3.27a15.68,15.68,0,0,0,2.51.14l1.53.07s-1.33,2-4,6-4.31,6.49-4.95,7.56a25.14,25.14,0,0,0-1.55,2.95,5.75,5.75,0,0,0-.6,2.19c0,.83.5,1.25,1.5,1.25.14,0,.23,0,.26-.11s.07-.1.09-.1l.31.21.81,0a1.74,1.74,0,0,0,.8-.14,1.17,1.17,0,0,1,.37-.14q.07,0,.33.33a.66.66,0,0,0,.52.33,3,3,0,0,0,.73-.12q.45-.12,7.4-11.93,3.19-5.41,5.05-8.37l7.5,0q6.27,0,12.73-.17-9.79,15.92-10.88,18.45a3.2,3.2,0,0,0-.32,1.21c0,.79.59,1.18,1.75,1.18l1.95-.28h.21l.59-.1.56.1.94-.24.49.11c.16,0,.26-.07.28-.21a.51.51,0,0,1,.14-.21q.1-.1,10.78-17.79,6.17-10.17,14-22.09C454.8,90.14,456.21,88,456.75,87.11Zm3.59,14.47a5.31,5.31,0,0,0,3.86-2,5.94,5.94,0,0,0,1.85-4,1.92,1.92,0,0,0-.56-1.46,2.14,2.14,0,0,0-1.5-.52,5.21,5.21,0,0,0-3.89,1.9,5.79,5.79,0,0,0-1.76,4C458.34,100.88,459,101.58,460.34,101.58ZM514,127.7a5.32,5.32,0,0,0-3.92,1.9,5.74,5.74,0,0,0-1.8,4,1.83,1.83,0,0,0,2,2.1,5.25,5.25,0,0,0,3.85-2,6,6,0,0,0,1.83-4,2,2,0,0,0-.54-1.5A2,2,0,0,0,514,127.7Zm32.3-40Q542.35,83,534,83a29.83,29.83,0,0,0-14.48,4,18.13,18.13,0,0,0-5.42,4.48A9.1,9.1,0,0,0,512,96c-.78,0-2,.08-3.56.2,0-.09.4-.65,1.06-1.68s1.24-2,1.73-2.76a4.86,4.86,0,0,0,.73-1.5,1,1,0,0,0-.24-.59.71.71,0,0,0-.56-.31L509.71,89l-1.64.21a1.38,1.38,0,0,0-.7.12,17.89,17.89,0,0,0-1.27,1.37,68.19,68.19,0,0,0-4,5.63l-3.14.14c-.32,0-.79,0-1.41.07l-1.67.07-1.56.09a6.06,6.06,0,0,0-2.38,1,3.92,3.92,0,0,0-1.84,1.7,2.82,2.82,0,0,1-.61.87,1.72,1.72,0,0,0-.5,1.14c0,.4.31.73.94,1a4.9,4.9,0,0,0,2,.4h.32c.44,0,2-.15,4.7-.45l1.33-.17q-3.76,5.91-7.53,12.64a74.92,74.92,0,0,0-3.82,7.8c-.23.55-.42,1.08-.6,1.59-.61.56-1.37,1.29-2.28,2.18a20.6,20.6,0,0,1-3.05,2.43,5.46,5.46,0,0,1-2.81,1.12c-1.39,0-2.09-.51-2.09-1.53a5.57,5.57,0,0,1,.49-2c.18-.44.36-.84.54-1.21s.41-.81.7-1.32l.73-1.29c.2-.35.46-.78.78-1.3l.7-1.1c.14-.21.36-.53.65-1l.54-.83,1.32-1.93c.82-1.18,1.47-2.16,2-2.93a26.47,26.47,0,0,0,1.48-2.64,6,6,0,0,0,.74-2.54,2.57,2.57,0,0,0-1-1.93,3.7,3.7,0,0,0-2.58-.87,9.39,9.39,0,0,0-3.65.87q-4.14,1.77-10.18,8.44l1.46-2.18q3-4.53,3-6.15,0-1-.84-1c-2.49,0-4.25.66-5.3,2a28.23,28.23,0,0,0-2.16,3.34q-.63,1.11-3.84,6.46c-2,3.36-3.53,5.92-4.56,7.71-.4.41-.84.86-1.33,1.39a15.8,15.8,0,0,1-3,2.42,6.22,6.22,0,0,1-3.33,1.09c-1.07,0-1.61-.39-1.61-1.18a5.4,5.4,0,0,1,.7-2.33c.23-.44.44-.81.61-1.13s.42-.7.73-1.18a10.22,10.22,0,0,0,.58-.92q8.3-14.23,8.3-15a2.81,2.81,0,0,0-.87-1.77,2.62,2.62,0,0,0-2-1,6.35,6.35,0,0,0-3.18,1.52,24.29,24.29,0,0,0-3.52,3c-1,1-1.45,1.67-1.45,1.91s.24.62.72,1.13.71.85.71,1a23.47,23.47,0,0,1-1.92,3.35q-1.9,3.09-3.83,6.74t-1.92,5.56a5.21,5.21,0,0,0,2,3.75,6.71,6.71,0,0,0,4.74,1.84,13.36,13.36,0,0,0,6.32-2l.57.22a6,6,0,0,0,2,.47c.49,0,1.11-.5,1.88-1.5q4.11-5.44,7.08-8.72t7.52-7.67c3-3,4.93-4.45,5.7-4.52l.07.07a13.93,13.93,0,0,1-1.92,3.35c-1.21,1.8-2.23,3.37-3.05,4.73a35.16,35.16,0,0,0-2.43,4.88,13.44,13.44,0,0,0-1.18,5.09,4.83,4.83,0,0,0,1.81,3.8,5.84,5.84,0,0,0,3.66,1.6,9.93,9.93,0,0,0,3.39-.49,21.81,21.81,0,0,0,5.85-3.85,5.3,5.3,0,0,0,1.1,2.34,6.88,6.88,0,0,0,4.1,2,4.32,4.32,0,0,0,1,.11,8.9,8.9,0,0,0,4.81-1.53,54.87,54.87,0,0,0,5.93-4.55,4,4,0,0,0,1.57-3.06c0-2.08-.3-3.13-.91-3.13a33.16,33.16,0,0,0-4.18,3.48,26.18,26.18,0,0,1-3.21,2.38,6.08,6.08,0,0,1-3.17,1.09c-1,0-1.43-.45-1.43-1.35a12.35,12.35,0,0,1,.14-1.71q.3-2.28,5.38-11.41t7.9-13.42q.84,0,8.93-.84a4.9,4.9,0,0,0,1.36-.37,5.45,5.45,0,0,0,2.41.58,6.7,6.7,0,0,0,3.41-.83A2.65,2.65,0,0,0,522.05,98c0-.44-.17-.67-.52-.67a3.29,3.29,0,0,0-.73.4,2.05,2.05,0,0,1-1,.4,1.48,1.48,0,0,1-.71-.19c-.25-.12-.37-.23-.37-.33,0-1.34.86-2.72,2.56-4.13a22.7,22.7,0,0,1,13.13-4.76q7.79,0,7.78,4.55,0,4.2-6.73,8.75-3,2.06-9.19,5.67a53.38,53.38,0,0,0-8.46,5.76,7.86,7.86,0,0,0-2.86,5.91,2.15,2.15,0,0,0,1.71,2.26,10.59,10.59,0,0,0,1.28.33,8.48,8.48,0,0,0,1.39.08,2.07,2.07,0,0,0,1.38-.41,1,1,0,0,0,.38-1,3.29,3.29,0,0,1,.8-3,36.9,36.9,0,0,1,8.65-5.87c1.61-.83,3.28-1.71,5-2.62a50.57,50.57,0,0,0,4.83-2.9,28.25,28.25,0,0,0,4-3.34,13.26,13.26,0,0,0,2.86-4.2,13.48,13.48,0,0,0,1.05-5.45A8.4,8.4,0,0,0,546.33,87.72Z" transform="translate(-19.09 -12.48)"/><g id="Layer_3" data-name="Layer 3"><path class="cls-1" d="M134.77,73.51a1.6,1.6,0,0,0,1.21.16,1.55,1.55,0,0,0,1-.73c1.06-2.32,2.18-4.62,3.3-6.92.8-1.65,1.68-3.26,2.54-4.88.33-.62.66-1.24,1-1.85.43-.77.83-1.57,1.31-2.32l1.81-2.81c.16-.25.34-.48.51-.72l1.19-1.71c.13-.17.25-.36.38-.53l1.92-2.48,0,.06L153,46.4c.61-.69,1.28-1.33,1.94-2A50.83,50.83,0,0,1,159,40.87c.65-.49,1.3-1,2-1.46a16.28,16.28,0,0,1,2.69-1.54,1.8,1.8,0,0,0,.87-1.13,1.85,1.85,0,0,0-.19-1.45,1.93,1.93,0,0,0-1.13-.87,2,2,0,0,0-.48-.06,2.09,2.09,0,0,0-1,.25c-.45.24-.9.49-1.33.77s-.85.57-1.27.88c-.85.62-1.67,1.31-2.5,2-.6.49-1.21,1-1.79,1.52s-1.36,1.19-2,1.84l-1.3,1.33c-.23.24-.47.47-.69.73l-2.22,2.58c-.64.74-1.2,1.56-1.79,2.34s-1,1.32-1.43,2-1,1.39-1.43,2.1l-1.81,2.88c-.14.22-.26.47-.39.7l-.92,1.7c-.34.6-.66,1.21-1,1.82-.83,1.59-1.68,3.16-2.46,4.77-1.09,2.26-2.19,4.52-3.24,6.81a1.7,1.7,0,0,0-.16,1.21A1.58,1.58,0,0,0,134.77,73.51Z" transform="translate(-19.09 -12.48)"/><path class="cls-1" d="M235.87,113.56c-.8.53-1.62,1-2.45,1.48-2.22,1.24-4.45,2.45-6.72,3.61a2.24,2.24,0,0,0,.53,4.08,2.37,2.37,0,0,0,1.73-.23c1.89-1,3.78-2,5.64-3,.82-.46,1.64-.92,2.45-1.4s1.59-1,2.37-1.47c.35-.22.68-.49,1-.73s.91-.68,1.35-1c.69-.57,1.36-1.16,2-1.78a43.26,43.26,0,0,0,3.67-4.11,17.6,17.6,0,0,0,1.1-1.51,11.73,11.73,0,0,0,.85-1.79,2.32,2.32,0,0,0,0-1.11,2.13,2.13,0,0,0-1-1.25,2.1,2.1,0,0,0-2.53.33c-.55.7-1.19,1.33-1.76,2s-1.25,1.53-1.89,2.28a39.11,39.11,0,0,1-4.06,4l-.95.71C236.81,113,236.33,113.26,235.87,113.56Z" transform="translate(-19.09 -12.48)"/><path class="cls-1" d="M152.86,79.23a2,2,0,0,0-1.13-.87,2.08,2.08,0,0,0-.5-.07,1.92,1.92,0,0,0-1,.26,1.89,1.89,0,0,0-.67,2.58q3.68,5.63,7.33,11.25,1.88,2.91,3.77,5.8c.94,1.45,1.91,2.87,2.88,4.3.38.55.74,1.12,1.14,1.67l.71,1-.65.64a2.11,2.11,0,1,0,3,3l.2-.19,2.07,2.7c1.17,1.52,2.4,3,3.63,4.46.54.64,1.09,1.26,1.65,1.87.31.35.62.68.95,1a9.89,9.89,0,0,0,1.61,1.27,2,2,0,0,0,2.37-.3,2,2,0,0,0,.57-1.38,2,2,0,0,0-.57-1.38c-.48-.54-1-1.09-1.44-1.62-.34-.36-.69-.72-1-1.09-.87-.94-1.73-1.9-2.59-2.86-.36-.4-.7-.83-1.06-1.25s-.67-.78-1-1.19l-2.31-2.89c.36-.32.72-.64,1.09-1l3.39-3c2.06-1.59,4.11-3.19,6.21-4.71q1.77-1.27,3.55-2.5l.89-.61c.53,1,1.05,2.07,1.61,3.09l1.55,2.85c.49.9,1,1.76,1.58,2.63.86,1.44,1.86,2.82,2.82,4.2l1.26,1.79c.25.36.49.72.75,1.07l.42.58a6.67,6.67,0,0,0,.9,1l.55.43c.29.13.59.25.89.36a2.65,2.65,0,0,0,2.57-.68,2.68,2.68,0,0,0,.41-3.2,18.07,18.07,0,0,0-1.83-2.53l-1.76-2.33c-.59-.79-1.15-1.59-1.72-2.39s-1-1.5-1.48-2.27c-1.8-2.85-3.35-5.82-4.9-8.81,0-.1,0-.21-.06-.31a2,2,0,0,0-.63-1l-.06-.13c-.53-1-1-2-1.51-3.07-.69-1.42-1.36-2.86-2-4.32-1.13-2.73-2-5.53-2.89-8.35-.44-1.47-.85-2.93-1.26-4.4s-.78-3.18-1.16-4.77a2.54,2.54,0,0,0-2.48-1.86,2.35,2.35,0,0,0-.64.09A2.56,2.56,0,0,0,175.13,65c.31,1.28.59,2.55.91,3.82s.75,2.74,1.14,4.1c.76,2.62,1.58,5.22,2.52,7.77a98.49,98.49,0,0,0,4.23,9.52l-.58.41c-.79.56-1.57,1.14-2.35,1.72-1.42,1-2.81,2.09-4.19,3.17l-3.06,2.4c-.5.39-1,.76-1.51,1.18l-4,3.47c-.14-.19-.29-.38-.42-.58-.67-1-1.34-1.93-2-2.9-.43-.62-.87-1.23-1.29-1.86l-6-9.18Q155.73,83.61,152.86,79.23Z" transform="translate(-19.09 -12.48)"/><path class="cls-1" d="M201.46,81.69A2.68,2.68,0,0,0,201.1,83a13.85,13.85,0,0,0,.55,5,41.89,41.89,0,0,0,1.67,4.88c.77,1.94,1.63,3.83,2.49,5.74.45,1,1,2,1.47,2.92.28.52.57,1,.88,1.53a5.08,5.08,0,0,0,.38.53,7.31,7.31,0,0,0,1,1.17,4,4,0,0,0,1.52.87,2.8,2.8,0,0,0,2.28-.31l.5-.39a2.45,2.45,0,0,0,.64-1.1,2.5,2.5,0,0,0-.61-2.39c-.52-.74-1-1.52-1.46-2.3s-.9-1.55-1.33-2.35a59.66,59.66,0,0,1-2.65-5.53c-.43-1-.81-2.09-1.16-3.16a24.58,24.58,0,0,1-.86-3.16,11.54,11.54,0,0,1,0-1.95,2.55,2.55,0,0,0-.78-1.89,2.68,2.68,0,0,0-3.8,0Z" transform="translate(-19.09 -12.48)"/><path class="cls-1" d="M198.27,74a9,9,0,0,0,2.79-1.17,5.86,5.86,0,0,0,1.53-1.49,3.23,3.23,0,0,0,.42-.91,3,3,0,0,0,0-1.69.69.69,0,0,0,0-.13,2.52,2.52,0,0,0-.66-1.14,3.39,3.39,0,0,0-.69-.56,3.16,3.16,0,0,0-1.49-.42H200a2.88,2.88,0,0,0-1.56.4,4.39,4.39,0,0,0-.75.6,3.44,3.44,0,0,0-.78,1.41h0l-.06,0A2.63,2.63,0,0,0,198.27,74Z" transform="translate(-19.09 -12.48)"/><path class="cls-1" d="M217,43.55c.5,2.66,1.2,5.27,1.93,7.86.57,2,1.21,4,1.82,6,.28.91.64,1.81,1,2.71s.55,1.48.85,2.22Q223.72,65.15,225,68c.3.65.61,1.3.92,1.94a8.89,8.89,0,0,0,1.63,2.3,2.51,2.51,0,0,0,3,.38,2.48,2.48,0,0,0,1.13-1.48,2.36,2.36,0,0,0-.25-1.9,46.89,46.89,0,0,1-2.85-4.64c-.42-.79-.86-1.57-1.25-2.38l-1.22-2.58-1.28-3.23c-.13-.31-.22-.65-.33-1-.28-.85-.57-1.71-.85-2.57-.62-1.85-1.18-3.71-1.7-5.59a83.7,83.7,0,0,1-2.07-10.41l-.18-1.45c0-.17,0-.35-.07-.52a2,2,0,0,0-3.29-.87,1.84,1.84,0,0,0-.57,1.39C216.12,38.11,216.49,40.84,217,43.55Z" transform="translate(-19.09 -12.48)"/><path class="cls-1" d="M231.28,83.92a6.72,6.72,0,0,0,.56,2.58,1.28,1.28,0,0,0,.15.25,2.66,2.66,0,0,0,1,1,2.92,2.92,0,0,0,1.63.47,3.41,3.41,0,0,0,1.65-.46,3.12,3.12,0,0,0,1.16-1.15,3.59,3.59,0,0,0,.39-1,3.78,3.78,0,0,0,0-1.8,2.8,2.8,0,0,0-1.08-1.56h0a2.87,2.87,0,0,0-.81-2,2.76,2.76,0,0,0-4.71,2C231.2,82.78,231.23,83.35,231.28,83.92Z" transform="translate(-19.09 -12.48)"/><path class="cls-1" d="M124.56,87.54c0,.86.06,1.74.14,2.6.1,1.17.21,2.34.32,3.51.09,1,.26,2,.4,3,.11.81.22,1.62.38,2.42s.32,1.79.52,2.67.4,1.91.65,2.85.53,2,.8,3,.59,1.91.89,2.87.64,1.74,1,2.6.77,1.86,1.17,2.77.66,1.52,1,2.26c.29.56.59,1.12.88,1.69.14.28.28.57.44.84l.87,1.41c.22.36.42.73.66,1.08l1.76,2.55c.25.35.53.69.8,1l1.23,1.59c.55.71,1.17,1.36,1.77,2a75.52,75.52,0,0,0,6.54,6.1q1.71,1.5,3.44,3c.7.59,1.42,1.17,2.14,1.74a2.31,2.31,0,0,0-.39,1.34c.06,1.33.13,2.66.21,4,0,.87.14,1.72.24,2.59.13,1.12.28,2.22.46,3.33s.38,1.91.59,2.87.47,1.72.71,2.58.47,1.6.71,2.41c.53,1.75,1.06,3.5,1.54,5.27s1,3.8,1.66,5.62c.17.47.35.93.53,1.4-.11.38-.21.76-.31,1.14s-.16.63-.23.94-.13.53-.19.8a7.59,7.59,0,0,0-.15,1.08c0,.15-.06.3-.08.45a2.36,2.36,0,0,0,0,.59c0,.27.07.54.11.82a3,3,0,0,0,.79,1.35,3.1,3.1,0,0,0,3,.79,3.4,3.4,0,0,0,1.62-.88,3.79,3.79,0,0,0,.81-1.31,2.62,2.62,0,0,0,.48-.22,2.75,2.75,0,0,0,1.27-1.64,2.9,2.9,0,0,0-.28-2.12l-.23-.46c.07-.27.14-.54.22-.8.52-1.76,1-3.51,1.66-5.24s1.22-3.47,1.87-5.19q1.09-2.88,2.21-5.73c.44-1.13.9-2.24,1.36-3.36l1.07-2.42c.34-.76.72-1.51,1.09-2.26s.75-1.5,1.16-2.24a35.8,35.8,0,0,1,2.1-3.46A13,13,0,0,1,179,142c.2-.12.4-.24.6-.34a9,9,0,0,1,1.14-.27c1.45-.13,2.91-.2,4.37-.29,1.75-.11,3.5-.34,5.24-.58s3.2-.44,4.8-.71c1.45-.25,2.9-.5,4.35-.73,1.63-.19,3.26-.36,4.89-.47,1.81-.12,3.63-.17,5.43-.34,1.22-.12,2.44-.26,3.65-.43.88-.12,1.77-.24,2.63-.44,1.77-.39,3.52-.83,5.25-1.34s3.57-1,5.32-1.69a41.42,41.42,0,0,0,5.63-2.47,67.71,67.71,0,0,0,9.91-6.51c.81-.66,1.6-1.33,2.39-2s1.29-1.21,1.93-1.83c.3-.28.57-.6.85-.9s.61-.61.88-.94c.77-.91,1.53-1.81,2.25-2.76.62-.8,1.21-1.6,1.79-2.43s1.11-1.64,1.64-2.48a50,50,0,0,0,2.56-4.72c.35-.7.62-1.44.92-2.16.22-.55.42-1.11.61-1.67s.41-1.34.59-2c.27-.94.51-1.88.73-2.83.44-1.86.75-3.73,1.05-5.61.18-1.14.28-2.29.41-3.44,0-.39,0-.79.07-1.19s.08-.9.08-1.35c0-.9.05-1.8,0-2.69s-.06-1.87-.12-2.81c-.27-4-.76-7.91-1.36-11.84-.28-1.81-.54-3.62-.86-5.41-.36-2-.74-4-1.14-6-.37-1.81-.78-3.6-1.24-5.39s-1.05-3.61-1.65-5.39a58.66,58.66,0,0,0-2.39-5.87c-.4-.87-.85-1.71-1.29-2.55s-.87-1.48-1.31-2.22c-.24-.41-.53-.8-.79-1.2s-.43-.65-.66-1c-.74-1-1.48-2-2.26-2.93-.63-.77-1.27-1.52-1.93-2.27s-1.27-1.34-1.93-2-1.29-1.17-1.94-1.75-1.28-1.08-1.93-1.6c-1.64-1.3-3.27-2.6-4.95-3.85A42.59,42.59,0,0,0,226.53,16,30.9,30.9,0,0,0,220,13.71c-1.3-.29-2.59-.6-3.91-.81a34.55,34.55,0,0,0-4.19-.41h-1.63l-2.76,0c-1.77.05-3.55.09-5.33.19q-3.1.18-6.21.41c-.9.06-1.81.19-2.71.28-1.05.12-2.1.26-3.14.43-.85.13-1.69.24-2.53.4l-3.18.61c-1,.19-1.95.44-2.92.67s-1.65.42-2.47.64-1.52.41-2.28.66l-1.81.58c-.3.1-.62.18-.92.3L171,19c-1,.43-2,.95-3,1.45-.7.35-1.39.72-2.09,1.11s-1.61.84-2.37,1.34l-2.78,1.8c-.8.52-1.56,1.12-2.33,1.68a112.26,112.26,0,0,0-9.11,7.61c-.63.57-1.24,1.18-1.86,1.77s-1.14,1.09-1.69,1.65-1.31,1.31-1.93,2l-2.19,2.44c-.65.72-1.25,1.49-1.86,2.24s-1.24,1.55-1.84,2.34c-1.13,1.48-2.26,3-3.28,4.53-.56.88-1.13,1.75-1.7,2.62s-1,1.74-1.55,2.61-.8,1.48-1.19,2.23c-.82,1.57-1.56,3.15-2.23,4.79a40.54,40.54,0,0,0-1.44,4.54c-.24.86-.45,1.72-.64,2.6a55,55,0,0,0-1,5.86l-.21,1.9c0,.35-.1.7-.11,1l-.15,3.22c0,.93,0,1.87,0,2.81S124.52,86.73,124.56,87.54Zm5.2-3.73c0-.83,0-1.65.07-2.48s.08-1.75.18-2.62.21-1.75.32-2.63.29-1.73.44-2.6.37-1.67.57-2.5.4-1.54.62-2.31a40.72,40.72,0,0,1,1.35-4c.8-1.81,1.74-3.53,2.66-5.27.36-.68.81-1.34,1.2-2,.31-.5.61-1,.94-1.5q1.38-2.1,2.84-4.15c.71-1,1.48-2,2.24-3l2-2.37c.54-.63,1.1-1.24,1.66-1.85,1.18-1.29,2.37-2.57,3.65-3.77,1.45-1.37,2.91-2.73,4.4-4.05,1.3-1.14,2.6-2.3,4-3.37l1.81-1.41,3-2.1c.42-.29.87-.55,1.3-.82l1.7-1.07c.49-.31,1-.56,1.53-.84l1.81-1c.47-.26,1-.47,1.45-.71l1.55-.75,2.31-.92c.72-.29,1.47-.5,2.21-.73s1.47-.48,2.21-.67l3-.77c.93-.23,1.88-.4,2.81-.6.76-.16,1.53-.29,2.29-.43,1.52-.26,3-.49,4.57-.7s3.21-.31,4.82-.41c1.81-.1,3.63-.19,5.44-.26,1.63-.07,3.27-.08,4.9-.1a53.22,53.22,0,0,1,6.44.17c1.22.19,2.42.46,3.62.75a33,33,0,0,1,4.69,1.43,31.14,31.14,0,0,1,3.74,2c.61.38,1.19.81,1.79,1.22.86.6,1.7,1.24,2.55,1.87,2,1.53,3.91,3.07,5.77,4.73.46.41.91.81,1.33,1.24s1,.93,1.42,1.44c.9,1,1.78,2.08,2.65,3.14.43.58.87,1.17,1.27,1.78.59.89,1.17,1.79,1.72,2.72A45.73,45.73,0,0,1,247,46.37c.29.72.57,1.45.85,2.17.16.39.27.8.4,1.2l.54,1.62c.57,1.72,1,3.47,1.44,5.22.25,1,.44,2.06.66,3.08s.36,1.78.54,2.67q.51,2.55.91,5.11.54,3.34,1,6.71c.34,2.84.68,5.68.78,8.53.06,1.51.12,3,0,4.55,0,.78,0,1.58-.14,2.36s-.15,1.31-.22,2c-.26,1.6-.52,3.19-.88,4.76a50.44,50.44,0,0,1-2.07,7.05c-.22.47-.44.93-.68,1.4s-.45.94-.7,1.4c-.48.84-.94,1.69-1.46,2.51s-1.21,1.85-1.84,2.76c-.41.58-.84,1.15-1.27,1.71a47,47,0,0,1-3.48,3.85c-.73.69-1.46,1.37-2.21,2-.59.51-1.19,1-1.79,1.49-1.79,1.32-3.62,2.58-5.53,3.72-1.05.63-2.1,1.27-3.19,1.82-.52.27-1,.57-1.57.8l-1,.43q-3.68,1.37-7.46,2.4c-1.34.37-2.69.72-4,1-1,.23-2,.37-3,.51-1.88.19-3.75.31-5.64.42-1.71.09-3.43.2-5.13.41-2.21.28-4.41.6-6.6,1-1.72.3-3.45.56-5.18.79s-3.52.39-5.29.5c-.9,0-1.79.08-2.68.19-.73.08-1.45.18-2.17.3a6.3,6.3,0,0,0-1.41.4c-.45.18-.89.37-1.33.58a8.34,8.34,0,0,0-1.43,1,14.18,14.18,0,0,0-2.61,3,18.18,18.18,0,0,0-1.3,2c-.44.82-.93,1.63-1.34,2.47s-1,1.94-1.43,2.91-.77,1.72-1.15,2.58c-1.58,3.59-3,7.28-4.37,10.95-.41,1.06-.8,2.13-1.18,3.2-.35-1.15-.69-2.29-1.05-3.43-.57-1.83-1.14-3.66-1.67-5.5-.26-.93-.47-1.86-.69-2.81-.18-.76-.28-1.54-.4-2.32s-.25-1.79-.3-2.68c-.08-1.52-.17-3-.23-4.55a2,2,0,0,0,.52-1.32A1.8,1.8,0,0,0,157,140c-1.55-1.21-3.09-2.44-4.59-3.72-1.28-1.09-2.53-2.22-3.77-3.36s-2.31-2.1-3.39-3.23c-.55-.57-1.13-1.12-1.64-1.72l-1.71-2-1.74-2.36c-.28-.38-.52-.8-.77-1.19l-.95-1.46c-.29-.45-.53-.93-.79-1.38s-.52-.84-.73-1.28c-.49-1-1-2-1.46-3-.52-1.28-1.06-2.55-1.51-3.85-.25-.73-.53-1.46-.74-2.2-.27-.95-.53-1.9-.8-2.84s-.38-1.59-.56-2.39-.31-1.42-.46-2.13c-.3-1.55-.57-3.1-.83-4.65s-.38-3.19-.5-4.79c-.07-.88-.17-1.77-.2-2.65l-.12-3.5C129.73,85.47,129.76,84.64,129.76,83.81Z" transform="translate(-19.09 -12.48)"/></g><g id="Layer_2" data-name="Layer 2"><path class="cls-1" d="M169.21,220.41c0,2.82-1.41,4.94-4.23,4.94s-5.63-1.41-5.63-4.23a5.42,5.42,0,0,1,4.93-5.64A5.29,5.29,0,0,1,169.21,220.41Z" transform="translate(-19.09 -12.48)"/><path class="cls-1" d="M132.36,225.35a4.93,4.93,0,1,0,4.93-4.94,4.79,4.79,0,0,0-4.93,4.65A1.4,1.4,0,0,0,132.36,225.35Z" transform="translate(-19.09 -12.48)"/><path class="cls-2" d="M171.1,265.49c-12,16.2-38.74,24.66-64.1,24.66-33.81,0-61.28-26.07-61.28-53.54S79.53,181,113.34,181a63.4,63.4,0,0,1,61.28,48.6" transform="translate(-19.09 -12.48)"/><path class="cls-1" d="M159.12,246.48c1.41,4.22.71,9.15-2.11,10.56s-6.34-.7-7.75-5.63-.7-9.86,2.11-11.27S157.71,242.25,159.12,246.48Z" transform="translate(-19.09 -12.48)"/><path class="cls-1" d="M180.25,248.59c0,4.93-1.41,8.45-4.22,8.45a8,8,0,0,1-6.34-8.45c0-4.93,1.41-8.45,4.22-8.45A8,8,0,0,1,180.25,248.59Z" transform="translate(-19.09 -12.48)"/><path class="cls-2" d="M194.34,251.41c0,9.86-11.27,13.38-26.77,14.08-19.72.71-32.4-1.41-32.4-11.27a27.41,27.41,0,0,1,28.67-26.07h.21c19.72,0,30.29,13.39,30.29,23.25" transform="translate(-19.09 -12.48)"/><path class="cls-2" d="M178.14,214.78a15.16,15.16,0,0,1-12.68-11.27,8,8,0,0,1,9.72-5.87,7.83,7.83,0,0,1,2.25.94,23.47,23.47,0,0,0,14.09,3.52C188.7,208.44,188,214.78,178.14,214.78Z" transform="translate(-19.09 -12.48)"/><path class="cls-2" d="M118.27,221.12c-8.45,0-18.31-11.27-14.09-11.27a22.62,22.62,0,0,0,13.38-5.64,15.52,15.52,0,0,1,15.5,6.34C133.76,214.08,123.9,221.12,118.27,221.12Z" transform="translate(-19.09 -12.48)"/><path class="cls-3" d="M76.71,282.4s-2.11,6.34.71,8.45,8.45-4.23,8.45-4.23" transform="translate(-19.09 -12.48)"/><path class="cls-3" d="M65.44,274.65s.71,12.68,4.23,14.79,7-7.75,7-7.75" transform="translate(-19.09 -12.48)"/><path class="cls-3" d="M121.09,289.44a16,16,0,0,0,9.86,7.75c4.22,1.41,3.52-10.57,3.52-10.57" transform="translate(-19.09 -12.48)"/><path class="cls-3" d="M135.17,286.62s1.41,8.46,7.75,6.34c2.11-.7.71-9.15.71-9.15" transform="translate(-19.09 -12.48)"/><path class="cls-4" d="M23.89,229.57c-4.93,2.82-1.41,14.79,5.63,15.5,9.86.7,14.09-12,5.64-12s-5.64,12,2.11,12c9.86,0,9.15-4.23,9.15-4.23" transform="translate(-19.09 -12.48)"/></g><path class="cls-1" d="M242.91,190.6q-2.52-1.77-7.18-1.77c-.89,0-1.88,0-3,.11a17.32,17.32,0,0,0-2.92.43v21.82H233V203h2.46a20.46,20.46,0,0,0,4.19-.39,8.79,8.79,0,0,0,3.15-1.23,5.59,5.59,0,0,0,2-2.2,7.15,7.15,0,0,0,.69-3.27A6.05,6.05,0,0,0,242.91,190.6Zm-1.23,7.46a3.55,3.55,0,0,1-1.36,1.36,6.61,6.61,0,0,1-2.16.7,17.84,17.84,0,0,1-2.88.21H233v-8.69c.7-.07,1.72-.1,3-.1a13.68,13.68,0,0,1,2.36.19,5.89,5.89,0,0,1,2,.69,3.77,3.77,0,0,1,1.34,1.32,4.09,4.09,0,0,1,.5,2.11A4.52,4.52,0,0,1,241.68,198.06Zm13-3.9a7.59,7.59,0,0,0-2.81.54,7,7,0,0,0-2.43,1.63,8.13,8.13,0,0,0-1.7,2.73,10.74,10.74,0,0,0-.64,3.85,11.54,11.54,0,0,0,.5,3.47,7.36,7.36,0,0,0,1.52,2.73,7,7,0,0,0,2.6,1.81,10,10,0,0,0,3.76.65,13.62,13.62,0,0,0,3.08-.32,9,9,0,0,0,1.91-.6l-.42-2.5a9.39,9.39,0,0,1-1.61.53,11.05,11.05,0,0,1-2.64.27,5.5,5.5,0,0,1-4.09-1.34,6,6,0,0,1-1.51-3.93h11.38a3.28,3.28,0,0,0,0-.56v-.49c0-2.86-.6-5-1.79-6.38A6.43,6.43,0,0,0,254.72,194.16Zm-4.41,7.12a7.28,7.28,0,0,1,.4-1.69,4.85,4.85,0,0,1,.84-1.47,4.55,4.55,0,0,1,1.33-1,4,4,0,0,1,1.81-.4,3.48,3.48,0,0,1,2.86,1.3,5,5,0,0,1,1,3.3Zm16.89,7.93a7.18,7.18,0,0,0,2.48,1.77,8.24,8.24,0,0,0,6.27,0,7.14,7.14,0,0,0,2.47-1.77,8.17,8.17,0,0,0,1.62-2.75,11.46,11.46,0,0,0,0-7.14,8,8,0,0,0-1.62-2.76,7.17,7.17,0,0,0-2.47-1.78,8.24,8.24,0,0,0-6.27,0,7.21,7.21,0,0,0-2.48,1.78,8,8,0,0,0-1.61,2.76,11.28,11.28,0,0,0,0,7.14A8.15,8.15,0,0,0,267.2,209.21Zm2.18-10.78a4.4,4.4,0,0,1,6.87,0,8.51,8.51,0,0,1,0,8.91,4.42,4.42,0,0,1-6.87,0,8.45,8.45,0,0,1,0-8.91Zm18.39,12a8.31,8.31,0,0,0,1.65.74,7.89,7.89,0,0,0,2.54.38,7.43,7.43,0,0,0,3.18-.64,6.49,6.49,0,0,0,2.35-1.79A7.82,7.82,0,0,0,299,206.4a11.78,11.78,0,0,0,.49-3.49,10.3,10.3,0,0,0-.59-3.62,7.34,7.34,0,0,0-4.3-4.46,9.38,9.38,0,0,0-3.45-.61,19.68,19.68,0,0,0-3.66.31c-1.06.2-1.94.39-2.64.56v22h3Zm0-13.25A8.58,8.58,0,0,1,289,197a18.74,18.74,0,0,1,2.1-.09,5,5,0,0,1,3.83,1.56,6.39,6.39,0,0,1,1.44,4.47,10.47,10.47,0,0,1-.25,2.38,5.24,5.24,0,0,1-.84,1.92,4,4,0,0,1-1.48,1.28,4.78,4.78,0,0,1-2.19.46,6,6,0,0,1-2.24-.41,6.36,6.36,0,0,1-1.57-.87Zm20.85,14.31L309,209a9.7,9.7,0,0,1-1.18-.24,1.85,1.85,0,0,1-.77-.43,1.68,1.68,0,0,1-.41-.77,4.64,4.64,0,0,1-.13-1.22v-20l-3,.51v19.93a4.68,4.68,0,0,0,1.15,3.49A5.74,5.74,0,0,0,308.62,211.51Zm14.27-.26a8.7,8.7,0,0,0,1.9-.6l-.41-2.5a9.56,9.56,0,0,1-1.62.53,10.91,10.91,0,0,1-2.63.27,5.54,5.54,0,0,1-4.1-1.34,6.09,6.09,0,0,1-1.5-3.93h11.38a4.86,4.86,0,0,0,0-.56v-.49c0-2.86-.59-5-1.79-6.38a6.41,6.41,0,0,0-5.14-2.09,7.68,7.68,0,0,0-2.82.54,7.17,7.17,0,0,0-2.43,1.63,8.27,8.27,0,0,0-1.69,2.73,10.53,10.53,0,0,0-.64,3.85,11.24,11.24,0,0,0,.5,3.47,7.34,7.34,0,0,0,1.51,2.73,7.06,7.06,0,0,0,2.61,1.81,9.92,9.92,0,0,0,3.76.65A13.68,13.68,0,0,0,322.89,211.25ZM315,199.59a5.1,5.1,0,0,1,.85-1.47,4.42,4.42,0,0,1,1.33-1,4,4,0,0,1,1.8-.4,3.5,3.5,0,0,1,2.87,1.3,5,5,0,0,1,1,3.3h-8.25A7.83,7.83,0,0,1,315,199.59Zm26.17,11.6h2.59c.6-1.53,1.22-3.29,1.88-5.26s1.27-4,1.83-6.15q.82,3.19,1.84,6.15c.67,2,1.3,3.73,1.9,5.26h2.59q1.47-3.3,2.87-7.51c.94-2.81,1.83-5.85,2.66-9.1h-3.07c-.22,1-.47,2.08-.77,3.25s-.62,2.35-1,3.52-.69,2.3-1,3.38-.68,2-1,2.85c-.37-1-.72-2.06-1.07-3.18s-.69-2.25-1-3.39-.62-2.25-.9-3.35-.51-2.13-.7-3.08h-2.46c-.22.95-.47,2-.75,3.08s-.59,2.21-.91,3.35-.66,2.27-1,3.39-.71,2.18-1.07,3.18c-.32-.81-.66-1.76-1-2.85s-.7-2.21-1-3.38-.65-2.34-1-3.52-.55-2.25-.76-3.25h-3.2c.83,3.25,1.71,6.29,2.65,9.1S340.18,209,341.16,211.19Zm24.26-13.8a3.55,3.55,0,0,1,.53-.16,7.44,7.44,0,0,1,.83-.18l1-.14a8.54,8.54,0,0,1,1-.07,5.63,5.63,0,0,1,2,.31,2.7,2.7,0,0,1,1.28,1,4.5,4.5,0,0,1,.69,1.76,15,15,0,0,1,.2,2.62v8.69h3v-9.33a14.19,14.19,0,0,0-.32-3.1,6,6,0,0,0-1.11-2.41,5.23,5.23,0,0,0-2.09-1.57,8.45,8.45,0,0,0-3.29-.56,10.49,10.49,0,0,0-3.65.68v-8.5l-3,.51v24.28h3ZM382,209.21a7.05,7.05,0,0,0,2.47,1.77,8.24,8.24,0,0,0,6.27,0,7.18,7.18,0,0,0,2.48-1.77,8.15,8.15,0,0,0,1.61-2.75,11.28,11.28,0,0,0,0-7.14,8,8,0,0,0-1.61-2.76,7.21,7.21,0,0,0-2.48-1.78,8.24,8.24,0,0,0-6.27,0,7.08,7.08,0,0,0-2.47,1.78,8,8,0,0,0-1.62,2.76,11.46,11.46,0,0,0,0,7.14A8.17,8.17,0,0,0,382,209.21Zm2.17-10.78a4.4,4.4,0,0,1,6.87,0,8.45,8.45,0,0,1,0,8.91,4.42,4.42,0,0,1-6.87,0,8.51,8.51,0,0,1,0-8.91Zm25.49,12.82a11.1,11.1,0,0,0,2.59.29c.66,0,1.33,0,2-.08s1.3-.11,1.87-.18,1.09-.13,1.55-.2l1.07-.18V200.52a9.37,9.37,0,0,0-.32-2.57,4.72,4.72,0,0,0-3.05-3.33,8.84,8.84,0,0,0-3-.46,16.56,16.56,0,0,0-2.91.24,9.38,9.38,0,0,0-1.92.5l.35,2.46a9.05,9.05,0,0,1,1.65-.44,14.9,14.9,0,0,1,2.57-.2,4.51,4.51,0,0,1,1.87.33,3,3,0,0,1,1.14.9,3.13,3.13,0,0,1,.57,1.27,6.53,6.53,0,0,1,.16,1.46v.83l-.44-.1-.75-.14c-.29-.05-.6-.1-.92-.13s-.62,0-.92,0a12.32,12.32,0,0,0-2.69.29,6.92,6.92,0,0,0-2.24.9,4.35,4.35,0,0,0-1.51,1.59,4.67,4.67,0,0,0-.56,2.37,5.77,5.77,0,0,0,.48,2.46,4.09,4.09,0,0,0,1.34,1.64A5.68,5.68,0,0,0,409.63,211.25Zm-.44-6.44a2.94,2.94,0,0,1,1-.83,4.55,4.55,0,0,1,1.37-.4,12,12,0,0,1,1.42-.09,12.37,12.37,0,0,1,1.75.11,4.32,4.32,0,0,1,1,.27v4.95a7.38,7.38,0,0,1-1.35.18c-.55,0-1.17.05-1.87.05a5.42,5.42,0,0,1-2.79-.62,2.4,2.4,0,0,1-1-2.23A2.19,2.19,0,0,1,409.19,204.81Zm17.42-7.58c.17,0,.53-.13,1.07-.24a7.58,7.58,0,0,1,1.65-.18,10,10,0,0,1,2.09.18,10.34,10.34,0,0,1,1.17.3l.51-2.59a5.89,5.89,0,0,0-.59-.14l-.88-.16c-.32-.05-.65-.1-1-.13s-.62-.05-.88-.05a17,17,0,0,0-3.51.34,18.61,18.61,0,0,0-2.62.72v15.91h3Zm10.45,11.88a7,7,0,0,0,2.61,1.81,9.87,9.87,0,0,0,3.75.65,13.78,13.78,0,0,0,3.09-.32,8.89,8.89,0,0,0,1.9-.6l-.41-2.5a9.88,9.88,0,0,1-1.62.53,10.94,10.94,0,0,1-2.64.27,5.52,5.52,0,0,1-4.09-1.34,6.09,6.09,0,0,1-1.5-3.93h11.38a4.86,4.86,0,0,0,0-.56v-.49c0-2.86-.6-5-1.79-6.38a6.41,6.41,0,0,0-5.15-2.09,7.66,7.66,0,0,0-2.81.54,7.08,7.08,0,0,0-2.43,1.63,8.11,8.11,0,0,0-1.69,2.73,10.53,10.53,0,0,0-.64,3.85,11.55,11.55,0,0,0,.49,3.47A7.36,7.36,0,0,0,437.06,209.11Zm1.55-9.52a4.88,4.88,0,0,1,.85-1.47,4.3,4.3,0,0,1,1.33-1,4,4,0,0,1,1.8-.4,3.47,3.47,0,0,1,2.86,1.3,4.93,4.93,0,0,1,1,3.3h-8.25A7.83,7.83,0,0,1,438.61,199.59Zm22.62,11.6h3V194.58h-3Zm1.47-19.62a1.85,1.85,0,0,0,1.92-1.95,1.87,1.87,0,0,0-.56-1.42,2,2,0,0,0-2.72,0,1.87,1.87,0,0,0-.56,1.42,1.85,1.85,0,0,0,1.92,1.95Zm9.59,5.59.53-.09a8,8,0,0,1,.83-.11c.31,0,.63-.06,1-.08s.67,0,1,0a5.73,5.73,0,0,1,2,.31,2.7,2.7,0,0,1,1.28,1,4.66,4.66,0,0,1,.68,1.76,14,14,0,0,1,.21,2.62v8.69h3v-9.33a13.61,13.61,0,0,0-.32-3.1,6,6,0,0,0-1.1-2.41,5.23,5.23,0,0,0-2.09-1.57,8.51,8.51,0,0,0-3.3-.56,23.69,23.69,0,0,0-3.9.29c-1.13.19-2,.37-2.71.54v16.14h3Zm16.4,12.65a4.1,4.1,0,0,0,1.77,1.3,7.74,7.74,0,0,0,2.8.43,8.72,8.72,0,0,0,2.56-.34,11.8,11.8,0,0,0,1.56-.55l-.57-2.46-1.14.43a6.34,6.34,0,0,1-2.15.3,4.23,4.23,0,0,1-1.35-.19,2.13,2.13,0,0,1-1-.66,3.19,3.19,0,0,1-.57-1.27,9.17,9.17,0,0,1-.19-2.07v-7.66h6.29v-2.49h-6.29v-5.15l-3,.51v14.83a13.4,13.4,0,0,0,.28,2.92A5.09,5.09,0,0,0,488.69,209.81Zm12.59-.7a7.06,7.06,0,0,0,2.61,1.81,9.92,9.92,0,0,0,3.76.65,13.68,13.68,0,0,0,3.08-.32,8.7,8.7,0,0,0,1.9-.6l-.41-2.5a9.56,9.56,0,0,1-1.62.53A10.91,10.91,0,0,1,508,209a5.54,5.54,0,0,1-4.1-1.34,6.09,6.09,0,0,1-1.5-3.93h11.38a4.86,4.86,0,0,0,0-.56v-.49c0-2.86-.59-5-1.79-6.38a6.41,6.41,0,0,0-5.14-2.09,7.68,7.68,0,0,0-2.82.54,7.17,7.17,0,0,0-2.43,1.63,8.27,8.27,0,0,0-1.69,2.73,10.53,10.53,0,0,0-.64,3.85,11.54,11.54,0,0,0,.5,3.47A7.34,7.34,0,0,0,501.28,209.11Zm1.55-9.52a5.1,5.1,0,0,1,.85-1.47,4.42,4.42,0,0,1,1.33-1,4,4,0,0,1,1.8-.4,3.5,3.5,0,0,1,2.87,1.3,5,5,0,0,1,1,3.3h-8.24A7.26,7.26,0,0,1,502.83,199.59ZM521,197.23c.17,0,.53-.13,1.07-.24a7.58,7.58,0,0,1,1.65-.18,10,10,0,0,1,2.09.18,10.34,10.34,0,0,1,1.17.3l.51-2.59a5.89,5.89,0,0,0-.59-.14l-.88-.16c-.32-.05-.65-.1-1-.13s-.62-.05-.87-.05a17,17,0,0,0-3.52.34,18.61,18.61,0,0,0-2.62.72v15.91h3Zm10.45,11.88a7.06,7.06,0,0,0,2.61,1.81,9.9,9.9,0,0,0,3.75.65,13.71,13.71,0,0,0,3.09-.32,8.7,8.7,0,0,0,1.9-.6l-.41-2.5a9.56,9.56,0,0,1-1.62.53,10.94,10.94,0,0,1-2.64.27,5.53,5.53,0,0,1-4.09-1.34,6.09,6.09,0,0,1-1.5-3.93H544a4.86,4.86,0,0,0,0-.56v-.49c0-2.86-.59-5-1.79-6.38a6.41,6.41,0,0,0-5.14-2.09,7.68,7.68,0,0,0-2.82.54,7.17,7.17,0,0,0-2.43,1.63,8.11,8.11,0,0,0-1.69,2.73,10.53,10.53,0,0,0-.64,3.85,11.55,11.55,0,0,0,.49,3.47A7.36,7.36,0,0,0,531.49,209.11Zm1.55-9.52a5.1,5.1,0,0,1,.85-1.47,4.42,4.42,0,0,1,1.33-1,4,4,0,0,1,1.8-.4,3.47,3.47,0,0,1,2.86,1.3,4.93,4.93,0,0,1,1,3.3h-8.25A7.83,7.83,0,0,1,533,199.59Zm21.81,9a5.88,5.88,0,0,1-2.71.48,9.29,9.29,0,0,1-3-.39c-.74-.25-1.29-.44-1.63-.57l-.54,2.56c.3.12.86.31,1.69.55a12.51,12.51,0,0,0,3.45.37,8.52,8.52,0,0,0,4.88-1.18,4,4,0,0,0,1.71-3.48,5.12,5.12,0,0,0-.35-2,3.89,3.89,0,0,0-1-1.39,6.81,6.81,0,0,0-1.58-1c-.62-.28-1.32-.58-2.11-.87-.6-.22-1.11-.42-1.54-.61a5.59,5.59,0,0,1-1.07-.62,2.47,2.47,0,0,1-.64-.75,2.26,2.26,0,0,1-.2-1,1.63,1.63,0,0,1,.92-1.55,4.58,4.58,0,0,1,2.18-.5,9.73,9.73,0,0,1,2.46.27,7.46,7.46,0,0,1,1.5.53l.54-2.55c-.17-.07-.41-.14-.71-.23s-.67-.16-1.08-.24-.84-.14-1.31-.19a13.14,13.14,0,0,0-1.4-.08,7,7,0,0,0-4.45,1.29,4.26,4.26,0,0,0-1.63,3.5,4.13,4.13,0,0,0,.39,1.89,4,4,0,0,0,1,1.31,6.65,6.65,0,0,0,1.52.94c.58.27,1.2.53,1.84.78a13.19,13.19,0,0,1,2.84,1.44,2,2,0,0,1,.86,1.73A1.62,1.62,0,0,1,554.85,208.57Zm8.71,1.24a4,4,0,0,0,1.77,1.3,7.74,7.74,0,0,0,2.8.43,8.72,8.72,0,0,0,2.56-.34,12.37,12.37,0,0,0,1.56-.55l-.57-2.46-1.14.43a6.37,6.37,0,0,1-2.16.3,4.21,4.21,0,0,1-1.34-.19,2.13,2.13,0,0,1-1-.66,3.05,3.05,0,0,1-.57-1.27,9.17,9.17,0,0,1-.19-2.07v-7.66h6.29v-2.49h-6.29v-5.15l-3,.51v14.83a14.09,14.09,0,0,0,.27,2.92A5.1,5.1,0,0,0,563.56,209.81Zm12.59-.7a7,7,0,0,0,2.61,1.81,9.87,9.87,0,0,0,3.75.65,13.78,13.78,0,0,0,3.09-.32,8.89,8.89,0,0,0,1.9-.6l-.41-2.5a9.88,9.88,0,0,1-1.62.53,10.94,10.94,0,0,1-2.64.27,5.53,5.53,0,0,1-4.09-1.34,6.09,6.09,0,0,1-1.5-3.93h11.38a4.86,4.86,0,0,0,0-.56v-.49c0-2.86-.6-5-1.79-6.38a6.41,6.41,0,0,0-5.15-2.09,7.66,7.66,0,0,0-2.81.54,7.08,7.08,0,0,0-2.43,1.63,8.11,8.11,0,0,0-1.69,2.73,10.53,10.53,0,0,0-.64,3.85,11.55,11.55,0,0,0,.49,3.47A7.36,7.36,0,0,0,576.15,209.11Zm1.55-9.52a4.88,4.88,0,0,1,.85-1.47,4.3,4.3,0,0,1,1.33-1,4,4,0,0,1,1.8-.4,3.47,3.47,0,0,1,2.86,1.3,4.93,4.93,0,0,1,1,3.3H577.3A7.83,7.83,0,0,1,577.7,199.59Zm16.58,9.65A7.25,7.25,0,0,0,596.9,211a9.18,9.18,0,0,0,3.45.61,20.2,20.2,0,0,0,3.68-.29c1.06-.19,1.94-.38,2.62-.57V186.4l-3,.51v8.4a8.11,8.11,0,0,0-1.65-.73,8.33,8.33,0,0,0-5.72.25,6.6,6.6,0,0,0-2.35,1.79,7.87,7.87,0,0,0-1.46,2.75,11.77,11.77,0,0,0-.49,3.51,10.39,10.39,0,0,0,.59,3.63A7.57,7.57,0,0,0,594.28,209.24Zm1.08-8.75a5.52,5.52,0,0,1,.84-1.94,4,4,0,0,1,1.48-1.27,4.78,4.78,0,0,1,2.19-.47,5.84,5.84,0,0,1,2.24.42,6.06,6.06,0,0,1,1.57.86V208.6a8.27,8.27,0,0,1-1.27.24,14.46,14.46,0,0,1-2,.11,4.91,4.91,0,0,1-3.83-1.58,6.43,6.43,0,0,1-1.44-4.49A10.69,10.69,0,0,1,595.36,200.49Zm25.26-8.92a1.93,1.93,0,0,0,1.36-.52,1.9,1.9,0,0,0,.56-1.43,1.87,1.87,0,0,0-.56-1.42,2,2,0,0,0-2.72,0,1.87,1.87,0,0,0-.56,1.42,1.85,1.85,0,0,0,1.92,1.95Zm-1.47,19.62h3V194.58h-3Zm11.06-14,.53-.09a8,8,0,0,1,.83-.11c.31,0,.63-.06,1-.08s.67,0,1,0a5.73,5.73,0,0,1,2,.31,2.67,2.67,0,0,1,1.27,1,4.5,4.5,0,0,1,.69,1.76,14,14,0,0,1,.21,2.62v8.69h3v-9.33a13.61,13.61,0,0,0-.32-3.1,6,6,0,0,0-1.1-2.41,5.23,5.23,0,0,0-2.09-1.57,8.54,8.54,0,0,0-3.3-.56,23.69,23.69,0,0,0-3.9.29c-1.13.19-2,.37-2.71.54v16.14h3ZM278.79,225.52h-3.07c-.54,2.33-1.1,4.58-1.7,6.78s-1.3,4.41-2.11,6.64c-.51-1.08-1-2.21-1.47-3.38s-.9-2.35-1.31-3.52-.77-2.31-1.1-3.42-.61-2.14-.85-3.1H264a71.14,71.14,0,0,0,2.9,8.71q1.74,4.31,3.75,8.13a6.71,6.71,0,0,1-1.79,2.54,4.33,4.33,0,0,1-2.75.78,4.2,4.2,0,0,1-1.1-.14,6.91,6.91,0,0,1-.91-.3l-.54,2.39a2.09,2.09,0,0,0,.43.16c.2.07.42.12.67.18l.75.13a6.34,6.34,0,0,0,.74,0,7.81,7.81,0,0,0,2.35-.32,5.52,5.52,0,0,0,1.87-1,7.06,7.06,0,0,0,1.51-1.71,17,17,0,0,0,1.33-2.47q1.63-3.77,3-8.1C277.17,231.66,278,228.66,278.79,225.52Zm4.39,14.64a7.22,7.22,0,0,0,2.48,1.77,8.21,8.21,0,0,0,6.26,0,7.22,7.22,0,0,0,2.48-1.77,8.44,8.44,0,0,0,1.62-2.75,11.46,11.46,0,0,0,0-7.14,8.19,8.19,0,0,0-1.62-2.76,7.11,7.11,0,0,0-2.48-1.78,8.21,8.21,0,0,0-6.26,0,7.11,7.11,0,0,0-2.48,1.78,8,8,0,0,0-1.61,2.76,11.28,11.28,0,0,0,0,7.14A8.25,8.25,0,0,0,283.18,240.16Zm2.17-10.79a4.43,4.43,0,0,1,6.88,0,8.52,8.52,0,0,1,0,8.92,4.43,4.43,0,0,1-6.88,0,8.52,8.52,0,0,1,0-8.92ZM311,239.55a2.47,2.47,0,0,1-.53.11l-.81.1-1,.08-1,0a3.75,3.75,0,0,1-3.23-1.31,7.52,7.52,0,0,1-1-4.35v-8.69h-3v9.33a12.38,12.38,0,0,0,.35,3.09,6.42,6.42,0,0,0,1.15,2.41,5.21,5.21,0,0,0,2.11,1.58,8.27,8.27,0,0,0,3.23.56,23.35,23.35,0,0,0,3.88-.29q1.68-.28,2.7-.54V225.52h-3Zm15.87-11.61a9.78,9.78,0,0,1,1.17.3l.51-2.59a5.27,5.27,0,0,0-.59-.14l-.88-.16c-.32,0-.64-.1-1-.13s-.63-.05-.88-.05a17.09,17.09,0,0,0-3.52.34,19,19,0,0,0-2.62.72v15.91h3v-14c.17-.05.53-.13,1.07-.24a7.65,7.65,0,0,1,1.65-.18A10,10,0,0,1,326.91,227.94Zm21.69-2.16a9.38,9.38,0,0,0-3.45-.61,18.86,18.86,0,0,0-3.66.31c-1.06.2-1.93.39-2.64.56v22h3V241.4a8.31,8.31,0,0,0,1.65.74,7.89,7.89,0,0,0,2.54.38,7.43,7.43,0,0,0,3.18-.64,6.49,6.49,0,0,0,2.35-1.79,7.82,7.82,0,0,0,1.46-2.74,11.78,11.78,0,0,0,.49-3.49,10.3,10.3,0,0,0-.59-3.62,7.41,7.41,0,0,0-1.68-2.73A7.31,7.31,0,0,0,348.6,225.78Zm1.54,10.46a5.4,5.4,0,0,1-.83,1.92,4.11,4.11,0,0,1-1.49,1.28,4.78,4.78,0,0,1-2.19.46,6,6,0,0,1-2.24-.41,6.36,6.36,0,0,1-1.57-.87V228.14a8.79,8.79,0,0,1,1.2-.22,18.74,18.74,0,0,1,2.1-.09,5,5,0,0,1,3.83,1.56,6.37,6.37,0,0,1,1.44,4.47A10.47,10.47,0,0,1,350.14,236.24Zm7.54,5.9h3v-14c.17-.05.53-.13,1.07-.24a7.72,7.72,0,0,1,1.65-.18,10.12,10.12,0,0,1,2.1.18,9.5,9.5,0,0,1,1.16.3l.51-2.59a4.76,4.76,0,0,0-.59-.14l-.88-.16c-.32,0-.64-.1-1-.13s-.63-.05-.88-.05a17.16,17.16,0,0,0-3.52.34,19,19,0,0,0-2.62.72Zm22.35-.21a7.18,7.18,0,0,0,2.47-1.77,8.27,8.27,0,0,0,1.62-2.75,11.46,11.46,0,0,0,0-7.14,8,8,0,0,0-1.62-2.76,7.08,7.08,0,0,0-2.47-1.78,8.24,8.24,0,0,0-6.27,0,7.21,7.21,0,0,0-2.48,1.78,8,8,0,0,0-1.61,2.76,11.28,11.28,0,0,0,0,7.14,8.25,8.25,0,0,0,1.61,2.75,7.31,7.31,0,0,0,2.48,1.77,8.24,8.24,0,0,0,6.27,0Zm-6.57-3.64a8.47,8.47,0,0,1,0-8.92,4.42,4.42,0,0,1,6.87,0,8.52,8.52,0,0,1,0,8.92,4.42,4.42,0,0,1-6.87,0Zm16.44-10.72a7.85,7.85,0,0,0-1.45,2.75,11.76,11.76,0,0,0-.5,3.51,10.39,10.39,0,0,0,.6,3.63,7.69,7.69,0,0,0,1.67,2.73,7.42,7.42,0,0,0,2.63,1.72,9.18,9.18,0,0,0,3.45.61,21,21,0,0,0,3.67-.29c1.07-.19,1.94-.38,2.63-.57V217.35l-3,.51v8.4a8.49,8.49,0,0,0-1.64-.74,8,8,0,0,0-2.55-.38,7.49,7.49,0,0,0-3.18.64A6.69,6.69,0,0,0,389.9,227.57Zm3.73.65a4.92,4.92,0,0,1,2.19-.46,5.88,5.88,0,0,1,2.24.42,5.81,5.81,0,0,1,1.56.86v10.51a9.84,9.84,0,0,1-1.26.24,16.16,16.16,0,0,1-2,.11,5,5,0,0,1-3.84-1.58,6.43,6.43,0,0,1-1.44-4.49,10.68,10.68,0,0,1,.26-2.39,5.51,5.51,0,0,1,.83-1.94A4.11,4.11,0,0,1,393.63,228.22Zm24.61,14q1.68-.28,2.7-.54V225.52h-3v14a2.47,2.47,0,0,1-.53.11l-.81.1-1,.08-1,0a3.75,3.75,0,0,1-3.23-1.31,7.52,7.52,0,0,1-1-4.35v-8.69h-3v9.33a12.87,12.87,0,0,0,.35,3.09,6.42,6.42,0,0,0,1.15,2.41,5.21,5.21,0,0,0,2.11,1.58,8.27,8.27,0,0,0,3.23.56A23.35,23.35,0,0,0,418.24,242.2Zm15.14-14.47a8.65,8.65,0,0,1,1.87.19,7.42,7.42,0,0,1,1.55.51l.67-2.52a10.13,10.13,0,0,0-2.14-.61,13,13,0,0,0-2.24-.19,8.25,8.25,0,0,0-3.31.65,7.21,7.21,0,0,0-2.51,1.83,8.14,8.14,0,0,0-1.58,2.76,10.63,10.63,0,0,0-.56,3.51,11.34,11.34,0,0,0,.51,3.5,7.34,7.34,0,0,0,1.55,2.73,7.09,7.09,0,0,0,2.56,1.79,9,9,0,0,0,3.53.64,12.31,12.31,0,0,0,1.33-.08c.46-.05.89-.12,1.3-.19A10.76,10.76,0,0,0,437,242a2.81,2.81,0,0,0,.74-.3l-.42-2.49a7.82,7.82,0,0,1-1.5.48,9.39,9.39,0,0,1-2.14.22,6.44,6.44,0,0,1-2.5-.43,4.26,4.26,0,0,1-1.67-1.23,5,5,0,0,1-1-1.92,9,9,0,0,1-.31-2.46,6.94,6.94,0,0,1,1.33-4.57A4.73,4.73,0,0,1,433.38,227.73ZM450,228v-2.5h-6.29v-5.14l-3,.51v14.83a14.09,14.09,0,0,0,.27,2.92,5.1,5.1,0,0,0,.95,2.12,4,4,0,0,0,1.77,1.3,7.74,7.74,0,0,0,2.8.43,8.72,8.72,0,0,0,2.56-.34,10.65,10.65,0,0,0,1.56-.56l-.57-2.46-1.14.44a6.37,6.37,0,0,1-2.16.3,4.21,4.21,0,0,1-1.34-.19,2.13,2.13,0,0,1-1-.66,3.17,3.17,0,0,1-.57-1.28,9.08,9.08,0,0,1-.19-2.06V228Zm10.34,11.5a5.81,5.81,0,0,1-2.7.48,9.29,9.29,0,0,1-3-.39c-.75-.25-1.29-.44-1.63-.57l-.54,2.55a15.3,15.3,0,0,0,1.69.56,12.51,12.51,0,0,0,3.45.37,8.52,8.52,0,0,0,4.88-1.18,4,4,0,0,0,1.71-3.48,5.12,5.12,0,0,0-.35-2,3.89,3.89,0,0,0-1-1.39,6.81,6.81,0,0,0-1.58-1c-.62-.28-1.32-.58-2.11-.87-.6-.22-1.11-.42-1.54-.61a5.59,5.59,0,0,1-1.07-.62,2.26,2.26,0,0,1-.64-.76,2,2,0,0,1-.2-.95,1.63,1.63,0,0,1,.92-1.55,4.56,4.56,0,0,1,2.18-.5,9.73,9.73,0,0,1,2.46.27,7.46,7.46,0,0,1,1.5.53l.54-2.56-.72-.22c-.3-.08-.66-.16-1.07-.24s-.84-.14-1.31-.19a13.29,13.29,0,0,0-1.4-.08,7,7,0,0,0-4.45,1.29,4.26,4.26,0,0,0-1.63,3.5,4.13,4.13,0,0,0,.39,1.89,4.07,4.07,0,0,0,1,1.31,6.65,6.65,0,0,0,1.52.94c.58.27,1.2.53,1.84.78a13.19,13.19,0,0,1,2.84,1.44,2,2,0,0,1,.86,1.72A1.62,1.62,0,0,1,460.34,239.52Zm21.14-4.17c-.36,1.12-.71,2.18-1.08,3.18q-.48-1.22-1-2.85c-.36-1.08-.71-2.21-1-3.38s-.64-2.34-.94-3.52-.56-2.25-.77-3.26h-3.2c.84,3.26,1.72,6.3,2.66,9.11s1.89,5.31,2.88,7.51h2.58q.9-2.31,1.89-5.26t1.82-6.15q.84,3.2,1.84,6.15c.67,2,1.31,3.72,1.9,5.26h2.59q1.47-3.3,2.88-7.51t2.65-9.11h-3.07c-.21,1-.46,2.09-.76,3.26s-.62,2.35-1,3.52-.69,2.3-1,3.38-.69,2-1,2.85c-.36-1-.72-2.06-1.07-3.18s-.69-2.25-1-3.39-.61-2.25-.89-3.35-.51-2.13-.7-3.09h-2.47q-.31,1.44-.75,3.09c-.28,1.1-.59,2.21-.91,3.35S481.83,234.23,481.48,235.35Zm21.61-16.2a1.94,1.94,0,0,0-1.36-.53,1.9,1.9,0,0,0-1.36.53,2.08,2.08,0,0,0,0,2.84,1.86,1.86,0,0,0,1.36.53,1.89,1.89,0,0,0,1.36-.53,2.11,2.11,0,0,0,0-2.84Zm-2.83,23h3V225.52h-3Zm8-24.28v19.93a4.63,4.63,0,0,0,1.15,3.48,5.73,5.73,0,0,0,3.9,1.19l.42-2.49a9.9,9.9,0,0,1-1.19-.24,1.72,1.72,0,0,1-.76-.44,1.6,1.6,0,0,1-.42-.76,5.11,5.11,0,0,1-.13-1.22v-20Zm13.78,24.6.41-2.49a9.7,9.7,0,0,1-1.18-.24,1.81,1.81,0,0,1-.77-.44,1.59,1.59,0,0,1-.41-.76,4.64,4.64,0,0,1-.13-1.22v-20l-3,.51v19.93a4.63,4.63,0,0,0,1.15,3.48A5.69,5.69,0,0,0,522.06,242.46Zm18-17.35a7.93,7.93,0,0,0-3.14.62,7.21,7.21,0,0,0-2.48,1.78,8,8,0,0,0-1.61,2.76,11.28,11.28,0,0,0,0,7.14,8.25,8.25,0,0,0,1.61,2.75,7.31,7.31,0,0,0,2.48,1.77,8.24,8.24,0,0,0,6.27,0,7.31,7.31,0,0,0,2.48-1.77,8.25,8.25,0,0,0,1.61-2.75,11.28,11.28,0,0,0,0-7.14,8,8,0,0,0-1.61-2.76,7.21,7.21,0,0,0-2.48-1.78A7.91,7.91,0,0,0,540.06,225.11Zm4.69,8.72a7.16,7.16,0,0,1-1.26,4.46,4.42,4.42,0,0,1-6.87,0,8.52,8.52,0,0,1,0-8.92,4.42,4.42,0,0,1,6.87,0A7.18,7.18,0,0,1,544.75,233.83Zm10-8.37c-1.13.19-2,.37-2.72.54v16.14h3v-14l.52-.09c.25-.05.53-.08.83-.11s.64-.06,1-.08.67,0,1,0a5.41,5.41,0,0,1,2,.31,2.65,2.65,0,0,1,1.28,1,4.44,4.44,0,0,1,.69,1.76,14,14,0,0,1,.21,2.62v8.69h3v-9.33a14.19,14.19,0,0,0-.32-3.1,6,6,0,0,0-1.1-2.41,5.26,5.26,0,0,0-2.1-1.57,8.45,8.45,0,0,0-3.29-.56A23.69,23.69,0,0,0,554.76,225.46Zm15.57-7.6v19.93a4.63,4.63,0,0,0,1.15,3.48,5.73,5.73,0,0,0,3.9,1.19l.42-2.49a9.9,9.9,0,0,1-1.19-.24,1.81,1.81,0,0,1-.77-.44,1.59,1.59,0,0,1-.41-.76,4.64,4.64,0,0,1-.13-1.22v-20ZM585,238.94c-.51-1.08-1-2.21-1.47-3.38s-.9-2.35-1.31-3.52-.77-2.31-1.1-3.42-.62-2.14-.85-3.1h-3.2a69.47,69.47,0,0,0,2.9,8.71q1.74,4.31,3.75,8.13a6.71,6.71,0,0,1-1.79,2.54,4.33,4.33,0,0,1-2.75.78,4.2,4.2,0,0,1-1.1-.14,6.91,6.91,0,0,1-.91-.3l-.54,2.39a1.88,1.88,0,0,0,.43.16c.2.07.42.12.67.18l.75.13a6.34,6.34,0,0,0,.74,0,7.81,7.81,0,0,0,2.35-.32,5.38,5.38,0,0,0,1.86-1,7.08,7.08,0,0,0,1.52-1.71,17,17,0,0,0,1.33-2.47q1.63-3.77,3-8.1c.93-2.89,1.79-5.89,2.55-9h-3.06c-.54,2.33-1.1,4.58-1.7,6.78S585.81,236.71,585,238.94Zm26.49-4.47a6.88,6.88,0,0,0-1.59-1c-.61-.28-1.32-.58-2.11-.87-.59-.22-1.1-.42-1.53-.61a5.3,5.3,0,0,1-1.07-.62,2.26,2.26,0,0,1-.64-.76,2,2,0,0,1-.21-.95,1.63,1.63,0,0,1,.93-1.55,4.54,4.54,0,0,1,2.17-.5,9.73,9.73,0,0,1,2.46.27,7.36,7.36,0,0,1,1.51.53l.54-2.56-.72-.22c-.31-.08-.67-.16-1.07-.24s-.84-.14-1.31-.19a13.33,13.33,0,0,0-1.41-.08A7,7,0,0,0,603,226.4a4.3,4.3,0,0,0-.22,6.7,6.57,6.57,0,0,0,1.51.94c.59.27,1.2.53,1.84.78a13.57,13.57,0,0,1,2.85,1.44,2,2,0,0,1,.86,1.72,1.62,1.62,0,0,1-.88,1.54,5.87,5.87,0,0,1-2.7.48,9.2,9.2,0,0,1-3-.39c-.75-.25-1.29-.44-1.63-.57l-.55,2.55a16.54,16.54,0,0,0,1.7.56,12.51,12.51,0,0,0,3.45.37,8.49,8.49,0,0,0,4.87-1.18,4,4,0,0,0,1.71-3.48,4.94,4.94,0,0,0-.35-2A3.87,3.87,0,0,0,611.49,234.47Zm6.25,5.59a7,7,0,0,0,2.6,1.81,10,10,0,0,0,3.76.65,13.62,13.62,0,0,0,3.08-.32,8.07,8.07,0,0,0,1.9-.61l-.41-2.49a9.26,9.26,0,0,1-1.62.53,10.91,10.91,0,0,1-2.63.27,5.5,5.5,0,0,1-4.09-1.34,6.06,6.06,0,0,1-1.51-3.93H630.2a4.75,4.75,0,0,0,0-.56v-.49c0-2.86-.6-5-1.79-6.38a6.43,6.43,0,0,0-5.15-2.09,7.59,7.59,0,0,0-2.81.54,6.85,6.85,0,0,0-2.43,1.63,8.13,8.13,0,0,0-1.7,2.73,10.53,10.53,0,0,0-.64,3.85,11.54,11.54,0,0,0,.5,3.47A7.3,7.3,0,0,0,617.74,240.06Zm1.55-9.52a4.85,4.85,0,0,1,.84-1.47,4.55,4.55,0,0,1,1.33-1,4,4,0,0,1,1.81-.4,3.47,3.47,0,0,1,2.86,1.3,4.93,4.93,0,0,1,1,3.3h-8.24A6.7,6.7,0,0,1,619.29,230.54Zm21.88-5.43a7.59,7.59,0,0,0-2.81.54,6.85,6.85,0,0,0-2.43,1.63,8.13,8.13,0,0,0-1.7,2.73,10.53,10.53,0,0,0-.64,3.85,11.54,11.54,0,0,0,.5,3.47,7.3,7.3,0,0,0,1.52,2.73,7,7,0,0,0,2.6,1.81,10,10,0,0,0,3.76.65,13.62,13.62,0,0,0,3.08-.32,8.07,8.07,0,0,0,1.9-.61l-.41-2.49a9.26,9.26,0,0,1-1.62.53,10.91,10.91,0,0,1-2.63.27,5.5,5.5,0,0,1-4.09-1.34,6.06,6.06,0,0,1-1.51-3.93h11.38a4.75,4.75,0,0,0,0-.56v-.49c0-2.86-.6-5-1.79-6.38A6.43,6.43,0,0,0,641.17,225.11Zm-4.41,7.12a6.7,6.7,0,0,1,.4-1.69,4.85,4.85,0,0,1,.84-1.47,4.55,4.55,0,0,1,1.33-1,4,4,0,0,1,1.81-.4,3.47,3.47,0,0,1,2.86,1.3,4.93,4.93,0,0,1,1,3.3Zm31,7.34a6.37,6.37,0,0,1-2.16.3,4.17,4.17,0,0,1-1.34-.19,2.13,2.13,0,0,1-1-.66,3,3,0,0,1-.57-1.28,9,9,0,0,1-.2-2.06V228h6.3v-2.5h-6.3v-5.14l-3,.51v14.83a14.09,14.09,0,0,0,.27,2.92,5.1,5.1,0,0,0,.95,2.12,4,4,0,0,0,1.77,1.3,7.74,7.74,0,0,0,2.8.43,8.6,8.6,0,0,0,2.55-.34,10.44,10.44,0,0,0,1.57-.56l-.57-2.46Zm16.85-12.27a5.2,5.2,0,0,0-2.1-1.57,8.45,8.45,0,0,0-3.29-.56,10,10,0,0,0-1.87.18,10.42,10.42,0,0,0-1.77.49v-8.49l-3,.51v24.28h3v-13.8a3,3,0,0,1,.52-.16A7.65,7.65,0,0,1,677,228l1-.14a6.78,6.78,0,0,1,1-.07,5.41,5.41,0,0,1,2,.31,2.65,2.65,0,0,1,1.28,1,4.44,4.44,0,0,1,.69,1.76,14,14,0,0,1,.21,2.62v8.69h3v-9.33a14.19,14.19,0,0,0-.32-3.1A6,6,0,0,0,684.63,227.3Zm12.9-2.19a7.68,7.68,0,0,0-2.82.54,7,7,0,0,0-2.43,1.63,8.27,8.27,0,0,0-1.69,2.73,10.53,10.53,0,0,0-.64,3.85,11.54,11.54,0,0,0,.5,3.47,7.42,7.42,0,0,0,1.51,2.73,7.06,7.06,0,0,0,2.61,1.81,9.92,9.92,0,0,0,3.76.65,13.62,13.62,0,0,0,3.08-.32,8.07,8.07,0,0,0,1.9-.61l-.41-2.49a9.26,9.26,0,0,1-1.62.53,10.91,10.91,0,0,1-2.63.27,5.54,5.54,0,0,1-4.1-1.34,6.11,6.11,0,0,1-1.5-3.93h11.38a4.86,4.86,0,0,0,0-.56v-.49c0-2.86-.59-5-1.79-6.38A6.41,6.41,0,0,0,697.53,225.11Zm-4.41,7.12a7.14,7.14,0,0,1,.39-1.69,5.1,5.1,0,0,1,.85-1.47,4.42,4.42,0,0,1,1.33-1,4,4,0,0,1,1.81-.4,3.47,3.47,0,0,1,2.86,1.3,5,5,0,0,1,1,3.3Zm38-2.49a6.17,6.17,0,0,0-.93-2.43,4.56,4.56,0,0,0-1.9-1.58,7.56,7.56,0,0,0-3.13-.56,7.91,7.91,0,0,0-1.86.21,12.57,12.57,0,0,0-1.56.48,7.88,7.88,0,0,0-1.19.56c-.32.19-.55.34-.7.45A4.72,4.72,0,0,0,718,225.6a7.51,7.51,0,0,0-2.69-.43,23.35,23.35,0,0,0-3.88.29q-1.68.28-2.7.54v16.14h3v-14l.51-.09c.26-.05.54-.08.85-.11s.63-.06,1-.08.66,0,1,0a4,4,0,0,1,1.75.34,2.46,2.46,0,0,1,1.08,1,4.87,4.87,0,0,1,.56,1.75,16.81,16.81,0,0,1,.16,2.53v8.69h3v-9.33a17.25,17.25,0,0,0-.12-2.08,11.65,11.65,0,0,0-.39-1.82,5.18,5.18,0,0,1,1.33-.72,6.74,6.74,0,0,1,2.48-.4,4.1,4.1,0,0,1,1.77.34,2.48,2.48,0,0,1,1.09,1,4.88,4.88,0,0,1,.54,1.75,18.4,18.4,0,0,1,.15,2.53v8.69h3v-9.33A18.3,18.3,0,0,0,731.11,229.74Zm-450,26.65-6.63,27.68h6.19l6.67-27.68Zm5.83,27.68h6.2l2.75-11.46h10.35l1.24-5.15H297.12l1.4-5.91h11.71l1.28-5.16H293.57Zm54.35-27.68c-.69,1-1.37,2-2,3s-1.31,1.88-2,2.79-1.35,1.84-2.06,2.76-1.44,1.87-2.21,2.86q-.93-3-1.68-5.76c-.51-1.83-1-3.71-1.4-5.63H323.3q1.2,4.44,2.55,8.47c.91,2.69,1.92,5.44,3,8.27l-2.64,10.94h6.24l2.63-10.94c1.23-1.41,2.39-2.79,3.48-4.12s2.16-2.67,3.2-4,2.08-2.72,3.12-4.13,2.11-2.9,3.23-4.48Zm28.89,2.46a10.14,10.14,0,0,0-3.52-2.3,12.21,12.21,0,0,0-4.47-.79,14,14,0,0,0-6.6,1.53,15.93,15.93,0,0,0-4.93,4,17.89,17.89,0,0,0-3.1,5.53,18.55,18.55,0,0,0-1.08,6.19,13.78,13.78,0,0,0,.82,4.87,10.33,10.33,0,0,0,2.3,3.65,10,10,0,0,0,3.52,2.3,12.21,12.21,0,0,0,4.47.8,14.22,14.22,0,0,0,6.64-1.52,15.7,15.7,0,0,0,4.93-4,17.73,17.73,0,0,0,3.08-5.55,19.3,19.3,0,0,0,1.06-6.21,13.83,13.83,0,0,0-.82-4.88A10.42,10.42,0,0,0,370.17,258.85Zm-3.94,13.26a12.62,12.62,0,0,1-1.83,3.65,9.69,9.69,0,0,1-2.76,2.56,6.45,6.45,0,0,1-3.42,1,4.57,4.57,0,0,1-4.09-1.86,8.5,8.5,0,0,1-1.26-4.85,14.07,14.07,0,0,1,.66-4.28,12.74,12.74,0,0,1,1.83-3.67,9.83,9.83,0,0,1,2.76-2.56,6.53,6.53,0,0,1,3.42-.95,4.58,4.58,0,0,1,4.09,1.85,8.51,8.51,0,0,1,1.26,4.86A13.94,13.94,0,0,1,366.23,272.11Zm26.16,1.38a10.85,10.85,0,0,1-1.92,4.25,4.46,4.46,0,0,1-3.64,1.5,6.32,6.32,0,0,1-1.94-.26,3,3,0,0,1-1.23-.74,2.57,2.57,0,0,1-.64-1.12,5.3,5.3,0,0,1-.18-1.44,10.69,10.69,0,0,1,.4-2.91l3.91-16.38h-6.23l-3.72,15.5a18,18,0,0,0-.6,4.43,10.87,10.87,0,0,0,.5,3.34,6.44,6.44,0,0,0,1.62,2.63,7.66,7.66,0,0,0,2.9,1.72,13.44,13.44,0,0,0,4.37.62,12.39,12.39,0,0,0,8.1-2.5q3-2.49,4.41-8.12l4.2-17.62h-6.24Zm25.55-12.28a16.89,16.89,0,0,0-3.24,5.49,18.32,18.32,0,0,0-1.09,6.19,14.17,14.17,0,0,0,.79,4.89,10.57,10.57,0,0,0,2.26,3.69,10,10,0,0,0,3.52,2.34,12.25,12.25,0,0,0,4.53.82,21.22,21.22,0,0,0,4.88-.48,18.12,18.12,0,0,0,3.64-1.28l-.68-5.07a17.3,17.3,0,0,1-3,1,15.1,15.1,0,0,1-3.54.4,5.86,5.86,0,0,1-4.41-1.6Q420,276,420,272.53a14.17,14.17,0,0,1,.68-4.4,11,11,0,0,1,2-3.65,9.68,9.68,0,0,1,3.11-2.5,9,9,0,0,1,4.1-.91,11.71,11.71,0,0,1,2.84.32,13.49,13.49,0,0,1,3,1.19l2.24-4.83a16.19,16.19,0,0,0-3.9-1.56,16.39,16.39,0,0,0-3.77-.43,16,16,0,0,0-7.13,1.51A16.74,16.74,0,0,0,417.94,261.21Zm25.87-4.82-6.63,27.68h18.46l1.28-5.27H444.65l5.4-22.41Zm14.31,27.68h6.51q.81-1.56,1.68-3.06c.59-1,1.15-2,1.68-3h10.39c.08,1,.15,2,.22,3s.13,2,.18,3.06h6.27q-.36-3.19-.78-6.85c-.28-2.44-.58-4.87-.92-7.31s-.69-4.82-1.07-7.15-.8-4.45-1.22-6.37H475.5q-2.07,2.88-4.07,5.89c-1.34,2-2.7,4.14-4.1,6.37s-2.85,4.62-4.35,7.15S459.85,281.09,458.12,284.07Zm15.52-16.29q1.62-2.64,3.3-5.32c.27,1.84.47,3.68.62,5.52s.29,3.56.42,5.19h-7.47C471.52,271.33,472.57,269.53,473.64,267.78ZM492.7,261a8.41,8.41,0,0,0-.69,3.41,7.57,7.57,0,0,0,.39,2.54,7.8,7.8,0,0,0,1.08,2,8.4,8.4,0,0,0,1.64,1.62,23.32,23.32,0,0,0,2,1.36c.56.32,1.12.61,1.68.88a10.09,10.09,0,0,1,1.52.88,5.39,5.39,0,0,1,1.12,1.05,2.25,2.25,0,0,1,.44,1.38,3,3,0,0,1-.46,1.7,3.14,3.14,0,0,1-1.18,1,5.73,5.73,0,0,1-1.64.5,12.67,12.67,0,0,1-1.84.14,9.36,9.36,0,0,1-2-.22,16.12,16.12,0,0,1-1.82-.54,13.93,13.93,0,0,1-1.53-.68,13.35,13.35,0,0,1-1.16-.68l-2.64,4.75a12.53,12.53,0,0,0,1.38.8,13.49,13.49,0,0,0,2,.82,23.43,23.43,0,0,0,2.63.66,17.3,17.3,0,0,0,3.14.28,18.69,18.69,0,0,0,4.66-.54,10.34,10.34,0,0,0,3.61-1.66,7.75,7.75,0,0,0,2.36-2.79,8.76,8.76,0,0,0,.84-4,7,7,0,0,0-.52-2.83,7.47,7.47,0,0,0-1.4-2.14,10.13,10.13,0,0,0-2-1.66c-.77-.48-1.57-.93-2.39-1.35L500.6,267a6.35,6.35,0,0,1-1.12-.72,3.35,3.35,0,0,1-.78-.94,3.1,3.1,0,0,1,.08-2.82,2.88,2.88,0,0,1,1-1,4.2,4.2,0,0,1,1.48-.54,9.63,9.63,0,0,1,4.87.36,9.17,9.17,0,0,1,2.44,1.27l2.6-4.59a14.14,14.14,0,0,0-1.46-.82,14.47,14.47,0,0,0-1.9-.74,21,21,0,0,0-2.24-.54,14.31,14.31,0,0,0-2.48-.21,16.13,16.13,0,0,0-4.87.65,10,10,0,0,0-3.46,1.82A7.57,7.57,0,0,0,492.7,261Zm37.47-4.46a21.64,21.64,0,0,0-2.24-.54,14.39,14.39,0,0,0-2.48-.21,16.13,16.13,0,0,0-4.87.65,10,10,0,0,0-3.46,1.82A7.57,7.57,0,0,0,515,261a8.42,8.42,0,0,0-.7,3.41,7.56,7.56,0,0,0,.4,2.54,7.8,7.8,0,0,0,1.08,2,8.13,8.13,0,0,0,1.64,1.62,23.32,23.32,0,0,0,2,1.36c.56.32,1.12.61,1.68.88a9.51,9.51,0,0,1,1.51.88,4.93,4.93,0,0,1,1.12,1.05,2.19,2.19,0,0,1,.44,1.38,2.89,2.89,0,0,1-.46,1.7,3.06,3.06,0,0,1-1.18,1,5.66,5.66,0,0,1-1.63.5,12.77,12.77,0,0,1-1.84.14,9.29,9.29,0,0,1-2-.22,15.52,15.52,0,0,1-1.82-.54,15,15,0,0,1-1.54-.68c-.45-.24-.84-.47-1.16-.68L510,282.07a10.88,10.88,0,0,0,1.38.8,13.77,13.77,0,0,0,2,.82,24.2,24.2,0,0,0,2.64.66,17.22,17.22,0,0,0,3.14.28,18.67,18.67,0,0,0,4.65-.54,10.31,10.31,0,0,0,3.62-1.66,7.75,7.75,0,0,0,2.36-2.79,8.76,8.76,0,0,0,.84-4,7.18,7.18,0,0,0-.52-2.83,7.69,7.69,0,0,0-1.4-2.14,10.42,10.42,0,0,0-2-1.66q-1.16-.72-2.4-1.35l-1.36-.68a6.25,6.25,0,0,1-1.11-.72,3.35,3.35,0,0,1-.78-.94,2.74,2.74,0,0,1-.3-1.34,2.67,2.67,0,0,1,.38-1.48,2.94,2.94,0,0,1,1-1,4.28,4.28,0,0,1,1.48-.54,9.14,9.14,0,0,1,1.76-.16,9,9,0,0,1,3.12.52,9.17,9.17,0,0,1,2.44,1.27l2.59-4.59a13.16,13.16,0,0,0-1.46-.82A13.79,13.79,0,0,0,530.17,256.51Zm16.42-.12h-6.23l-6.64,27.68h6.2Zm22.9,5.16,1.28-5.16H552.82l-6.63,27.68h6.19l2.76-11.46h10.35l1.24-5.15H556.38l1.4-5.91Zm12.66,22.52,2.64-10.94c1.23-1.41,2.39-2.79,3.48-4.12s2.16-2.67,3.2-4,2.07-2.72,3.11-4.13,2.12-2.9,3.24-4.48H591l-2,3c-.66.94-1.31,1.88-2,2.79s-1.35,1.84-2.06,2.76-1.44,1.87-2.22,2.86q-.92-3-1.67-5.76t-1.4-5.63H573q1.2,4.44,2.56,8.47c.91,2.69,1.92,5.44,3,8.27l-2.64,10.94Zm-145.3,14.26H414.4l-1.28,5.23h8.11L415.83,326h6.24l5.39-22.44h8.11Zm19.9,0L454.2,309h-9.83l2.55-10.62h-6.23L434.06,326h6.19l2.84-11.78h9.83L450.08,326h6.23L463,298.33Zm25.38,15.73,1.24-5H472.9l1.28-5.59H486l1.28-5.11h-18.1L462.59,326h19l1.28-5.15H470.06l1.6-6.79Zm30-12.4c-.94,1.34-1.92,2.79-3,4.33L506,310.7c-1.06,1.6-2.05,3.09-3,4.48-.24-1.39-.51-2.91-.8-4.57s-.58-3.29-.86-4.88-.55-3-.8-4.35-.46-2.34-.62-3.05h-5.59q-1,2.71-2.2,6.15c-.78,2.29-1.55,4.66-2.34,7.12s-1.55,4.94-2.28,7.41-1.4,4.81-2,7h6l2.34-8.81q1.25-4.72,2.81-9.56c.22,1.12.44,2.38.68,3.77s.47,2.79.7,4.16.43,2.67.62,3.89.35,2.24.48,3h4.56c.58-.88,1.27-1.95,2.07-3.2s1.63-2.56,2.48-3.93,1.71-2.73,2.56-4.08,1.62-2.56,2.32-3.65q-.81,4.83-1.74,9.56c-.63,3.16-1.22,6.09-1.78,8.81h6.07q.64-3.27,1.28-7c.43-2.47.83-4.94,1.22-7.39s.73-4.82,1-7.1.55-4.36.74-6.19h-5.52C513.83,299.2,513,300.32,512.1,301.66Zm52.3-3.33q-1,2.48-2,5.07t-2.14,5.11q-1.08,2.52-2.16,4.87c-.72,1.57-1.42,3-2.12,4.39-.13-1.25-.26-2.61-.4-4.07s-.26-2.94-.38-4.41-.22-2.91-.32-4.3-.16-2.62-.22-3.71h-5.11c-.51,1.09-1.12,2.32-1.84,3.69s-1.48,2.79-2.28,4.26-1.61,2.93-2.43,4.39l-2.36,4.15c-.06-.93-.08-1.86-.08-2.79v-2.76q0-3.63.18-7c.12-2.25.24-4.54.38-6.88h-6.28q-.2,3.27-.32,6.48t-.12,6.45q0,3.76.14,7.39T535,326h5.84c1.68-2.64,3.25-5.3,4.73-8s3-5.46,4.5-8.28c.1,1.43.22,2.82.34,4.15s.25,2.65.4,3.95.3,2.63.48,4,.36,2.75.58,4.21h5.83q3.72-6.39,6.95-13.24T571,298.33Zm27.46,5.11,1.28-5.11H575L568.4,326h19l1.28-5.15H575.87l1.6-6.79h10.47l1.24-5H578.71l1.28-5.59ZM605,298.33h-6.23L592.14,326H610.6l1.28-5.27H599.61Zm22.22,0H621L614.35,326h18.47l1.27-5.27H621.83Zm13.47,20.84a3.8,3.8,0,0,0-1.48.3,4.06,4.06,0,0,0-1.28.84,4.19,4.19,0,0,0-.9,1.3,4,4,0,0,0-.34,1.67,3,3,0,0,0,.94,2.46,3.54,3.54,0,0,0,2.34.78,3.84,3.84,0,0,0,1.48-.3,4.18,4.18,0,0,0,1.28-.84,4,4,0,0,0,.89-1.3,4,4,0,0,0,.34-1.67A3,3,0,0,0,643,320,3.51,3.51,0,0,0,640.69,319.17Z" transform="translate(-19.09 -12.48)"/></svg>