<?xml version="1.0" encoding="utf-8"?>
<!-- Generator: Adobe Illustrator 22.0.1, SVG Export Plug-In . SVG Version: 6.00 Build 0)  -->
<svg version="1.1" id="step" xmlns="http://www.w3.org/2000/svg" xmlns:xlink="http://www.w3.org/1999/xlink" x="0px" y="0px"
	 viewBox="0 0 188.5 203.6" style="enable-background:new 0 0 188.5 203.6;" xml:space="preserve">
<style type="text/css">
	.st0{fill:#FFFFFF;}
</style>
<title>step</title>
<path class="st0" d="M118.9,95.1c-1.2,1.5-2.5,3-4,4.7c-1.4,1.5-2.6,3.3-3.5,5.2c-0.8,1.7-0.7,3.6,0.3,5.2c0.8,1.5,2.1,2.7,3.7,3.4
	c1.4,0.7,2.9,1,4.4,0.7c1.5-0.2,2.7-1.3,3.2-2.7c0.8-1.8,1.8-3.6,3-5.2c1.5-2,3-3.7,4.7-5.7s3.2-3.7,4.7-5.7s2.7-3.7,3.7-5.2
	c0.7-1.6,1-3.4,0.7-5.2c-0.2-2-1.1-3.8-2.5-5.2c-1.5-1.5-3.7-2.5-6.9-3.2c-4.3-0.6-8.6-0.3-12.8,0.7c-7.9,1.7-23.4,9.6-23.4,9.6
	c-0.5-0.5-0.7-1-1.2-1.2c-5.9-6.4-14.6-5.7-21-0.5c-12.6,9.9-20.6,24.5-22,40.5c-12.8,4.9-23.4,13.1-30.6,25.2
	c-2.5,4.2-1.5,8.4,1.2,12.1c6.7,8.6,14.8,16.8,24.4,22c11.1,5.9,21.7-10.9,10.4-17c-5.7-3.3-10.8-7.5-15.2-12.4
	c4.2-5.1,9.8-8.9,16-11.1c0.7-0.5,1.5-0.7,2.2-1.2c0.6,0.3,1.3,0.5,2,0.5l0,0c0.5,4.9,2.7,13.3,4.9,17.3c1.9,3.6,4.6,6.7,7.9,9.1
	c3.2,2.3,6.9,3.8,10.9,4.4c4.4,0.5,8.9-0.1,13.1-1.7c5.2-2.2,10-5.3,14.1-9.1c5.4-5.3,10.2-11.3,14.1-17.8c0.9-1.6,1.5-3.4,1.7-5.2
	c0.2-1.7,0.1-3.5-0.5-5.2c-0.4-1.5-1.2-3-2.2-4.2c-0.8-1.1-1.9-2-3.2-2.5c-1.2-0.5-2.6-0.4-3.7,0.3c-1.2,0.5-2.2,2-3.2,3.7
	c-1.1,2.3-2.3,4.5-3.7,6.7c-1.7,2.7-3.5,5.2-5.4,8.1c-2.1,2.7-4.3,5.2-6.7,7.6c-2.1,2.1-4.5,3.9-7.2,5.4c-2.1,1.2-4.5,1.9-6.9,2
	c-2.2,0-4.4-1.2-6.4-3.2c-1.9-2.3-2.9-5.2-3-8.1c-0.4-4,0-8,1-11.9c1.2-4.8,2.8-9.4,4.9-13.8c2.5-5,5.5-9.6,9.1-13.8
	c3.4-4.1,7-8,10.9-11.6c2.9-2.8,5.9-5.4,9.1-7.9c2.7-2,5.2-3.4,6.7-4.4c1.7-1,3.2-1,3.9-0.5c1,0.8,1.4,2.2,1,3.4
	C120.9,92.3,120,93.8,118.9,95.1z M94.9,81.3c7.4,0.2,13.6-5.6,13.8-13.1c0.2-7.4-5.6-13.6-13.1-13.8C88.2,54.2,82,60,81.8,67.5
	c0,0,0,0,0,0C81.7,74.9,87.5,81,94.9,81.3z M104.1,52.4l0.7-2.2l7.6,2.2l-0.5,1.5c-0.7,2.4,0.5,4.9,2.7,5.9l41.5,17.5
	c0.2,0,0.4,0.1,0.5,0.3c2.5,0.8,5.1-0.5,5.9-3c0,0,0,0,0,0l5.9-18.3l0,0c0.8-2.4-0.6-5-3-5.8c-0.2-0.1-0.5-0.1-0.7-0.2l-43.7-9.9
	c-2.4-0.6-4.8,0.8-5.4,3.2l-0.5,1.5l-7.4-2.2c3.5-9.9-11.6-14.3-15-4.7c-2,5.7-4.2,11.3-6.2,17c3.3-3.1,7.8-4.8,12.3-4.7
	C100.1,50.4,102.3,51.7,104.1,52.4z M111.7,38.4c2.4-2.9,6.2-4.2,9.9-3.4l0,0l26.9,5.9l15.5-3.7c2.5-0.5,4.1-2.8,3.6-5.3
	c0-0.2-0.1-0.4-0.2-0.6l-6.2-18c-0.8-2.4-3.4-3.7-5.8-2.9c-0.2,0.1-0.4,0.1-0.6,0.2l-41.2,18c-2.2,1-3.4,3.5-2.7,5.9l0.5,1.5
	l-4.4,1.5L111.7,38.4z"/>
</svg>
