<?xml version="1.0" encoding="utf-8"?>
<!-- Generator: Adobe Illustrator 21.1.0, SVG Export Plug-In . SVG Version: 6.00 Build 0)  -->
<svg version="1.1" id="Layer_1" xmlns="http://www.w3.org/2000/svg" xmlns:xlink="http://www.w3.org/1999/xlink" x="0px" y="0px"
	 viewBox="0 0 72 64" style="enable-background:new 0 0 72 64;" xml:space="preserve">
<style type="text/css">
	.st0{fill-rule:evenodd;clip-rule:evenodd;fill:#AF5A04;}
	.st1{fill-rule:evenodd;clip-rule:evenodd;fill:#F3C01D;stroke:#AB6900;stroke-width:0.5;stroke-miterlimit:10;}
	.st2{fill:#FDDD22;}
	.st3{fill:#AF5A04;}
	.st4{fill:none;stroke:#E39E02;stroke-width:0.25;stroke-miterlimit:10;}
	.st5{fill:none;}
	.st6{fill:#D68B18;}
	.st7{fill:#FFFFFF;}
</style>
<g id="moneda_2_">
	<path class="st0" d="M22,24.6c10.3,0,18.6,8.4,18.6,18.7C40.6,53.6,32.3,62,22,62C11.7,62,3.4,53.6,3.4,43.3
		C3.4,33,11.7,24.6,22,24.6z"/>
	<path class="st1" d="M20.6,23.2c10.3,0,18.6,8.4,18.6,18.7c0,10.3-8.3,18.7-18.6,18.7C10.3,60.6,2,52.3,2,41.9
		C2,31.6,10.3,23.2,20.6,23.2z"/>
	<g>
		<ellipse class="st2" cx="20.6" cy="41.9" rx="15.4" ry="15.5"/>
		<path class="st3" d="M6.5,43.2c0-8.5,6.9-15.5,15.4-15.5c3.9,0,7.5,1.5,10.2,3.9c-2.8-3.2-6.9-5.2-11.5-5.2
			c-8.5,0-15.4,6.9-15.4,15.5c0,4.6,2,8.7,5.2,11.6C8,50.8,6.5,47.2,6.5,43.2z"/>
		<ellipse class="st4" cx="20.6" cy="41.9" rx="15.4" ry="15.5"/>
	</g>
	<g>
		<path class="st5" d="M31.6,45.5c-0.6,0-1.1-0.2-1.5-0.6c-1.3-1.2-5.8-5.7-5.8-5.7c0,0-0.3-0.3-0.9-0.3c-0.3,0-0.6,0.1-0.9,0.2
			c-1.3,0.7-2.6,1.4-3.2,1.7c-0.3,0.2-0.6,0.3-1,0.3c-0.5,0-1-0.2-1.3-0.6c-0.3-0.3-0.5-0.8-0.5-1.2c0-0.7,0.4-1.2,1.1-1.7
			c1.7-1,5.1-2.9,6.5-3.7c0.4-0.2,0.8-0.3,1.1-0.3c0.5,0,1.1,0.3,1.8,0.9c1.5,1.2,2.8,2.4,2.8,2.4c0,0,0.2,0.2,0.6,0.2
			c0.1,0,0.2,0,0.3,0c0.8-0.2,1.9-0.4,2.8-0.6C31.2,32,26.6,29,21.3,29c-5,0-9.4,2.7-11.8,6.8l0.9,0.3c0,0,0,0,0,0
			c0.4,0.1,0.7,0.2,1.1,0.2c0.7,0,1.1-0.3,1.1-0.3c0.1-0.1,3.6-2.3,5.3-2.3c1.8,0,2.6,1,2.6,1.1c0,0.1,0.1,0.1,0,0.2
			c0,0.1-0.1,0.1-0.1,0.2c0,0-2.5,1.3-3.6,2.1c0,0,0,0,0,0c-0.7,0.5-1.2,1.3-1.2,2.1c0,1.4,1.1,2.5,2.5,2.5c0.2,0,0.8-0.1,1.5-0.5
			c0,0,0,0,0,0c0.5-0.3,1.8-0.9,2.6-1.3c0.8-0.4,1.3-0.3,1.8,0.2c0.2,0.2,5.5,5.6,5.5,5.6c0.6,0.6,0.4,1.5-0.1,2.1
			c-0.3,0.3-0.7,0.5-1.1,0.5c-0.2,0-0.3-0.1-0.5-0.2c-0.2-0.1-0.3,0.1-0.2,0.2c0.3,0.5,0.2,1.1-0.2,1.5c-0.3,0.3-0.6,0.4-1,0.4
			c-0.3,0-0.5-0.1-0.7-0.2c-0.2-0.1-0.3,0-0.2,0.2c0.1,0.5,0,0.9-0.4,1.3c-0.3,0.3-0.6,0.4-1,0.4c-0.3,0-0.5-0.1-0.7-0.2
			c-0.1-0.1-0.3,0-0.3,0.2c0,0.4-0.1,0.7-0.4,1c-0.3,0.3-0.6,0.4-1,0.4c-0.4,0-0.7-0.1-1-0.4c-0.2-0.2-0.5-0.6-0.6-0.7c0,0,0,0,0,0
			c0-0.1-0.1-0.1-0.1-0.2c0.1-0.8-0.1-1.6-0.7-2.2c-0.3-0.3-0.7-0.5-1.1-0.6c-0.1,0-0.1-0.1-0.2-0.2c-0.1-0.4-0.3-0.8-0.6-1.2
			c-0.3-0.3-0.6-0.5-1-0.6c-0.1,0-0.1-0.1-0.2-0.2c-0.1-0.4-0.3-0.8-0.6-1.1c-0.3-0.3-0.6-0.5-1-0.6c-0.1,0-0.1-0.1-0.2-0.2
			c-0.1-0.4-0.3-0.8-0.6-1.1c-0.5-0.5-1.1-0.7-1.8-0.7c-0.7,0-1.5,0.3-2,0.8c-0.3,0.3-0.6,0.7-0.7,1.1c0,0.1-0.1,0.1-0.1,0.1
			c-0.1,0-0.1,0-0.2,0c-0.4-0.2-0.8-0.3-1.1-0.4c1.2,6.4,6.7,11.2,13.4,11.2c6.8,0,12.4-5,13.4-11.5C34,45,31.8,45.5,31.6,45.5z
			 M18.5,53.1c-0.5,0.4-1.2,0.7-1.8,0.7c-0.5,0-0.9-0.2-1.2-0.5c-0.4-0.4-0.4-0.9-0.3-1.3c0.1-0.3-0.1-0.3-0.2-0.3
			c-0.1,0-0.2,0-0.3,0c-0.4,0-0.8-0.2-1-0.5c-0.4-0.4-0.3-0.8-0.2-1.2c0.1-0.3-0.1-0.2-0.3-0.2c-0.1,0-0.2,0-0.3,0
			c-0.4,0-0.7-0.2-1-0.5c-0.4-0.5-0.3-0.9-0.2-1.2c0-0.2-0.1-0.2-0.2-0.2c-0.1,0-0.2,0-0.3,0c-0.4,0-0.7-0.2-1-0.5
			c-0.7-0.8-0.3-2.1,0.5-2.8c0.4-0.4,0.9-0.6,1.4-0.6c0.5,0,0.9,0.2,1.2,0.5c0.3,0.3,0.4,0.7,0.4,1.1c0,0.2,0.1,0.3,0.2,0.3
			c0.4,0,0.8,0.2,1.1,0.5c0.3,0.3,0.4,0.7,0.4,1.1c0,0.1,0,0.3,0.2,0.3c0.4,0,0.9,0.2,1.1,0.5c0.3,0.3,0.4,0.8,0.5,1.2
			c0,0.2,0,0.2,0.2,0.2c0.5,0.1,0.9,0.2,1.2,0.5c0.3,0.3,0.5,0.8,0.5,1.2C19.2,52.2,18.9,52.8,18.5,53.1z"/>
		<path class="st6" d="M17.5,50c-0.2,0-0.2-0.1-0.2-0.2c0-0.5-0.1-0.9-0.5-1.2c-0.3-0.3-0.7-0.5-1.1-0.5c-0.2,0-0.2-0.1-0.2-0.3
			c0-0.4-0.2-0.8-0.4-1.1c-0.3-0.3-0.7-0.5-1.1-0.5c-0.1,0-0.2-0.1-0.2-0.3c0-0.4-0.2-0.8-0.4-1.1c-0.3-0.3-0.8-0.5-1.2-0.5
			c-0.5,0-1,0.2-1.4,0.6c-0.8,0.8-1.2,2-0.5,2.8c0.3,0.3,0.6,0.5,1,0.5c0.1,0,0.2,0,0.3,0c0.1,0,0.2,0,0.2,0.2
			c-0.1,0.4-0.1,0.8,0.2,1.2c0.2,0.3,0.6,0.5,1,0.5c0.1,0,0.2,0,0.3,0c0.1,0,0.3-0.1,0.3,0.2c-0.1,0.4-0.1,0.8,0.2,1.2
			c0.2,0.3,0.6,0.5,1,0.5c0.1,0,0.2,0,0.3,0c0.1,0,0.3,0,0.2,0.3c-0.1,0.4-0.1,0.8,0.3,1.3c0.3,0.3,0.7,0.5,1.2,0.5
			c0.7,0,1.4-0.3,1.8-0.7c0.4-0.4,0.6-0.9,0.6-1.4c0-0.5-0.2-0.9-0.5-1.2C18.4,50.2,17.9,50.1,17.5,50z"/>
		<path class="st6" d="M9.2,45.6c0.1,0,0.1-0.1,0.1-0.1c0.2-0.4,0.4-0.8,0.7-1.1c0.5-0.5,1.2-0.8,2-0.8c0.7,0,1.4,0.3,1.8,0.7
			c0.3,0.3,0.5,0.7,0.6,1.1c0,0.1,0.1,0.1,0.2,0.2c0.4,0.1,0.7,0.3,1,0.6c0.3,0.3,0.5,0.7,0.6,1.1c0,0.1,0.1,0.1,0.2,0.2
			c0.4,0.1,0.7,0.3,1,0.6c0.3,0.3,0.5,0.7,0.6,1.2c0,0.1,0.1,0.1,0.2,0.2c0.4,0.1,0.8,0.3,1.1,0.6c0.6,0.6,0.8,1.4,0.7,2.2
			c0,0.1,0,0.1,0.1,0.2c0,0,0,0,0,0c0.1,0.1,0.4,0.5,0.6,0.7c0.3,0.3,0.6,0.4,1,0.4c0.4,0,0.7-0.1,1-0.4c0.3-0.3,0.4-0.6,0.4-1
			c0-0.2,0.2-0.3,0.3-0.2c0.2,0.1,0.5,0.2,0.7,0.2c0.4,0,0.7-0.1,1-0.4c0.4-0.4,0.5-0.8,0.4-1.3c0-0.1,0.1-0.3,0.2-0.2
			c0.2,0.1,0.5,0.2,0.7,0.2c0.4,0,0.7-0.1,1-0.4c0.4-0.4,0.5-1,0.2-1.5c-0.1-0.1,0-0.2,0.2-0.2c0.2,0.1,0.3,0.2,0.5,0.2
			c0.4,0,0.8-0.2,1.1-0.5c0.6-0.6,0.7-1.5,0.1-2.1c0,0-5.3-5.4-5.5-5.6c-0.5-0.5-0.9-0.5-1.8-0.2c-0.8,0.4-2.1,1-2.6,1.3
			c0,0,0,0,0,0c-0.7,0.4-1.3,0.5-1.5,0.5c-1.4,0-2.5-1.1-2.5-2.5c0-0.9,0.4-1.7,1.2-2.1c0,0,0,0,0,0c1.1-0.7,3.6-2.1,3.6-2.1
			c0.1,0,0.1-0.1,0.1-0.2c0-0.1,0-0.1,0-0.2c0,0-0.9-1.1-2.6-1.1c-1.7,0-5.2,2.2-5.3,2.3c0,0-0.4,0.3-1.1,0.3
			c-0.4,0-0.7-0.1-1.1-0.2c0,0,0,0,0,0l-0.9-0.3c-1.2,2-1.9,4.4-1.9,6.9c0,0.8,0.1,1.7,0.2,2.5c0.3,0.1,0.7,0.2,1.1,0.4
			C9.1,45.6,9.2,45.6,9.2,45.6z"/>
		<path class="st6" d="M30.4,37c-0.4,0-0.6-0.2-0.6-0.2c0,0-1.3-1.1-2.8-2.4c-0.7-0.6-1.3-0.9-1.8-0.9c-0.3,0-0.7,0.1-1.1,0.3
			c-1.4,0.7-4.8,2.7-6.5,3.7c-0.8,0.4-1.1,1-1.1,1.7c0,0.4,0.2,0.8,0.5,1.2c0.4,0.4,0.8,0.6,1.3,0.6c0.3,0,0.6-0.1,1-0.3
			c0.7-0.3,1.9-1,3.2-1.7c0.3-0.2,0.6-0.2,0.9-0.2c0.5,0,0.9,0.3,0.9,0.3c0,0,4.6,4.5,5.8,5.7c0.4,0.4,0.9,0.6,1.5,0.6
			c0.3,0,2.5-0.5,3.2-0.6c0.1-0.7,0.2-1.4,0.2-2.2c0-2.3-0.6-4.4-1.5-6.3c-0.9,0.2-1.9,0.4-2.8,0.6C30.6,37,30.5,37,30.4,37z"/>
	</g>
</g>
<g id="moneda_1_">
	<path class="st0" d="M18.4,3.4c8.5,0,15.3,6.9,15.3,15.4c0,8.5-6.9,15.4-15.3,15.4c-8.5,0-15.3-6.9-15.3-15.4
		C3.1,10.3,10,3.4,18.4,3.4z"/>
	<path class="st1" d="M17.3,2.3c8.5,0,15.3,6.9,15.3,15.4c0,8.5-6.9,15.4-15.3,15.4C8.9,33,2,26.1,2,17.6C2,9.1,8.9,2.3,17.3,2.3z"
		/>
	<g>
		<ellipse class="st2" cx="17.3" cy="17.6" rx="12.7" ry="12.7"/>
		<path class="st3" d="M5.7,18.7c0-7,5.7-12.7,12.7-12.7c3.2,0,6.1,1.2,8.4,3.2c-2.3-2.6-5.7-4.3-9.4-4.3c-7,0-12.7,5.7-12.7,12.7
			c0,3.8,1.7,7.2,4.3,9.5C6.9,24.9,5.7,21.9,5.7,18.7z"/>
		<ellipse class="st4" cx="17.3" cy="17.6" rx="12.7" ry="12.7"/>
	</g>
	<g>
		<path class="st5" d="M26.3,20.5c-0.5,0-0.9-0.2-1.2-0.5c-1-1-4.8-4.7-4.8-4.7c0,0-0.3-0.3-0.7-0.3c-0.2,0-0.5,0.1-0.7,0.2
			c-1.1,0.6-2.1,1.1-2.7,1.4c-0.3,0.1-0.5,0.2-0.8,0.2c-0.4,0-0.8-0.2-1.1-0.5c-0.3-0.3-0.4-0.6-0.4-1c0-0.6,0.3-1,0.9-1.4
			c1.4-0.8,4.2-2.4,5.4-3c0.4-0.2,0.6-0.3,0.9-0.3c0.4,0,0.9,0.2,1.5,0.7c1.2,1,2.3,1.9,2.3,1.9c0,0,0.2,0.2,0.5,0.2
			c0.1,0,0.1,0,0.2,0c0.7-0.1,1.6-0.3,2.3-0.5C26,9.5,22.2,7,17.9,7c-4.1,0-7.7,2.2-9.7,5.6L9,12.8c0,0,0,0,0,0
			C9.3,12.9,9.6,13,9.9,13c0.6,0,0.9-0.2,0.9-0.2c0.1-0.1,2.9-1.9,4.4-1.9c1.5,0,2.1,0.8,2.2,0.9c0,0,0,0.1,0,0.2
			c0,0.1,0,0.1-0.1,0.1c0,0-2.1,1.1-2.9,1.7c0,0,0,0,0,0c-0.6,0.4-1,1-1,1.7c0,1.1,0.9,2.1,2.1,2.1c0.2,0,0.6-0.1,1.2-0.4
			c0,0,0,0,0,0c0.5-0.2,1.5-0.8,2.1-1.1c0.7-0.3,1-0.3,1.4,0.2c0.2,0.2,4.5,4.6,4.5,4.6c0.5,0.5,0.4,1.2-0.1,1.7
			c-0.2,0.2-0.6,0.4-0.9,0.4c-0.1,0-0.3-0.1-0.4-0.1c-0.1-0.1-0.2,0-0.2,0.1c0.2,0.4,0.1,0.9-0.2,1.2c-0.2,0.2-0.5,0.3-0.8,0.3
			c-0.2,0-0.4-0.1-0.6-0.2c-0.1-0.1-0.2,0-0.2,0.1c0.1,0.4,0,0.7-0.3,1c-0.2,0.2-0.5,0.3-0.8,0.3c-0.2,0-0.4-0.1-0.6-0.2
			c-0.1-0.1-0.2,0-0.2,0.2c0,0.3-0.1,0.6-0.3,0.8c-0.2,0.2-0.5,0.3-0.8,0.3c-0.3,0-0.6-0.1-0.8-0.3c-0.2-0.2-0.4-0.5-0.5-0.6
			c0,0,0,0,0,0c0,0-0.1-0.1,0-0.2c0.1-0.7-0.1-1.3-0.5-1.8c-0.2-0.2-0.5-0.4-0.9-0.5c-0.1,0-0.1-0.1-0.1-0.1c-0.1-0.4-0.3-0.7-0.5-1
			c-0.2-0.2-0.5-0.4-0.8-0.5c-0.1,0-0.1-0.1-0.1-0.1c-0.1-0.3-0.3-0.6-0.5-0.9c-0.2-0.2-0.5-0.4-0.8-0.5c-0.1,0-0.1-0.1-0.1-0.1
			c-0.1-0.3-0.3-0.6-0.5-0.9c-0.4-0.4-0.9-0.6-1.5-0.6c-0.6,0-1.2,0.2-1.6,0.6c-0.3,0.3-0.5,0.6-0.6,0.9c0,0-0.1,0.1-0.1,0.1
			c0,0-0.1,0-0.2,0c-0.3-0.1-0.7-0.2-0.9-0.3c1,5.2,5.5,9.2,11,9.2c5.6,0,10.2-4.1,11.1-9.5C28.3,20.2,26.5,20.5,26.3,20.5z
			 M15.6,26.8c-0.4,0.4-1,0.6-1.5,0.6c-0.4,0-0.7-0.1-1-0.4c-0.3-0.4-0.3-0.7-0.2-1c0.1-0.2-0.1-0.2-0.2-0.2c-0.1,0-0.2,0-0.3,0
			c-0.3,0-0.6-0.1-0.8-0.4c-0.3-0.4-0.3-0.7-0.2-1c0.1-0.2-0.1-0.2-0.2-0.2c-0.1,0-0.2,0-0.3,0c-0.3,0-0.6-0.1-0.8-0.4
			c-0.3-0.4-0.3-0.7-0.2-1c0-0.2-0.1-0.2-0.2-0.2c-0.1,0-0.2,0-0.3,0c-0.3,0-0.6-0.1-0.8-0.4c-0.6-0.6-0.2-1.7,0.4-2.3
			c0.3-0.3,0.7-0.5,1.1-0.5c0.4,0,0.8,0.1,1,0.4c0.2,0.2,0.4,0.5,0.4,0.9c0,0.2,0.1,0.2,0.2,0.2c0.4,0,0.7,0.2,0.9,0.4
			c0.2,0.2,0.4,0.6,0.4,0.9c0,0.1,0,0.2,0.2,0.2c0.4,0,0.7,0.2,0.9,0.4c0.3,0.3,0.4,0.6,0.4,1c0,0.1,0,0.2,0.2,0.2
			c0.4,0.1,0.7,0.1,1,0.4c0.3,0.3,0.4,0.6,0.4,1C16.1,26.1,15.9,26.5,15.6,26.8z"/>
		<path class="st6" d="M14.7,24.3c-0.1,0-0.1-0.1-0.2-0.2c0-0.4-0.1-0.7-0.4-1c-0.2-0.2-0.6-0.4-0.9-0.4c-0.2,0-0.1-0.1-0.2-0.2
			c0-0.3-0.1-0.7-0.4-0.9c-0.2-0.2-0.6-0.4-0.9-0.4c-0.1,0-0.2,0-0.2-0.2c0-0.3-0.1-0.7-0.4-0.9c-0.3-0.3-0.6-0.4-1-0.4
			c-0.4,0-0.8,0.2-1.1,0.5c-0.6,0.6-1,1.7-0.4,2.3c0.2,0.3,0.5,0.4,0.8,0.4c0.1,0,0.2,0,0.3,0c0.1,0,0.2,0,0.2,0.2
			c-0.1,0.3-0.1,0.6,0.2,1c0.2,0.3,0.5,0.4,0.8,0.4c0.1,0,0.2,0,0.3,0c0.1,0,0.3,0,0.2,0.2c-0.1,0.3-0.1,0.6,0.2,1
			c0.2,0.2,0.5,0.4,0.8,0.4c0.1,0,0.2,0,0.3,0c0.1,0,0.3,0,0.2,0.2c-0.1,0.3-0.1,0.7,0.2,1c0.2,0.2,0.5,0.4,1,0.4
			c0.5,0,1.1-0.2,1.5-0.6c0.3-0.3,0.5-0.7,0.5-1.1c0-0.4-0.1-0.7-0.4-1C15.5,24.4,15.1,24.3,14.7,24.3z"/>
		<path class="st6" d="M7.9,20.6c0,0,0.1-0.1,0.1-0.1c0.1-0.4,0.3-0.7,0.6-0.9c0.4-0.4,1-0.6,1.6-0.6c0.6,0,1.1,0.2,1.5,0.6
			c0.2,0.2,0.4,0.5,0.5,0.9c0,0.1,0.1,0.1,0.1,0.1c0.3,0.1,0.6,0.3,0.8,0.5c0.2,0.2,0.4,0.5,0.5,0.9c0,0.1,0.1,0.1,0.1,0.1
			c0.3,0.1,0.6,0.3,0.8,0.5c0.3,0.3,0.4,0.6,0.5,1c0,0.1,0.1,0.1,0.1,0.1c0.3,0.1,0.6,0.3,0.9,0.5c0.5,0.5,0.7,1.1,0.5,1.8
			c0,0.1,0,0.1,0,0.2c0,0,0,0,0,0c0.1,0.1,0.3,0.4,0.5,0.6c0.2,0.2,0.5,0.3,0.8,0.3c0.3,0,0.6-0.1,0.8-0.3c0.2-0.2,0.3-0.5,0.3-0.8
			c0-0.2,0.2-0.2,0.2-0.2c0.2,0.1,0.4,0.2,0.6,0.2c0.3,0,0.6-0.1,0.8-0.3c0.3-0.3,0.4-0.7,0.3-1c0-0.1,0-0.2,0.2-0.1
			c0.2,0.1,0.4,0.2,0.6,0.2c0.3,0,0.6-0.1,0.8-0.3c0.3-0.3,0.4-0.8,0.2-1.2c0-0.1,0-0.2,0.2-0.1c0.1,0.1,0.3,0.1,0.4,0.1
			c0.3,0,0.7-0.2,0.9-0.4c0.5-0.5,0.5-1.2,0.1-1.7c0,0-4.3-4.4-4.5-4.6c-0.4-0.4-0.8-0.4-1.4-0.2c-0.7,0.3-1.7,0.8-2.1,1.1
			c0,0,0,0,0,0c-0.6,0.3-1,0.4-1.2,0.4c-1.1,0-2.1-0.9-2.1-2.1c0-0.7,0.4-1.4,1-1.7c0,0,0,0,0,0c0.9-0.6,2.9-1.7,2.9-1.7
			c0,0,0.1-0.1,0.1-0.1c0-0.1,0-0.1,0-0.2c0,0-0.7-0.9-2.2-0.9c-1.4,0-4.2,1.8-4.4,1.9c0,0-0.4,0.2-0.9,0.2c-0.3,0-0.6-0.1-0.9-0.2
			c0,0,0,0,0,0l-0.7-0.3c-1,1.7-1.5,3.6-1.5,5.7c0,0.7,0.1,1.4,0.2,2c0.2,0.1,0.6,0.2,0.9,0.3C7.8,20.6,7.9,20.6,7.9,20.6z"/>
		<path class="st6" d="M25.4,13.6c-0.3,0-0.5-0.2-0.5-0.2c0,0-1.1-0.9-2.3-1.9c-0.6-0.5-1-0.7-1.5-0.7c-0.3,0-0.6,0.1-0.9,0.3
			c-1.1,0.6-4,2.2-5.4,3c-0.6,0.3-0.9,0.8-0.9,1.4c0,0.3,0.2,0.7,0.4,1c0.3,0.3,0.7,0.5,1.1,0.5c0.3,0,0.5-0.1,0.8-0.2
			c0.5-0.3,1.6-0.8,2.7-1.4c0.3-0.1,0.5-0.2,0.7-0.2c0.5,0,0.7,0.2,0.7,0.3c0,0,3.8,3.7,4.8,4.7c0.3,0.3,0.7,0.5,1.2,0.5
			c0.2,0,2-0.4,2.7-0.5c0.1-0.6,0.2-1.2,0.2-1.8c0-1.9-0.5-3.6-1.3-5.2c-0.7,0.2-1.6,0.3-2.3,0.5C25.5,13.6,25.4,13.6,25.4,13.6z"/>
	</g>
</g>
<g id="moneda">
	<path class="st0" d="M41.7,4c14.9,0,27,12.1,27,27.1c0,15-12.1,27.1-27,27.1c-14.9,0-27-12.1-27-27.1C14.7,16.1,26.8,4,41.7,4z"/>
	<path class="st1" d="M39.7,2c14.9,0,27,12.1,27,27.1c0,15-12.1,27.1-27,27.1c-14.9,0-27-12.1-27-27.1C12.7,14.1,24.8,2,39.7,2z"/>
	<g>
		<ellipse class="st2" cx="39.7" cy="29.1" rx="22.3" ry="22.4"/>
		<path class="st3" d="M19.2,30.9c0-12.4,10-22.4,22.3-22.4c5.7,0,10.8,2.1,14.8,5.6c-4.1-4.6-10-7.5-16.6-7.5
			c-12.3,0-22.3,10-22.3,22.4c0,6.7,2.9,12.7,7.5,16.8C21.4,41.9,19.2,36.7,19.2,30.9z"/>
		<ellipse class="st4" cx="39.7" cy="29.1" rx="22.3" ry="22.4"/>
	</g>
	<g>
		<path class="st5" d="M55.6,34.2c-0.9,0-1.6-0.3-2.2-0.8c-1.8-1.8-8.4-8.3-8.4-8.3c0,0-0.5-0.4-1.3-0.4c-0.4,0-0.8,0.1-1.3,0.4
			c-1.9,1-3.7,2-4.7,2.5c-0.4,0.2-0.9,0.4-1.4,0.4c-0.7,0-1.4-0.3-1.9-0.8c-0.5-0.5-0.8-1.1-0.8-1.7c0-1,0.6-1.8,1.7-2.4
			c2.4-1.5,7.4-4.3,9.4-5.3c0.6-0.3,1.1-0.5,1.6-0.5c0.8,0,1.6,0.4,2.6,1.3c2.1,1.8,4,3.4,4,3.4c0,0,0.4,0.3,0.9,0.3
			c0.1,0,0.3,0,0.4,0c1.2-0.3,2.7-0.6,4-0.9c-3.3-6.4-9.9-10.7-17.5-10.7c-7.3,0-13.6,4-17,9.8l1.3,0.4c0,0,0,0,0,0
			c0.5,0.2,1.1,0.3,1.6,0.3c1,0,1.6-0.4,1.6-0.4c0.2-0.1,5.2-3.4,7.7-3.4c2.6,0,3.7,1.5,3.8,1.5c0.1,0.1,0.1,0.2,0.1,0.3
			c0,0.1-0.1,0.2-0.2,0.2c0,0-3.6,1.9-5.2,3c0,0,0,0,0,0c-1.1,0.7-1.7,1.8-1.7,3.1c0,2,1.6,3.6,3.6,3.6c0.4,0,1.1-0.2,2.2-0.7
			c0,0,0,0,0,0c0.8-0.4,2.6-1.4,3.8-1.9c1.2-0.5,1.8-0.5,2.5,0.3c0.3,0.3,8,8.1,8,8.1c0.8,0.8,0.6,2.2-0.2,3
			c-0.4,0.4-1.1,0.7-1.6,0.7c-0.3,0-0.5-0.1-0.7-0.2c-0.3-0.1-0.4,0.1-0.3,0.2c0.4,0.7,0.3,1.6-0.3,2.2c-0.4,0.4-0.9,0.6-1.4,0.6
			c-0.4,0-0.8-0.1-1.1-0.3c-0.2-0.1-0.4,0.1-0.3,0.3c0.1,0.7,0,1.3-0.5,1.8c-0.4,0.4-0.9,0.6-1.5,0.6c-0.4,0-0.7-0.1-1-0.3
			c-0.2-0.1-0.4,0-0.4,0.3c0,0.5-0.2,1.1-0.6,1.5c-0.4,0.4-0.9,0.6-1.5,0.6c-0.6,0-1.1-0.2-1.5-0.6c-0.3-0.3-0.8-0.8-0.9-1
			c0,0,0,0,0,0c-0.1-0.1-0.1-0.2-0.1-0.3c0.2-1.2-0.2-2.4-1-3.2c-0.4-0.4-1-0.8-1.5-0.9c-0.1,0-0.2-0.1-0.2-0.2
			c-0.1-0.6-0.5-1.2-0.9-1.7c-0.4-0.4-0.9-0.7-1.5-0.9c-0.1,0-0.2-0.1-0.2-0.2c-0.2-0.6-0.4-1.1-0.9-1.5c-0.4-0.4-0.9-0.7-1.5-0.9
			c-0.1,0-0.2-0.1-0.2-0.2c-0.2-0.6-0.4-1.1-0.9-1.5c-0.7-0.7-1.6-1.1-2.7-1.1c-1.1,0-2.1,0.4-2.9,1.1c-0.5,0.4-0.8,1-1,1.6
			c0,0.1-0.1,0.2-0.2,0.2c-0.1,0-0.2,0-0.3,0c-0.6-0.2-1.2-0.4-1.6-0.6C23,43,31.1,50,40.7,50c9.8,0,18-7.2,19.5-16.7
			C59.1,33.5,56,34.2,55.6,34.2z M36.7,45.3C36,45.9,35,46.3,34,46.3c-0.7,0-1.3-0.2-1.7-0.7c-0.6-0.6-0.6-1.3-0.4-1.8
			c0.1-0.4-0.2-0.4-0.3-0.4c-0.2,0-0.3,0-0.5,0c-0.6,0-1.1-0.2-1.5-0.7c-0.5-0.6-0.5-1.2-0.4-1.7c0.1-0.4-0.2-0.3-0.4-0.3
			c-0.1,0-0.3,0-0.4,0c-0.6,0-1-0.2-1.4-0.7c-0.5-0.7-0.5-1.3-0.4-1.8c0.1-0.3-0.1-0.3-0.3-0.3c-0.2,0-0.3,0.1-0.5,0.1
			c-0.6,0-1-0.2-1.4-0.7c-1-1.1-0.4-3,0.8-4.1c0.6-0.5,1.3-0.8,2-0.8c0.7,0,1.3,0.3,1.8,0.7c0.4,0.4,0.6,1,0.6,1.6
			c0,0.3,0.1,0.4,0.3,0.4c0.6,0,1.2,0.3,1.6,0.7c0.4,0.4,0.6,1,0.6,1.6c0,0.2,0,0.4,0.3,0.4c0.6,0,1.2,0.3,1.7,0.7
			c0.5,0.5,0.6,1.1,0.7,1.8c0,0.2,0.1,0.3,0.3,0.3c0.7,0.1,1.3,0.3,1.8,0.7c0.5,0.5,0.7,1.1,0.7,1.8C37.6,44,37.3,44.7,36.7,45.3z"
			/>
		<path class="st6" d="M35.2,40.8c-0.2,0-0.3-0.1-0.3-0.3c0-0.7-0.2-1.3-0.7-1.8c-0.4-0.4-1-0.7-1.7-0.7c-0.3,0-0.3-0.2-0.3-0.4
			c0-0.6-0.2-1.2-0.6-1.6c-0.4-0.4-1-0.7-1.6-0.7c-0.2,0-0.3-0.1-0.3-0.4c0-0.6-0.2-1.1-0.6-1.6c-0.5-0.5-1.1-0.7-1.8-0.7
			c-0.7,0-1.5,0.3-2,0.8c-1.1,1.1-1.7,3-0.8,4.1c0.4,0.5,0.9,0.7,1.4,0.7c0.2,0,0.3,0,0.5-0.1c0.1,0,0.4,0,0.3,0.3
			c-0.1,0.5-0.2,1.1,0.4,1.8c0.4,0.5,0.8,0.7,1.4,0.7c0.2,0,0.3,0,0.4,0c0.2,0,0.5-0.1,0.4,0.3c-0.1,0.5-0.2,1.1,0.4,1.7
			c0.4,0.4,0.9,0.7,1.5,0.7c0.2,0,0.3,0,0.5,0c0.2,0,0.5,0,0.3,0.4c-0.2,0.6-0.2,1.2,0.4,1.8c0.4,0.4,1,0.7,1.7,0.7
			c1,0,2-0.4,2.7-1.1c0.6-0.5,0.9-1.3,0.9-2c0-0.7-0.2-1.3-0.7-1.8C36.5,41,35.8,40.9,35.2,40.8z"/>
		<path class="st6" d="M23.2,34.3c0.1,0,0.1-0.1,0.2-0.2c0.2-0.6,0.6-1.2,1-1.6c0.7-0.7,1.8-1.1,2.9-1.1c1,0,2,0.4,2.7,1.1
			c0.4,0.4,0.7,1,0.9,1.5c0,0.1,0.1,0.2,0.2,0.2c0.6,0.2,1.1,0.5,1.5,0.9c0.4,0.4,0.7,0.9,0.9,1.5c0,0.1,0.1,0.2,0.2,0.2
			c0.6,0.2,1.1,0.5,1.5,0.9c0.5,0.5,0.8,1,0.9,1.7c0,0.1,0.1,0.2,0.2,0.2c0.6,0.2,1.1,0.5,1.5,0.9c0.8,0.8,1.1,2,1,3.2
			c0,0.1,0,0.2,0.1,0.3c0,0,0,0,0,0c0.1,0.2,0.6,0.7,0.9,1c0.4,0.4,0.9,0.6,1.5,0.6c0.6,0,1.1-0.2,1.5-0.6c0.4-0.4,0.6-0.9,0.6-1.5
			c0-0.3,0.3-0.4,0.4-0.3c0.3,0.2,0.7,0.3,1,0.3c0.6,0,1.1-0.2,1.5-0.6c0.5-0.5,0.7-1.2,0.5-1.8c0-0.2,0.1-0.4,0.3-0.3
			c0.3,0.2,0.7,0.3,1.1,0.3c0.5,0,1.1-0.2,1.4-0.6c0.6-0.6,0.7-1.4,0.3-2.2c-0.1-0.2,0-0.4,0.3-0.2c0.2,0.1,0.5,0.2,0.7,0.2
			c0.6,0,1.2-0.3,1.6-0.7c0.8-0.8,1-2.2,0.2-3c0,0-7.6-7.8-8-8.1c-0.7-0.7-1.4-0.8-2.5-0.3c-1.2,0.5-3,1.5-3.8,1.9c0,0,0,0,0,0
			c-1,0.5-1.8,0.7-2.2,0.7c-2,0-3.6-1.6-3.6-3.6c0-1.3,0.6-2.4,1.7-3.1c0,0,0,0,0,0c1.5-1.1,5.1-3,5.2-3c0.1,0,0.2-0.1,0.2-0.2
			c0-0.1,0-0.2-0.1-0.3c0-0.1-1.2-1.5-3.8-1.5c-2.5,0-7.5,3.2-7.7,3.4c0,0-0.6,0.4-1.6,0.4c-0.5,0-1.1-0.1-1.6-0.3c0,0,0,0,0,0
			l-1.3-0.4c-1.7,2.9-2.7,6.3-2.7,10c0,1.2,0.1,2.4,0.3,3.6c0.4,0.1,1,0.3,1.6,0.6C23,34.4,23.1,34.4,23.2,34.3z"/>
		<path class="st6" d="M53.9,22c-0.6,0-0.9-0.3-0.9-0.3c0,0-1.9-1.7-4-3.4c-1-0.9-1.8-1.3-2.6-1.3c-0.5,0-1,0.1-1.6,0.5
			c-2,1.1-7,3.9-9.4,5.3c-1.1,0.6-1.7,1.4-1.7,2.4c0,0.6,0.3,1.2,0.8,1.7c0.5,0.5,1.2,0.8,1.9,0.8c0.5,0,0.9-0.1,1.4-0.4
			c1-0.5,2.8-1.5,4.7-2.5c0.4-0.2,0.9-0.4,1.3-0.4c0.8,0,1.3,0.4,1.3,0.4c0.1,0.1,6.6,6.6,8.4,8.3c0.6,0.5,1.3,0.8,2.2,0.8
			c0.4,0,3.6-0.7,4.7-0.9c0.2-1,0.3-2.1,0.3-3.1c0-3.3-0.8-6.4-2.2-9.1c-1.3,0.3-2.8,0.6-4,0.9C54.2,21.9,54,22,53.9,22z"/>
	</g>
</g>
<g>
	<g>
		<path class="st7" d="M62,24.9c0-2.1,0.9-5.4,1.7-6.1c0.7-0.7,4-1.7,6.1-1.7c-2.1,0-5.3-0.8-6.1-1.7c-0.9-0.9-1.7-4-1.7-6.1
			c0,2.2-0.8,5.3-1.8,6.2c-1,1-3.9,1.6-6,1.6c2.1,0,5.3,0.8,6.1,1.7C61.2,19.6,62,22.8,62,24.9z"/>
	</g>
	<g>
		<path class="st7" d="M67.2,26.1c0-0.8,0.3-1.9,0.6-2.2c0.2-0.2,1.4-0.6,2.2-0.6c-0.8,0-1.9-0.3-2.2-0.6c-0.3-0.3-0.6-1.4-0.6-2.2
			c0,0.8-0.3,1.9-0.6,2.2c-0.3,0.3-1.4,0.6-2.1,0.6c0.8,0,1.9,0.3,2.2,0.6C66.9,24.3,67.2,25.4,67.2,26.1z"/>
	</g>
	<g>
		<path class="st7" d="M57.1,32c0-1.1,0.5-2.7,0.8-3c0.3-0.3,2-0.8,3-0.8c-1.1,0-2.6-0.4-3-0.8c-0.4-0.4-0.8-2-0.8-3
			c0,1.1-0.4,2.6-0.9,3.1c-0.5,0.5-1.9,0.8-3,0.8c1.1,0,2.6,0.4,3,0.8C56.7,29.4,57.1,30.9,57.1,32z"/>
	</g>
</g>
</svg>
