<?xml version="1.0" encoding="utf-8"?>
<!-- Generator: Adobe Illustrator 21.1.0, SVG Export Plug-In . SVG Version: 6.00 Build 0)  -->
<svg version="1.1" id="Layer_1" xmlns="http://www.w3.org/2000/svg" xmlns:xlink="http://www.w3.org/1999/xlink" x="0px" y="0px"
	 viewBox="0 0 72 64" style="enable-background:new 0 0 72 64;" xml:space="preserve">
<style type="text/css">
	.st0{fill:none;stroke:#FDD202;stroke-width:2;stroke-miterlimit:10;}
	.st1{fill:none;}
	.st2{fill:#FDD202;}
</style>
<g id="moneda">
	<g>
		<ellipse class="st0" cx="36.7" cy="32.1" rx="24.1" ry="24.2"/>
	</g>
	<g>
		<path class="st1" d="M51.6,36.2c-0.9,0-1.6-0.3-2.2-0.8c-1.8-1.8-8.4-8.3-8.4-8.3s-0.5-0.4-1.3-0.4c-0.4,0-0.8,0.1-1.3,0.4
			c-1.9,1-3.7,2-4.7,2.5c-0.4,0.2-0.9,0.4-1.4,0.4c-0.7,0-1.4-0.3-1.9-0.8s-0.8-1.1-0.8-1.7c0-1,0.6-1.8,1.7-2.4
			c2.4-1.5,7.4-4.3,9.4-5.3c0.6-0.3,1.1-0.5,1.6-0.5c0.8,0,1.6,0.4,2.6,1.3c2.1,1.8,4,3.4,4,3.4s0.4,0.3,0.9,0.3c0.1,0,0.3,0,0.4,0
			c1.2-0.3,2.7-0.6,4-0.9c-3.3-6.4-9.9-10.7-17.5-10.7c-7.3,0-13.6,4-17,9.8l1.3,0.4l0,0c0.5,0.2,1.1,0.3,1.6,0.3
			c1,0,1.6-0.4,1.6-0.4c0.2-0.1,5.2-3.4,7.7-3.4c2.6,0,3.7,1.5,3.8,1.5c0.1,0.1,0.1,0.2,0.1,0.3c0,0.1-0.1,0.2-0.2,0.2
			c0,0-3.6,1.9-5.2,3l0,0c-1.1,0.7-1.7,1.8-1.7,3.1c0,2,1.6,3.6,3.6,3.6c0.4,0,1.1-0.2,2.2-0.7l0,0c0.8-0.4,2.6-1.4,3.8-1.9
			s1.8-0.5,2.5,0.3c0.3,0.3,8,8.1,8,8.1c0.8,0.8,0.6,2.2-0.2,3c-0.4,0.4-1.1,0.7-1.6,0.7c-0.3,0-0.5-0.1-0.7-0.2
			c-0.3-0.1-0.4,0.1-0.3,0.2c0.4,0.7,0.3,1.6-0.3,2.2c-0.4,0.4-0.9,0.6-1.4,0.6c-0.4,0-0.8-0.1-1.1-0.3c-0.2-0.1-0.4,0.1-0.3,0.3
			c0.1,0.7,0,1.3-0.5,1.8c-0.4,0.4-0.9,0.6-1.5,0.6c-0.4,0-0.7-0.1-1-0.3c-0.2-0.1-0.4,0-0.4,0.3c0,0.5-0.2,1.1-0.6,1.5
			c-0.4,0.4-0.9,0.6-1.5,0.6s-1.1-0.2-1.5-0.6c-0.3-0.3-0.8-0.8-0.9-1l0,0c-0.1-0.1-0.1-0.2-0.1-0.3c0.2-1.2-0.2-2.4-1-3.2
			c-0.4-0.4-1-0.8-1.5-0.9c-0.1,0-0.2-0.1-0.2-0.2c-0.1-0.6-0.5-1.2-0.9-1.7c-0.4-0.4-0.9-0.7-1.5-0.9c-0.1,0-0.2-0.1-0.2-0.2
			c-0.2-0.6-0.4-1.1-0.9-1.5c-0.4-0.4-0.9-0.7-1.5-0.9c-0.1,0-0.2-0.1-0.2-0.2c-0.2-0.6-0.4-1.1-0.9-1.5c-0.7-0.7-1.6-1.1-2.7-1.1
			s-2.1,0.4-2.9,1.1c-0.5,0.4-0.8,1-1,1.6c0,0.1-0.1,0.2-0.2,0.2s-0.2,0-0.3,0c-0.6-0.2-1.2-0.4-1.6-0.6c1.6,9,9.7,16,19.3,16
			c9.8,0,18-7.2,19.5-16.7C55.1,35.5,52,36.2,51.6,36.2z M32.7,47.3c-0.7,0.6-1.7,1-2.7,1c-0.7,0-1.3-0.2-1.7-0.7
			c-0.6-0.6-0.6-1.3-0.4-1.8c0.1-0.4-0.2-0.4-0.3-0.4c-0.2,0-0.3,0-0.5,0c-0.6,0-1.1-0.2-1.5-0.7c-0.5-0.6-0.5-1.2-0.4-1.7
			c0.1-0.4-0.2-0.3-0.4-0.3c-0.1,0-0.3,0-0.4,0c-0.6,0-1-0.2-1.4-0.7c-0.5-0.7-0.5-1.3-0.4-1.8c0.1-0.3-0.1-0.3-0.3-0.3
			c-0.2,0-0.3,0.1-0.5,0.1c-0.6,0-1-0.2-1.4-0.7c-1-1.1-0.4-3,0.8-4.1c0.6-0.5,1.3-0.8,2-0.8s1.3,0.3,1.8,0.7c0.4,0.4,0.6,1,0.6,1.6
			c0,0.3,0.1,0.4,0.3,0.4c0.6,0,1.2,0.3,1.6,0.7s0.6,1,0.6,1.6c0,0.2,0,0.4,0.3,0.4c0.6,0,1.2,0.3,1.7,0.7c0.5,0.5,0.6,1.1,0.7,1.8
			c0,0.2,0.1,0.3,0.3,0.3c0.7,0.1,1.3,0.3,1.8,0.7c0.5,0.5,0.7,1.1,0.7,1.8C33.6,46,33.3,46.7,32.7,47.3z"/>
		<path class="st2" d="M31.2,42.8c-0.2,0-0.3-0.1-0.3-0.3c0-0.7-0.2-1.3-0.7-1.8c-0.4-0.4-1-0.7-1.7-0.7c-0.3,0-0.3-0.2-0.3-0.4
			c0-0.6-0.2-1.2-0.6-1.6c-0.4-0.4-1-0.7-1.6-0.7c-0.2,0-0.3-0.1-0.3-0.4c0-0.6-0.2-1.1-0.6-1.6c-0.5-0.5-1.1-0.7-1.8-0.7
			c-0.7,0-1.5,0.3-2,0.8c-1.1,1.1-1.7,3-0.8,4.1c0.4,0.5,0.9,0.7,1.4,0.7c0.2,0,0.3,0,0.5-0.1c0.1,0,0.4,0,0.3,0.3
			c-0.1,0.5-0.2,1.1,0.4,1.8c0.4,0.5,0.8,0.7,1.4,0.7c0.2,0,0.3,0,0.4,0c0.2,0,0.5-0.1,0.4,0.3c-0.1,0.5-0.2,1.1,0.4,1.7
			c0.4,0.4,0.9,0.7,1.5,0.7c0.2,0,0.3,0,0.5,0s0.5,0,0.3,0.4c-0.2,0.6-0.2,1.2,0.4,1.8c0.4,0.4,1,0.7,1.7,0.7c1,0,2-0.4,2.7-1.1
			c0.6-0.5,0.9-1.3,0.9-2s-0.2-1.3-0.7-1.8C32.5,43,31.8,42.9,31.2,42.8z"/>
		<path class="st2" d="M19.2,36.3c0.1,0,0.1-0.1,0.2-0.2c0.2-0.6,0.6-1.2,1-1.6c0.7-0.7,1.8-1.1,2.9-1.1c1,0,2,0.4,2.7,1.1
			c0.4,0.4,0.7,1,0.9,1.5c0,0.1,0.1,0.2,0.2,0.2c0.6,0.2,1.1,0.5,1.5,0.9s0.7,0.9,0.9,1.5c0,0.1,0.1,0.2,0.2,0.2
			c0.6,0.2,1.1,0.5,1.5,0.9c0.5,0.5,0.8,1,0.9,1.7c0,0.1,0.1,0.2,0.2,0.2c0.6,0.2,1.1,0.5,1.5,0.9c0.8,0.8,1.1,2,1,3.2
			c0,0.1,0,0.2,0.1,0.3l0,0c0.1,0.2,0.6,0.7,0.9,1c0.4,0.4,0.9,0.6,1.5,0.6s1.1-0.2,1.5-0.6c0.4-0.4,0.6-0.9,0.6-1.5
			c0-0.3,0.3-0.4,0.4-0.3c0.3,0.2,0.7,0.3,1,0.3c0.6,0,1.1-0.2,1.5-0.6c0.5-0.5,0.7-1.2,0.5-1.8c0-0.2,0.1-0.4,0.3-0.3
			c0.3,0.2,0.7,0.3,1.1,0.3c0.5,0,1.1-0.2,1.4-0.6c0.6-0.6,0.7-1.4,0.3-2.2c-0.1-0.2,0-0.4,0.3-0.2c0.2,0.1,0.5,0.2,0.7,0.2
			c0.6,0,1.2-0.3,1.6-0.7c0.8-0.8,1-2.2,0.2-3c0,0-7.6-7.8-8-8.1c-0.7-0.7-1.4-0.8-2.5-0.3c-1.2,0.5-3,1.5-3.8,1.9l0,0
			c-1,0.5-1.8,0.7-2.2,0.7c-2,0-3.6-1.6-3.6-3.6c0-1.3,0.6-2.4,1.7-3.1l0,0c1.5-1.1,5.1-3,5.2-3c0.1,0,0.2-0.1,0.2-0.2
			s0-0.2-0.1-0.3c0-0.1-1.2-1.5-3.8-1.5c-2.5,0-7.5,3.2-7.7,3.4c0,0-0.6,0.4-1.6,0.4c-0.5,0-1.1-0.1-1.6-0.3l0,0l-1.3-0.4
			c-1.7,2.9-2.7,6.3-2.7,10c0,1.2,0.1,2.4,0.3,3.6c0.4,0.1,1,0.3,1.6,0.6C19,36.4,19.1,36.4,19.2,36.3z"/>
		<path class="st2" d="M49.9,24c-0.6,0-0.9-0.3-0.9-0.3s-1.9-1.7-4-3.4c-1-0.9-1.8-1.3-2.6-1.3c-0.5,0-1,0.1-1.6,0.5
			c-2,1.1-7,3.9-9.4,5.3c-1.1,0.6-1.7,1.4-1.7,2.4c0,0.6,0.3,1.2,0.8,1.7s1.2,0.8,1.9,0.8c0.5,0,0.9-0.1,1.4-0.4
			c1-0.5,2.8-1.5,4.7-2.5c0.4-0.2,0.9-0.4,1.3-0.4c0.8,0,1.3,0.4,1.3,0.4c0.1,0.1,6.6,6.6,8.4,8.3c0.6,0.5,1.3,0.8,2.2,0.8
			c0.4,0,3.6-0.7,4.7-0.9c0.2-1,0.3-2.1,0.3-3.1c0-3.3-0.8-6.4-2.2-9.1c-1.3,0.3-2.8,0.6-4,0.9C50.2,23.9,50,24,49.9,24z"/>
	</g>
</g>
</svg>
