<?xml version="1.0" encoding="utf-8"?>
<!-- Generator: Adobe Illustrator 22.0.1, SVG Export Plug-In . SVG Version: 6.00 Build 0)  -->
<svg version="1.1" id="hint" xmlns="http://www.w3.org/2000/svg" xmlns:xlink="http://www.w3.org/1999/xlink" x="0px" y="0px"
	 viewBox="0 0 281.3 314" style="enable-background:new 0 0 281.3 314;" xml:space="preserve">
<style type="text/css">
	.st0{fill:#FFFFFF;}
	.st1{fill:none;stroke:#FFFFFF;stroke-width:4;}
	.st2{fill:none;stroke:#FFFFFF;stroke-width:5;}
	.st3{fill:none;stroke:#FFFFFF;stroke-width:5;stroke-miterlimit:10;}
</style>
<g id="Layer_3">
	<path class="st0" d="M123.7,70c0.4,0.2,0.8,0.3,1.2,0.2c0.4-0.1,0.8-0.4,1-0.7c1.1-2.3,2.2-4.6,3.3-6.9c0.8-1.7,1.7-3.3,2.5-4.9
		c0.3-0.6,0.7-1.2,1-1.8c0.4-0.8,0.8-1.6,1.3-2.3l1.8-2.8c0.2-0.3,0.3-0.5,0.5-0.7l1.2-1.7c0.1-0.2,0.3-0.4,0.4-0.5l1.9-2.5v0.1
		l2.1-2.4c0.6-0.7,1.3-1.3,1.9-2c1.3-1.2,2.6-2.4,4.1-3.5c0.6-0.5,1.3-1,2-1.5c0.8-0.6,1.7-1.1,2.7-1.5c0.4-0.2,0.7-0.6,0.9-1.1
		c0.1-0.5,0.1-1-0.2-1.5c-0.3-0.4-0.7-0.7-1.1-0.9c-0.2,0-0.3-0.1-0.5-0.1c-0.3,0-0.7,0.1-1,0.3c-0.4,0.2-0.9,0.5-1.3,0.8
		s-0.9,0.6-1.3,0.9c-0.9,0.6-1.7,1.3-2.5,2c-0.6,0.5-1.2,1-1.8,1.5s-1.4,1.2-2,1.8l-1.3,1.3c-0.2,0.2-0.5,0.5-0.7,0.7l-2.2,2.6
		c-0.6,0.7-1.2,1.6-1.8,2.3s-1,1.3-1.4,2s-1,1.4-1.4,2.1l-1.8,2.9c-0.1,0.2-0.3,0.5-0.4,0.7l-0.9,1.7c-0.3,0.6-0.7,1.2-1,1.8
		c-0.8,1.6-1.7,3.2-2.5,4.8c-1.1,2.3-2.2,4.5-3.2,6.8c-0.2,0.4-0.3,0.8-0.2,1.2C123.1,69.5,123.3,69.8,123.7,70z"/>
	<path class="st0" d="M224.8,110.1c-0.8,0.5-1.6,1-2.4,1.5c-2.2,1.2-4.4,2.4-6.7,3.6c-1.1,0.6-1.4,2-0.8,3.1c0.3,0.5,0.8,0.9,1.3,1
		c0.6,0.1,1.2,0.1,1.7-0.2c1.9-1,3.8-2,5.6-3c0.8-0.5,1.6-0.9,2.4-1.4c0.8-0.5,1.6-1,2.4-1.5c0.4-0.2,0.7-0.5,1-0.7s0.9-0.7,1.4-1
		c0.7-0.6,1.4-1.2,2-1.8c1.3-1.3,2.5-2.7,3.7-4.1c0.4-0.5,0.8-1,1.1-1.5c0.3-0.6,0.6-1.2,0.9-1.8c0.1-0.4,0.1-0.7,0-1.1
		c-0.2-0.5-0.5-1-1-1.3c-0.8-0.5-1.9-0.3-2.5,0.3c-0.6,0.7-1.2,1.3-1.8,2s-1.3,1.5-1.9,2.3c-1.3,1.4-2.6,2.8-4.1,4l-0.9,0.7
		C225.7,109.5,225.2,109.8,224.8,110.1z"/>
	<path class="st0" d="M113.5,84.1c0,0.9,0.1,1.7,0.1,2.6c0.1,1.2,0.2,2.3,0.3,3.5c0.1,1,0.3,2,0.4,3c0.1,0.8,0.2,1.6,0.4,2.4
		c0.2,0.8,0.3,1.8,0.5,2.7c0.2,0.9,0.4,1.9,0.6,2.9c0.3,0.9,0.5,2,0.8,3c0.3,1,0.6,1.9,0.9,2.9c0.3,1,0.6,1.7,1,2.6s0.8,1.9,1.2,2.8
		c0.4,0.9,0.7,1.5,1,2.3c0.3,0.6,0.6,1.1,0.9,1.7c0.1,0.3,0.3,0.6,0.4,0.8l0.9,1.4c0.2,0.4,0.4,0.7,0.7,1.1l1.8,2.6
		c0.3,0.3,0.5,0.7,0.8,1l1.2,1.6c0.6,0.7,1.2,1.4,1.8,2c2.1,2.2,4.2,4.2,6.5,6.1c1.1,1,2.3,2,3.4,3c0.7,0.6,1.4,1.2,2.1,1.7
		c-0.3,0.4-0.4,0.9-0.4,1.3c0.1,1.3,0.1,2.7,0.2,4c0,0.9,0.1,1.7,0.2,2.6c0.1,1.1,0.3,2.2,0.5,3.3s0.4,1.9,0.6,2.9s0.5,1.7,0.7,2.6
		s0.5,1.6,0.7,2.4c0.5,1.8,1.1,3.5,1.5,5.3s1,3.8,1.7,5.6c0.2,0.5,0.4,0.9,0.5,1.4c-0.1,0.4-0.2,0.8-0.3,1.1s-0.2,0.6-0.2,0.9
		s-0.1,0.5-0.2,0.8c-0.1,0.4-0.1,0.7-0.1,1.1c0,0.1-0.1,0.3-0.1,0.4c0,0.2,0,0.4,0,0.6c0,0.3,0.1,0.5,0.1,0.8c0.1,0.5,0.4,1,0.8,1.4
		c0.8,0.8,1.9,1.1,3,0.8c0.6-0.1,1.2-0.4,1.6-0.9c0.4-0.4,0.6-0.8,0.8-1.3c0.2-0.1,0.3-0.1,0.5-0.2c0.6-0.4,1.1-0.9,1.3-1.6
		c0.2-0.7,0.1-1.5-0.3-2.1l-0.2-0.5c0.1-0.3,0.1-0.5,0.2-0.8c0.5-1.8,1-3.5,1.7-5.2s1.2-3.5,1.9-5.2c0.7-1.9,1.5-3.8,2.2-5.7
		c0.4-1.1,0.9-2.2,1.4-3.4l1.1-2.4c0.3-0.8,0.7-1.5,1.1-2.3s0.8-1.5,1.2-2.2c0.6-1.2,1.3-2.3,2.1-3.5c0.3-0.4,0.7-0.8,1-1.1
		c0.2-0.1,0.4-0.2,0.6-0.3c0.4-0.1,0.8-0.2,1.1-0.3c1.4-0.1,2.9-0.2,4.4-0.3c1.8-0.1,3.5-0.3,5.2-0.6s3.2-0.4,4.8-0.7
		c1.4-0.3,2.9-0.5,4.4-0.7c1.6-0.2,3.3-0.4,4.9-0.5c1.8-0.1,3.6-0.2,5.4-0.3c1.2-0.1,2.4-0.3,3.6-0.4c0.9-0.1,1.8-0.2,2.6-0.4
		c1.8-0.4,3.5-0.8,5.3-1.3s3.6-1,5.3-1.7c1.9-0.7,3.8-1.5,5.6-2.5c3.5-1.9,6.8-4.1,9.9-6.5c0.8-0.7,1.6-1.3,2.4-2s1.3-1.2,1.9-1.8
		c0.3-0.3,0.6-0.6,0.9-0.9s0.6-0.6,0.9-0.9c0.8-0.9,1.5-1.8,2.3-2.8c0.6-0.8,1.2-1.6,1.8-2.4s1.1-1.6,1.6-2.5
		c0.9-1.5,1.8-3.1,2.6-4.7c0.4-0.7,0.6-1.4,0.9-2.2c0.2-0.6,0.4-1.1,0.6-1.7s0.4-1.3,0.6-2c0.3-0.9,0.5-1.9,0.7-2.8
		c0.4-1.9,0.8-3.7,1-5.6c0.2-1.1,0.3-2.3,0.4-3.4c0-0.4,0-0.8,0.1-1.2c0.1-0.4,0.1-0.9,0.1-1.3c0-0.9,0-1.8,0-2.7s-0.1-1.9-0.1-2.8
		c-0.3-4-0.8-7.9-1.4-11.8c-0.3-1.8-0.5-3.6-0.9-5.4c-0.4-2-0.7-4-1.1-6c-0.4-1.8-0.8-3.6-1.2-5.4s-1.1-3.6-1.6-5.4
		c-0.7-2-1.5-4-2.4-5.9c-0.4-0.9-0.9-1.7-1.3-2.5s-0.9-1.5-1.3-2.2c-0.2-0.4-0.5-0.8-0.8-1.2s-0.4-0.7-0.7-1c-0.7-1-1.5-2-2.3-2.9
		c-0.6-0.8-1.3-1.5-1.9-2.3s-1.3-1.3-1.9-2s-1.3-1.2-1.9-1.8s-1.3-1.1-1.9-1.6c-1.6-1.3-3.3-2.6-4.9-3.9c-2.1-1.6-4.3-3.1-6.7-4.3
		c-2.1-1-4.3-1.8-6.5-2.3c-1.3-0.3-2.6-0.6-3.9-0.8c-1.4-0.2-2.8-0.4-4.2-0.4h-1.6h-2.8c-1.8,0.1-3.6,0.1-5.3,0.2
		c-2.1,0.1-4.1,0.3-6.2,0.4c-0.9,0.1-1.8,0.2-2.7,0.3c-1.1,0.1-2.1,0.3-3.1,0.4c-0.9,0.1-1.7,0.2-2.5,0.4l-3.2,0.6
		c-1,0.2-1.9,0.4-2.9,0.7s-1.6,0.4-2.5,0.6c-0.8,0.2-1.5,0.4-2.3,0.7l-1.8,0.6c-0.3,0.1-0.6,0.2-0.9,0.3l-3,1.3c-1,0.4-2,1-3,1.5
		c-0.7,0.4-1.4,0.7-2.1,1.1s-1.6,0.8-2.4,1.3l-2.8,1.8c-0.8,0.5-1.6,1.1-2.3,1.7c-3.2,2.4-6.2,4.9-9.1,7.6c-0.6,0.6-1.2,1.2-1.9,1.8
		s-1.1,1.1-1.7,1.7s-1.3,1.3-1.9,2l-2.2,2.4c-0.6,0.7-1.3,1.5-1.9,2.2s-1.2,1.5-1.8,2.3c-1.1,1.5-2.3,3-3.3,4.5
		c-0.6,0.9-1.1,1.8-1.7,2.6s-1,1.7-1.6,2.6s-0.8,1.5-1.2,2.2c-0.8,1.6-1.6,3.2-2.2,4.8c-0.6,1.5-1,3-1.4,4.5
		c-0.2,0.9-0.4,1.7-0.6,2.6c-0.4,1.9-0.8,3.9-1,5.9l-0.2,1.9c0,0.3-0.1,0.7-0.1,1l-0.1,3.2c0,0.9,0,1.9,0,2.8
		C113.4,82.6,113.4,83.3,113.5,84.1z M118.7,80.3c0-0.8,0-1.7,0.1-2.5s0.1-1.8,0.2-2.6c0.1-0.9,0.2-1.8,0.3-2.6
		c0.1-0.9,0.3-1.7,0.4-2.6s0.4-1.7,0.6-2.5s0.4-1.5,0.6-2.3c0.4-1.4,0.8-2.7,1.4-4c0.8-1.8,1.7-3.5,2.7-5.3c0.4-0.7,0.8-1.3,1.2-2
		c0.3-0.5,0.6-1,0.9-1.5c0.9-1.4,1.9-2.8,2.8-4.2c0.7-1,1.5-2,2.2-3l2-2.4c0.5-0.6,1.1-1.2,1.7-1.8c1.2-1.3,2.4-2.6,3.6-3.8
		c1.4-1.4,2.9-2.7,4.4-4c1.3-1.1,2.6-2.3,4-3.4l1.8-1.4l3-2.1c0.4-0.3,0.9-0.5,1.3-0.8l1.7-1.1c0.5-0.3,1-0.6,1.5-0.8l1.8-1
		c0.5-0.3,1-0.5,1.4-0.7l1.6-0.8l2.3-0.9c0.7-0.3,1.5-0.5,2.2-0.7s1.5-0.5,2.2-0.7l3-0.8c0.9-0.2,1.9-0.4,2.8-0.6
		c0.8-0.2,1.5-0.3,2.3-0.4c1.5-0.3,3-0.5,4.6-0.7s3.2-0.3,4.8-0.4c1.8-0.1,3.6-0.2,5.4-0.3c1.6-0.1,3.3-0.1,4.9-0.1
		c2.1-0.1,4.3,0,6.4,0.2c1.2,0.2,2.4,0.5,3.6,0.8c1.6,0.4,3.2,0.8,4.7,1.4c1.3,0.6,2.5,1.2,3.7,2c0.6,0.4,1.2,0.8,1.8,1.2
		c0.9,0.6,1.7,1.2,2.6,1.9c2,1.5,3.9,3.1,5.8,4.7c0.5,0.4,0.9,0.8,1.3,1.2s1,0.9,1.4,1.4c0.9,1,1.8,2.1,2.6,3.1
		c0.4,0.6,0.9,1.2,1.3,1.8c0.6,0.9,1.2,1.8,1.7,2.7c0.9,1.6,1.7,3.2,2.4,4.8c0.3,0.7,0.6,1.5,0.9,2.2c0.2,0.4,0.3,0.8,0.4,1.2
		l0.5,1.6c0.6,1.7,1,3.5,1.4,5.2c0.3,1,0.4,2.1,0.7,3.1s0.4,1.8,0.5,2.7c0.3,1.7,0.6,3.4,0.9,5.1c0.4,2.2,0.7,4.5,1,6.7
		c0.3,2.8,0.7,5.7,0.8,8.5c0.1,1.5,0.1,3,0,4.6c0,0.8,0,1.6-0.1,2.4s-0.1,1.3-0.2,2c-0.3,1.6-0.5,3.2-0.9,4.8
		c-0.5,2.4-1.2,4.8-2.1,7.1c-0.2,0.5-0.4,0.9-0.7,1.4s-0.4,0.9-0.7,1.4c-0.5,0.8-0.9,1.7-1.5,2.5c-0.5,0.8-1.2,1.9-1.8,2.8
		c-0.4,0.6-0.8,1.1-1.3,1.7c-1.1,1.3-2.2,2.6-3.5,3.9c-0.7,0.7-1.5,1.4-2.2,2c-0.6,0.5-1.2,1-1.8,1.5c-1.8,1.3-3.6,2.6-5.5,3.7
		c-1.1,0.6-2.1,1.3-3.2,1.8c-0.5,0.3-1,0.6-1.6,0.8l-1,0.4c-2.5,0.9-4.9,1.7-7.5,2.4c-1.3,0.4-2.7,0.7-4,1c-1,0.2-2,0.4-3,0.5
		c-1.9,0.2-3.8,0.3-5.6,0.4c-1.7,0.1-3.4,0.2-5.1,0.4c-2.2,0.3-4.4,0.6-6.6,1c-1.7,0.3-3.4,0.6-5.2,0.8s-3.5,0.4-5.3,0.5
		c-0.9,0-1.8,0.1-2.7,0.2c-0.7,0.1-1.4,0.2-2.2,0.3c-0.5,0.1-1,0.2-1.4,0.4c-0.4,0.2-0.9,0.4-1.3,0.6c-0.5,0.3-1,0.6-1.4,1
		c-1,0.9-1.9,1.9-2.6,3c-0.5,0.6-0.9,1.3-1.3,2c-0.4,0.8-0.9,1.6-1.3,2.5s-1,1.9-1.4,2.9s-0.8,1.7-1.1,2.6c-1.6,3.6-3,7.3-4.4,10.9
		c-0.4,1.1-0.8,2.1-1.2,3.2c-0.4-1.1-0.7-2.3-1.1-3.4c-0.6-1.8-1.1-3.7-1.7-5.5c-0.3-0.9-0.5-1.9-0.7-2.8c-0.2-0.8-0.3-1.5-0.4-2.3
		s-0.3-1.8-0.3-2.7c-0.1-1.5-0.2-3-0.2-4.6c0.3-0.4,0.5-0.8,0.5-1.3c0-0.5-0.2-1-0.6-1.3c-1.6-1.2-3.1-2.4-4.6-3.7
		c-1.3-1.1-2.5-2.2-3.8-3.4s-2.3-2.1-3.4-3.2c-0.6-0.6-1.1-1.1-1.6-1.7l-1.7-2l-1.7-2.4c-0.3-0.4-0.5-0.8-0.8-1.2l-0.9-1.5
		c-0.3-0.4-0.5-0.9-0.8-1.4s-0.5-0.8-0.7-1.3c-0.5-1-1-2-1.5-3c-0.5-1.3-1.1-2.6-1.5-3.9c-0.3-0.7-0.5-1.5-0.7-2.2
		c-0.3-0.9-0.5-1.9-0.8-2.8c-0.3-0.9-0.4-1.6-0.6-2.4s-0.3-1.4-0.5-2.1c-0.3-1.6-0.6-3.1-0.8-4.7s-0.4-3.2-0.5-4.8
		c-0.1-0.9-0.2-1.8-0.2-2.7l-0.1-3.5C118.6,82,118.7,81.2,118.7,80.3z"/>
</g>
<g id="Layer_2_1_">
	<path class="st0" d="M158.1,216.9c0,2.8-1.4,4.9-4.2,4.9s-5.6-1.4-5.6-4.2c-0.1-2.9,2-5.4,4.9-5.6
		C155.8,212.2,157.9,214.3,158.1,216.9z"/>
	<path class="st0" d="M121.3,221.9c0,2.7,2.2,4.9,4.9,4.9c2.7,0,4.9-2.2,4.9-4.9c0-2.7-2.2-4.9-4.9-4.9c-2.6-0.1-4.9,2-4.9,4.6
		c0,0,0,0,0,0C121.3,221.7,121.3,221.8,121.3,221.9z"/>
	<path class="st1" d="M160,262c-12,16.2-38.7,24.7-64.1,24.7c-33.8,0-61.3-26.1-61.3-53.5s33.8-55.6,67.6-55.6
		c29.2,0.2,54.5,20.2,61.3,48.6"/>
	<path class="st0" d="M148,243c1.4,4.2,0.7,9.1-2.1,10.6c-2.8,1.4-6.3-0.7-7.8-5.6s-0.7-9.9,2.1-11.3S146.6,238.8,148,243z"/>
	<path class="st0" d="M169.2,245.1c0,4.9-1.4,8.5-4.2,8.5c-3.9-0.8-6.7-4.4-6.3-8.4c0-4.9,1.4-8.4,4.2-8.4
		C166.8,237.5,169.5,241.1,169.2,245.1z"/>
	<path class="st1" d="M183.3,247.9c0,9.9-11.3,13.4-26.8,14.1c-19.7,0.7-32.4-1.4-32.4-11.3c0.7-15.1,13.6-26.8,28.7-26.1h0.2
		C172.7,224.7,183.3,238.1,183.3,247.9"/>
	<path class="st1" d="M167.1,211.3c-6.1-0.8-11.1-5.3-12.7-11.3c1-4.3,5.4-6.9,9.7-5.9c0,0,0,0,0.1,0c0.8,0.2,1.6,0.5,2.3,0.9
		c4.2,2.6,9.1,3.9,14.1,3.5C177.6,205,176.9,211.3,167.1,211.3z"/>
	<path class="st1" d="M107.2,217.6c-8.4,0-18.3-11.3-14.1-11.3c5-0.4,9.7-2.3,13.4-5.6c6-1.1,12,1.4,15.5,6.3
		C122.7,210.6,112.8,217.6,107.2,217.6z"/>
	<path class="st2" d="M65.6,278.9c0,0-2.1,6.3,0.7,8.5c2.8,2.1,8.4-4.2,8.4-4.2"/>
	<path class="st2" d="M54.4,271.2c0,0,0.7,12.7,4.2,14.8s7-7.8,7-7.8"/>
	<path class="st2" d="M110,286c2.1,3.8,5.7,6.6,9.9,7.8c4.2,1.4,3.5-10.6,3.5-10.6"/>
	<path class="st2" d="M124.1,283.1c0,0,1.4,8.5,7.8,6.3c2.1-0.7,0.7-9.1,0.7-9.1"/>
	<path class="st3" d="M12.8,226.1c-4.9,2.8-1.4,14.8,5.6,15.5c9.9,0.7,14.1-12,5.6-12s-5.6,12,2.1,12c9.9,0,9.1-4.2,9.1-4.2"/>
</g>
</svg>
