<?xml version="1.0" encoding="utf-8"?>
<!-- Generator: Adobe Illustrator 22.0.1, SVG Export Plug-In . SVG Version: 6.00 Build 0)  -->
<svg version="1.1" id="step" xmlns="http://www.w3.org/2000/svg" xmlns:xlink="http://www.w3.org/1999/xlink" x="0px" y="0px"
	 viewBox="0 0 188.5 203.6" style="enable-background:new 0 0 188.5 203.6;" xml:space="preserve">
<style type="text/css">
	.st0{fill:#FFFFFF;}
</style>
<title>step</title>
<path class="st0" d="M95.3,22.8c-43.6,0-79,35.4-79,79s35.4,79,79,79s79-35.4,79-79C174.3,58.2,138.9,22.8,95.3,22.8z M105.4,70.8
	c3.2-3.5,7.8-5.5,12.5-5.4c2.2,0.3,4.6,0.3,6.8,1.4c2.2,0.9,4.1,2.3,5.7,4.1c3,3.3,4.9,7.5,5.2,12c-1.7-3.7-4.2-6.9-7.3-9.6
	c-6.1-4.7-14.6-4.7-20.7,0c-3.1,2.6-5.6,5.9-7.4,9.5C100.5,78.3,102.3,74,105.4,70.8L105.4,70.8z M68.3,61.2c5.4,0,9.8,6,9.8,13.1
	c0,7.4-4.4,13.1-9.8,13.1s-9.8-6-9.8-13.1C58.6,66.9,62.9,61.2,68.3,61.2L68.3,61.2z M94.5,150c-27,0-45.2-17.7-48.5-47.1h6.3
	c5.2,22.9,19.1,34.1,42,34.1s36.8-11.4,42-34.1h6.5C139.7,132.3,121.5,150,94.5,150L94.5,150z"/>
</svg>
