<svg id="step" xmlns="http://www.w3.org/2000/svg" viewBox="0 0 639.54 203.62"><defs><style>.cls-1{fill:#fff;}</style></defs><title>step</title><path class="cls-1" d="M173.52,158.09c-1.24,1.49-2.47,3-4,4.69a21.13,21.13,0,0,0-3.46,5.19,5.43,5.43,0,0,0,.25,5.18,8.35,8.35,0,0,0,3.7,3.45,7.36,7.36,0,0,0,4.44.74,4,4,0,0,0,3.21-2.71,29.49,29.49,0,0,1,3-5.18c1.48-2,3-3.71,4.69-5.68s3.21-3.7,4.69-5.68,2.71-3.7,3.7-5.18a9.18,9.18,0,0,0,.74-5.18,8.56,8.56,0,0,0-2.47-5.18c-1.48-1.48-3.7-2.47-6.91-3.21a34.15,34.15,0,0,0-12.83.74c-7.89,1.73-23.44,9.63-23.44,9.63-.49-.5-.74-1-1.23-1.24-5.93-6.41-14.56-5.67-21-.49a58,58,0,0,0-22,40.47c-12.83,4.93-23.44,13.07-30.6,25.16-2.46,4.2-1.48,8.39,1.24,12.1,6.66,8.63,14.8,16.77,24.43,22,11.1,5.92,21.71-10.86,10.36-17A62.27,62.27,0,0,1,94.8,218.3a36.29,36.29,0,0,1,16-11.1c.74-.49,1.48-.74,2.22-1.23a4.77,4.77,0,0,0,2,.49h0c.49,4.93,2.71,13.32,4.93,17.27a28.21,28.21,0,0,0,7.9,9.13,26.57,26.57,0,0,0,10.85,4.44,27.5,27.5,0,0,0,13.08-1.72,46.9,46.9,0,0,0,14.07-9.13,86,86,0,0,0,14.06-17.77,14.28,14.28,0,0,0,1.73-5.18,12,12,0,0,0-.49-5.18,11.41,11.41,0,0,0-2.23-4.2,7.58,7.58,0,0,0-3.2-2.47,4,4,0,0,0-3.7.25c-1.24.49-2.23,2-3.21,3.7a47.57,47.57,0,0,1-3.7,6.66c-1.73,2.72-3.46,5.19-5.43,8.15a101.34,101.34,0,0,1-6.66,7.65,34.12,34.12,0,0,1-7.16,5.42,15.49,15.49,0,0,1-6.91,2c-2.22,0-4.44-1.23-6.42-3.21a13.53,13.53,0,0,1-3-8.14,33.11,33.11,0,0,1,1-11.85,72.25,72.25,0,0,1,4.94-13.81,66.43,66.43,0,0,1,9.13-13.82A127.67,127.67,0,0,1,155.5,163a109.86,109.86,0,0,1,9.13-7.9c2.72-2,5.18-3.45,6.67-4.44,1.72-1,3.2-1,3.94-.49a3.25,3.25,0,0,1,1,3.45A16.55,16.55,0,0,1,173.52,158.09Zm-23.94-13.81a13.46,13.46,0,1,0-13.08-13.82A13.66,13.66,0,0,0,149.58,144.28Zm9.13-28.87.74-2.22,7.65,2.22-.49,1.48a5,5,0,0,0,2.71,5.92l41.46,17.52a.87.87,0,0,1,.49.25,4.69,4.69,0,0,0,5.92-3l5.92-18.26h0a4.58,4.58,0,0,0-3.7-5.92l-43.67-9.87a4.51,4.51,0,0,0-5.43,3.21l-.5,1.48-7.4-2.22c3.46-9.87-11.6-14.31-15-4.69-2,5.68-4.19,11.35-6.17,17a17.13,17.13,0,0,1,12.34-4.69C154.76,113.43,157,114.67,158.71,115.41Zm7.65-14.07a10.23,10.23,0,0,1,9.87-3.45h0l26.9,5.92,15.54-3.7a4.53,4.53,0,0,0,3.46-5.92l-6.17-18a4.63,4.63,0,0,0-6.42-2.71l-41.21,18a5,5,0,0,0-2.71,5.92l.49,1.48-4.44,1.48Z" transform="translate(-72.66 -72.98)"/><path class="cls-1" d="M265.85,191.76a11.85,11.85,0,0,1-3.55.45,7.87,7.87,0,0,1-3.26-.64,6.27,6.27,0,0,1-2.32-1.81,8,8,0,0,1-1.4-2.81,13.63,13.63,0,0,1-.46-3.62,12.15,12.15,0,0,1,.53-3.7,8,8,0,0,1,1.52-2.81,6.52,6.52,0,0,1,2.41-1.76,7.83,7.83,0,0,1,3.17-.61,10.21,10.21,0,0,1,1.65.14,11.92,11.92,0,0,1,1.51.37c.45.15.87.3,1.23.45a4.83,4.83,0,0,1,.83.42l.9-2.57c-.13-.08-.36-.21-.7-.38a9.87,9.87,0,0,0-1.33-.51,15.89,15.89,0,0,0-1.93-.45,14.29,14.29,0,0,0-2.48-.19,10.76,10.76,0,0,0-4.1.77,9.61,9.61,0,0,0-3.37,2.24,10.57,10.57,0,0,0-2.29,3.64,13.38,13.38,0,0,0-.85,5,15.06,15.06,0,0,0,.75,4.95,10.07,10.07,0,0,0,2.13,3.64,9,9,0,0,0,3.31,2.24,11.22,11.22,0,0,0,4.26.77,17.71,17.71,0,0,0,2.5-.16,18.85,18.85,0,0,0,2-.38,11.63,11.63,0,0,0,1.44-.47,4.43,4.43,0,0,0,.8-.4L268,191A16.66,16.66,0,0,1,265.85,191.76Zm18.32-12a7.11,7.11,0,0,0-2.48-1.78,8.26,8.26,0,0,0-6.28,0,7.15,7.15,0,0,0-2.49,1.78,8.44,8.44,0,0,0-1.62,2.77,11.56,11.56,0,0,0,0,7.17,8.34,8.34,0,0,0,1.62,2.75,7,7,0,0,0,2.49,1.78,8.14,8.14,0,0,0,6.28,0,7,7,0,0,0,2.48-1.78,8,8,0,0,0,1.62-2.75,11.37,11.37,0,0,0,0-7.17A8.1,8.1,0,0,0,284.17,179.77ZM282,190.59a4.42,4.42,0,0,1-6.89,0,8.56,8.56,0,0,1,0-8.94,4.42,4.42,0,0,1,6.89,0,8.5,8.5,0,0,1,0,8.94Zm11.56-10.21.51-.1c.26,0,.54-.08.85-.11l1-.08,1,0a3.93,3.93,0,0,1,1.75.34,2.54,2.54,0,0,1,1.09,1,5.36,5.36,0,0,1,.56,1.76,18.24,18.24,0,0,1,.16,2.53v8.72h3v-9.36a17.33,17.33,0,0,0-.13-2.08,10.73,10.73,0,0,0-.39-1.83,5.18,5.18,0,0,1,1.33-.72,6.59,6.59,0,0,1,2.49-.4,4,4,0,0,1,1.78.34,2.48,2.48,0,0,1,1.09,1,4.93,4.93,0,0,1,.54,1.76,18.4,18.4,0,0,1,.15,2.53v8.72h3v-9.36A18.51,18.51,0,0,0,313,182a6.11,6.11,0,0,0-.93-2.43,4.61,4.61,0,0,0-1.91-1.59,7.61,7.61,0,0,0-3.14-.56,7.91,7.91,0,0,0-1.86.21,12.75,12.75,0,0,0-1.57.48,7.88,7.88,0,0,0-1.19.56c-.32.19-.55.34-.7.45a4.68,4.68,0,0,0-1.83-1.27,7.51,7.51,0,0,0-2.69-.43,23.61,23.61,0,0,0-3.9.29q-1.68.28-2.7.54v16.19h3Zm27.59,13.33a8.31,8.31,0,0,0,1.65.74,7.68,7.68,0,0,0,2.55.39,7.51,7.51,0,0,0,3.19-.65,6.53,6.53,0,0,0,2.36-1.79,8.08,8.08,0,0,0,1.46-2.76,11.73,11.73,0,0,0,.49-3.49,10.41,10.41,0,0,0-.59-3.64,7.81,7.81,0,0,0-1.68-2.74,7.53,7.53,0,0,0-2.63-1.73,9.27,9.27,0,0,0-3.46-.61,19,19,0,0,0-3.67.31c-1.06.2-1.94.39-2.65.56v22.08h3Zm0-13.3a8.68,8.68,0,0,1,1.21-.22,16.25,16.25,0,0,1,2.1-.1,5,5,0,0,1,3.84,1.57,6.43,6.43,0,0,1,1.44,4.49,10.69,10.69,0,0,1-.25,2.39,5.24,5.24,0,0,1-.84,1.92,3.94,3.94,0,0,1-1.49,1.28,4.78,4.78,0,0,1-2.19.47,5.93,5.93,0,0,1-2.25-.42,6.72,6.72,0,0,1-1.57-.86ZM342,194.77l.42-2.5a7.09,7.09,0,0,1-1.19-.24,1.8,1.8,0,0,1-.77-.43,1.63,1.63,0,0,1-.41-.77,4.64,4.64,0,0,1-.13-1.22v-20l-3,.51v20a4.7,4.7,0,0,0,1.15,3.5A5.74,5.74,0,0,0,342,194.77Zm4.84-2.4a7.14,7.14,0,0,0,2.61,1.81,9.81,9.81,0,0,0,3.77.66,13.78,13.78,0,0,0,3.09-.32,9.3,9.3,0,0,0,1.91-.61l-.42-2.5a10.19,10.19,0,0,1-1.62.53,10.94,10.94,0,0,1-2.64.27,5.49,5.49,0,0,1-4.1-1.35,6.09,6.09,0,0,1-1.51-3.94h11.41a4.86,4.86,0,0,0,0-.56v-.5c0-2.86-.59-5-1.79-6.39a6.42,6.42,0,0,0-5.16-2.1,7.68,7.68,0,0,0-2.82.54,7,7,0,0,0-2.44,1.64,8.13,8.13,0,0,0-1.7,2.74,10.8,10.8,0,0,0-.64,3.86,11.66,11.66,0,0,0,.5,3.48A7.41,7.41,0,0,0,346.88,192.37Zm1.56-9.55a4.62,4.62,0,0,1,.85-1.48,4.16,4.16,0,0,1,1.33-1,3.86,3.86,0,0,1,1.81-.4,3.49,3.49,0,0,1,2.87,1.3,5,5,0,0,1,1,3.32H348A6.68,6.68,0,0,1,348.44,182.82Zm16.29,10.25a4.13,4.13,0,0,0,1.78,1.3,7.76,7.76,0,0,0,2.81.43,9.08,9.08,0,0,0,2.56-.33,11.73,11.73,0,0,0,1.57-.56l-.57-2.47-1.14.43a6.44,6.44,0,0,1-2.17.31,4.15,4.15,0,0,1-1.34-.2,1.94,1.94,0,0,1-1-.65,3.09,3.09,0,0,1-.58-1.29,9.08,9.08,0,0,1-.19-2.06v-7.7h6.31v-2.5H366.5v-5.16l-3,.52V188a14.13,14.13,0,0,0,.27,2.93A5.2,5.2,0,0,0,364.73,193.07ZM380,194.18a9.72,9.72,0,0,0,3.76.66,13.65,13.65,0,0,0,3.09-.32,9.3,9.3,0,0,0,1.91-.61l-.42-2.5a10.37,10.37,0,0,1-1.61.53,11.08,11.08,0,0,1-2.65.27,5.5,5.5,0,0,1-4.1-1.35,6.09,6.09,0,0,1-1.51-3.94h11.41a4.75,4.75,0,0,0,0-.56v-.5q0-4.29-1.8-6.39a6.42,6.42,0,0,0-5.16-2.1,7.68,7.68,0,0,0-2.82.54,7,7,0,0,0-2.44,1.64,8.13,8.13,0,0,0-1.7,2.74,10.8,10.8,0,0,0-.64,3.86,11.66,11.66,0,0,0,.5,3.48,7.41,7.41,0,0,0,1.52,2.74A7.1,7.1,0,0,0,380,194.18Zm-1.06-11.36a4.62,4.62,0,0,1,.85-1.48,4.16,4.16,0,0,1,1.33-1,3.86,3.86,0,0,1,1.81-.4,3.47,3.47,0,0,1,2.87,1.3,5,5,0,0,1,1,3.32h-8.27A6.68,6.68,0,0,1,378.92,182.82Zm25.49,14.4a4.86,4.86,0,0,1-3.86.64,4.84,4.84,0,0,1-.91-.3l-.55,2.4a2.24,2.24,0,0,0,.44.16,5,5,0,0,0,.67.18c.24,0,.5.1.75.13a6.42,6.42,0,0,0,.74,0,8.17,8.17,0,0,0,2.36-.32,5.72,5.72,0,0,0,1.87-1,7.48,7.48,0,0,0,1.52-1.71,16.32,16.32,0,0,0,1.33-2.49q1.64-3.78,3.05-8.12c.94-2.9,1.79-5.91,2.56-9.06h-3.07q-.81,3.5-1.7,6.8t-2.12,6.67c-.51-1.09-1-2.23-1.47-3.4s-.91-2.35-1.32-3.53-.77-2.32-1.1-3.43-.62-2.14-.85-3.11h-3.21a72.14,72.14,0,0,0,2.9,8.74c1.17,2.87,2.42,5.59,3.77,8.16A6.72,6.72,0,0,1,404.41,197.22Zm14.38-4.76a7,7,0,0,0,2.48,1.78,8.17,8.17,0,0,0,6.29,0,7,7,0,0,0,2.48-1.78,8.34,8.34,0,0,0,1.62-2.75,11.37,11.37,0,0,0,0-7.17,8.44,8.44,0,0,0-1.62-2.77,7.11,7.11,0,0,0-2.48-1.78,8.29,8.29,0,0,0-6.29,0,7.11,7.11,0,0,0-2.48,1.78,8.44,8.44,0,0,0-1.62,2.77,11.37,11.37,0,0,0,0,7.17A8.34,8.34,0,0,0,418.79,192.46ZM421,181.65a4.42,4.42,0,0,1,6.89,0,8.5,8.5,0,0,1,0,8.94,4.42,4.42,0,0,1-6.89,0,8.5,8.5,0,0,1,0-8.94Zm16.78,11a5.21,5.21,0,0,0,2.11,1.58,8.18,8.18,0,0,0,3.24.56,23.69,23.69,0,0,0,3.9-.28c1.12-.2,2-.38,2.7-.55V177.78h-3v14.08a2.34,2.34,0,0,1-.53.11l-.81.09c-.3,0-.62.06-1,.08s-.68,0-1,0a3.75,3.75,0,0,1-3.24-1.32,7.56,7.56,0,0,1-1-4.36v-8.72h-3v9.36a12.89,12.89,0,0,0,.35,3.1A6.48,6.48,0,0,0,437.75,192.66Zm20.06-12.22,1.08-.24a8.25,8.25,0,0,1,1.65-.17,11,11,0,0,1,2.1.17,9.87,9.87,0,0,1,1.17.31l.51-2.6a5.89,5.89,0,0,0-.59-.14c-.27-.06-.56-.11-.88-.16s-.65-.1-1-.13-.63,0-.88,0a16.52,16.52,0,0,0-3.53.34,19.19,19.19,0,0,0-2.63.72v16h3ZM315.57,208.09q-1.41,2-3,4.35c-1,1.55-2.1,3.13-3.16,4.73s-2.06,3.1-3,4.49c-.24-1.39-.51-2.92-.8-4.59s-.58-3.3-.86-4.89-.55-3-.8-4.37-.46-2.34-.62-3.06h-5.61c-.7,1.81-1.43,3.87-2.21,6.17s-1.55,4.68-2.34,7.15-1.55,5-2.28,7.43-1.41,4.82-2,7H295c.72-2.72,1.5-5.67,2.35-8.83s1.78-6.36,2.82-9.6c.21,1.13.44,2.39.68,3.79s.48,2.79.7,4.17.44,2.67.62,3.9.35,2.25.48,3.05h4.57c.59-.88,1.28-2,2.08-3.21s1.63-2.57,2.49-3.94,1.71-2.74,2.56-4.09l2.33-3.67c-.54,3.24-1.12,6.43-1.75,9.6s-1.22,6.11-1.78,8.83h6.09c.43-2.19.86-4.52,1.28-7s.84-4.95,1.23-7.41.73-4.83,1-7.13.55-4.37.74-6.21H318C317.3,205.63,316.5,206.75,315.57,208.09Zm29.64,19.26H332.39l1.6-6.82h10.5l1.24-5H335.24l1.28-5.61h11.9l1.28-5.13H331.55l-6.65,27.76h19Zm25.93,5.16q-1-3.24-2.23-6.21a48.82,48.82,0,0,0-2.3-5,12.69,12.69,0,0,0,3.54-1.67,9,9,0,0,0,2.21-2.14,7.12,7.12,0,0,0,1.12-2.45,11.33,11.33,0,0,0,.3-2.6,7.46,7.46,0,0,0-.64-3.06,6.79,6.79,0,0,0-2-2.55,10.15,10.15,0,0,0-3.33-1.72,15.37,15.37,0,0,0-4.69-.64c-1.12,0-2.36,0-3.72.16a37.77,37.77,0,0,0-4.21.56l-6.53,27.36h6.21l2.44-10.13h3.13a26.45,26.45,0,0,1,2.1,4.66q.94,2.72,1.86,5.47Zm-10.46-15.06h-2.12l1.8-7.61c.32,0,.72-.06,1.2-.08s.95,0,1.4,0a7.49,7.49,0,0,1,2.25.28,3.66,3.66,0,0,1,1.4.76,2.51,2.51,0,0,1,.72,1.1,4.31,4.31,0,0,1,.2,1.3,3.84,3.84,0,0,1-.34,1.58,3.48,3.48,0,0,1-1.14,1.39,6.29,6.29,0,0,1-2.13,1A12.49,12.49,0,0,1,360.68,217.45Zm31.87,9.81a14.6,14.6,0,0,1-3.55.41,5.85,5.85,0,0,1-4.42-1.61q-1.54-1.59-1.55-5.13a13.93,13.93,0,0,1,.69-4.4,11.11,11.11,0,0,1,2-3.67,9.69,9.69,0,0,1,3.12-2.5,8.94,8.94,0,0,1,4.11-.92,11.79,11.79,0,0,1,2.85.32,13.15,13.15,0,0,1,3,1.2l2.24-4.85a15.41,15.41,0,0,0-3.9-1.56,17.21,17.21,0,0,0-10.94,1.08,16.81,16.81,0,0,0-5.25,4,16.53,16.53,0,0,0-3.24,5.51,18.17,18.17,0,0,0-1.11,6.21,14,14,0,0,0,.81,4.9,10.37,10.37,0,0,0,2.26,3.71,9.83,9.83,0,0,0,3.52,2.34,12.19,12.19,0,0,0,4.55.82,21.31,21.31,0,0,0,4.89-.48,17.41,17.41,0,0,0,3.65-1.28l-.68-5.09A16.62,16.62,0,0,1,392.55,227.26Zm30,5.25,6.69-27.76H423l-2.56,10.66h-9.86l2.56-10.66h-6.25l-6.65,27.76h6.21l2.85-11.82h9.85l-2.84,11.82Zm3.88,0H433q.8-1.56,1.68-3.06c.59-1,1.15-2,1.68-3h10.42c.08,1,.15,2,.22,3s.12,2,.18,3.06h6.29q-.36-3.19-.78-6.87c-.28-2.44-.59-4.89-.92-7.33s-.7-4.83-1.09-7.17-.79-4.47-1.22-6.39h-5.57q-2.09,2.88-4.08,5.91t-4.11,6.39q-2.1,3.36-4.37,7.17T426.42,232.51ZM442,216.17c1.08-1.77,2.18-3.54,3.31-5.33q.39,2.76.62,5.53c.14,1.84.28,3.58.42,5.21h-7.5Q440.37,218.8,442,216.17Zm35.08,5.29q-1-2.33-2.13-4.71t-2.24-4.59q-1.12-2.21-2.18-4.11c-.71-1.26-1.37-2.37-2-3.3h-4.76l-6.66,27.76h6.13l4.41-18.39a95.51,95.51,0,0,1,4.47,8.94q2.06,4.73,3.74,9.45h4.69l6.69-27.76H481Zm36.38-16.71H490.93L489.65,210h8.13l-5.41,22.51h6.25L504,210h8.13Zm29.08,1.78a10.18,10.18,0,0,0-3.42-1.56,17.69,17.69,0,0,0-4.55-.54c-1.15,0-2.37,0-3.67.16a38.52,38.52,0,0,0-4.1.56l-6.53,27.36h6.21l2.24-9.29h1.56a30.47,30.47,0,0,0,6-.56,14.28,14.28,0,0,0,4.81-1.85,9.23,9.23,0,0,0,3.21-3.36,10.38,10.38,0,0,0,1.16-5.09,7.21,7.21,0,0,0-.76-3.32A7,7,0,0,0,542.53,206.53Zm-4,8.78a4.34,4.34,0,0,1-1.53,1.54,6.86,6.86,0,0,1-2.36.86,16.87,16.87,0,0,1-3.06.26H530l1.93-8.17,1-.08c.32,0,.7,0,1.16,0a7.41,7.41,0,0,1,3.71.76,2.73,2.73,0,0,1,1.3,2.56A4.59,4.59,0,0,1,538.51,215.31Zm16,7.07h3.13a26.45,26.45,0,0,1,2.1,4.66q.94,2.72,1.86,5.47h6.69q-1-3.24-2.22-6.21a51,51,0,0,0-2.3-5,12.69,12.69,0,0,0,3.54-1.67,9.23,9.23,0,0,0,2.21-2.14,7.12,7.12,0,0,0,1.12-2.45,11.33,11.33,0,0,0,.3-2.6,7.63,7.63,0,0,0-.64-3.06,6.71,6.71,0,0,0-2-2.55,10.09,10.09,0,0,0-3.32-1.72,15.37,15.37,0,0,0-4.69-.64c-1.12,0-2.36,0-3.72.16a37.77,37.77,0,0,0-4.21.56l-6.53,27.36h6.21Zm3-12.54c.32,0,.72-.06,1.2-.08s.95,0,1.4,0a7.49,7.49,0,0,1,2.25.28,3.66,3.66,0,0,1,1.4.76,2.7,2.7,0,0,1,.72,1.1,4.31,4.31,0,0,1,.2,1.3,4,4,0,0,1-.34,1.58,3.48,3.48,0,0,1-1.14,1.39,6.39,6.39,0,0,1-2.13,1,12.49,12.49,0,0,1-3.24.36h-2.13Zm40-2.63a10,10,0,0,0-3.52-2.3,12.11,12.11,0,0,0-4.49-.8,13.92,13.92,0,0,0-6.61,1.54,15.9,15.9,0,0,0-5,4,18,18,0,0,0-3.1,5.55,18.39,18.39,0,0,0-1.09,6.21,13.83,13.83,0,0,0,.82,4.88,10.35,10.35,0,0,0,2.31,3.67,10,10,0,0,0,3.52,2.3,12.11,12.11,0,0,0,4.49.8,14.11,14.11,0,0,0,6.65-1.52,15.67,15.67,0,0,0,5-4,17.86,17.86,0,0,0,3.09-5.57,19.37,19.37,0,0,0,1.06-6.23,13.85,13.85,0,0,0-.82-4.89A10.44,10.44,0,0,0,597.5,207.21Zm-3.94,13.3a12.53,12.53,0,0,1-1.85,3.67,9.69,9.69,0,0,1-2.76,2.56,6.43,6.43,0,0,1-3.43,1,4.6,4.6,0,0,1-4.1-1.87,8.44,8.44,0,0,1-1.27-4.87,13.82,13.82,0,0,1,.67-4.28,12.51,12.51,0,0,1,1.84-3.69,9.69,9.69,0,0,1,2.76-2.56,6.51,6.51,0,0,1,3.43-1,4.6,4.6,0,0,1,4.1,1.86,8.44,8.44,0,0,1,1.27,4.87A14,14,0,0,1,593.56,220.51Zm17.56.5H621.5l1.24-5.16H612.37l1.4-5.93h11.74l1.28-5.17h-18l-6.65,27.76h6.21Zm20.28,11.5,6.69-27.76h-6.25l-6.65,27.76Zm19.19-27.76h-6.25l-6.65,27.76H656.2l1.28-5.29h-12.3Zm29.69,22.6H667.46l1.6-6.82h10.5l1.24-5H670.3l1.28-5.61h11.9l1.28-5.13H666.61L660,232.51h19ZM334.33,268a6.41,6.41,0,0,1-2.16.3,4.19,4.19,0,0,1-1.35-.19,2.13,2.13,0,0,1-1-.66,3.1,3.1,0,0,1-.58-1.28,9.23,9.23,0,0,1-.19-2.07v-7.69h6.31v-2.5h-6.31v-5.16l-3,.51v14.87a14.3,14.3,0,0,0,.27,2.94,5.2,5.2,0,0,0,.95,2.13,4.15,4.15,0,0,0,1.78,1.3,7.92,7.92,0,0,0,2.8.43,8.67,8.67,0,0,0,2.56-.34A10,10,0,0,0,336,270l-.57-2.47Zm16.92-12.1a7,7,0,0,0-2.48-1.78,8.14,8.14,0,0,0-6.28,0A7.12,7.12,0,0,0,340,255.9a8.33,8.33,0,0,0-1.62,2.77,11.53,11.53,0,0,0,0,7.16,8.39,8.39,0,0,0,1.62,2.76,7.25,7.25,0,0,0,2.49,1.78,8.26,8.26,0,0,0,6.28,0,7.11,7.11,0,0,0,2.48-1.78,8.06,8.06,0,0,0,1.62-2.76,11.34,11.34,0,0,0,0-7.16A8,8,0,0,0,351.25,255.9Zm-2.18,10.81a4.42,4.42,0,0,1-6.89,0,8.56,8.56,0,0,1,0-8.94,4.42,4.42,0,0,1,6.89,0,8.5,8.5,0,0,1,0,8.94Zm25.1-3.83a6.88,6.88,0,0,0-1.59-1c-.62-.29-1.32-.58-2.11-.88-.6-.21-1.11-.41-1.54-.61a5,5,0,0,1-1.07-.62,2.15,2.15,0,0,1-.64-.76,2.06,2.06,0,0,1-.21-1,1.64,1.64,0,0,1,.93-1.55,4.56,4.56,0,0,1,2.18-.5,9.73,9.73,0,0,1,2.46.27,8,8,0,0,1,1.51.53l.55-2.56c-.18-.07-.42-.14-.73-.23s-.66-.16-1.07-.24-.84-.13-1.31-.19a13.33,13.33,0,0,0-1.41-.08,7,7,0,0,0-4.46,1.3A4.25,4.25,0,0,0,364,258.3a3.88,3.88,0,0,0,1.41,3.2,6.15,6.15,0,0,0,1.52.95c.59.27,1.2.53,1.84.79a13.07,13.07,0,0,1,2.85,1.44,2,2,0,0,1,.87,1.73,1.63,1.63,0,0,1-.88,1.54,5.88,5.88,0,0,1-2.71.48,9.31,9.31,0,0,1-3-.39c-.75-.25-1.29-.45-1.64-.57l-.54,2.56a15.7,15.7,0,0,0,1.7.56,12.59,12.59,0,0,0,3.46.37,8.47,8.47,0,0,0,4.89-1.19,4,4,0,0,0,1.71-3.49,4.94,4.94,0,0,0-.35-2A3.93,3.93,0,0,0,374.17,262.88Zm15.47,5.1a2.62,2.62,0,0,1-.53.11l-.82.1-1,.08-1,0A3.75,3.75,0,0,1,383.1,267a7.58,7.58,0,0,1-1-4.36v-8.72h-3v9.36a12.36,12.36,0,0,0,.36,3.09,6.39,6.39,0,0,0,1.15,2.42,5.28,5.28,0,0,0,2.12,1.59,8.27,8.27,0,0,0,3.23.56,23.52,23.52,0,0,0,3.9-.29c1.12-.19,2-.37,2.71-.55V253.91h-3Zm20.83-12a6.66,6.66,0,0,0-2.36-1.8,7.66,7.66,0,0,0-3.19-.64,7.57,7.57,0,0,0-2.54.39,7.32,7.32,0,0,0-1.65.74v-9l-3,.52v23.87a26.13,26.13,0,0,0,2.63.58,21.25,21.25,0,0,0,3.69.29,9.24,9.24,0,0,0,3.46-.61,7.31,7.31,0,0,0,2.63-1.73,7.53,7.53,0,0,0,1.68-2.74,10.41,10.41,0,0,0,.59-3.64,11.89,11.89,0,0,0-.49-3.52A7.92,7.92,0,0,0,410.47,256Zm-2.6,10.79a5,5,0,0,1-3.84,1.58,16.34,16.34,0,0,1-2-.11,9.5,9.5,0,0,1-1.26-.24V257.43a6.33,6.33,0,0,1,1.57-.86,5.84,5.84,0,0,1,2.24-.42,4.83,4.83,0,0,1,2.2.47,4.09,4.09,0,0,1,1.49,1.28,5.43,5.43,0,0,1,.83,1.94,10.83,10.83,0,0,1,.26,2.4A6.48,6.48,0,0,1,407.87,266.75Zm30.24-11.05a4.49,4.49,0,0,0-1.9-1.58,7.48,7.48,0,0,0-3.14-.56,8.35,8.35,0,0,0-1.86.2,12.75,12.75,0,0,0-1.57.48,7.83,7.83,0,0,0-1.19.57c-.32.19-.56.34-.7.44a4.92,4.92,0,0,0-1.83-1.26,7.33,7.33,0,0,0-2.69-.43,23.61,23.61,0,0,0-3.9.28c-1.12.2-2,.38-2.71.55v16.19h3V256.5l.52-.09c.25,0,.54-.08.85-.11s.63-.06,1-.08.67,0,1,0a4,4,0,0,1,1.74.34,2.54,2.54,0,0,1,1.09,1,4.92,4.92,0,0,1,.56,1.77,16.63,16.63,0,0,1,.16,2.53v8.72h3v-9.36a17.54,17.54,0,0,0-.12-2.09,11.41,11.41,0,0,0-.39-1.82,4.85,4.85,0,0,1,1.33-.73,6.76,6.76,0,0,1,2.49-.4,4.1,4.1,0,0,1,1.77.34,2.49,2.49,0,0,1,1.09,1,4.92,4.92,0,0,1,.55,1.77,18.36,18.36,0,0,1,.14,2.53v8.72h3v-9.36a18.42,18.42,0,0,0-.24-3.08A6.21,6.21,0,0,0,438.11,255.7Zm6.11,14.88h3V253.91h-3ZM445.69,247a1.93,1.93,0,0,0-1.36.52,2.11,2.11,0,0,0,0,2.86,2,2,0,0,0,2.73,0,2.11,2.11,0,0,0,0-2.86A1.94,1.94,0,0,0,445.69,247Zm14.67,21a6.47,6.47,0,0,1-2.17.3,4.17,4.17,0,0,1-1.34-.19,2,2,0,0,1-1-.66,3.1,3.1,0,0,1-.58-1.28,9.23,9.23,0,0,1-.19-2.07v-7.69h6.31v-2.5h-6.31v-5.16l-3,.51v14.87a14.3,14.3,0,0,0,.27,2.94,5.33,5.33,0,0,0,.94,2.13,4.21,4.21,0,0,0,1.78,1.3,8,8,0,0,0,2.81.43,8.72,8.72,0,0,0,2.56-.34,10.44,10.44,0,0,0,1.57-.56l-.57-2.47Zm20.27-7.3c-.6,2.2-1.3,4.43-2.11,6.67-.52-1.09-1-2.22-1.48-3.4s-.91-2.35-1.31-3.52-.78-2.32-1.11-3.43-.61-2.15-.85-3.11h-3.2a69.75,69.75,0,0,0,2.9,8.73c1.16,2.88,2.42,5.6,3.76,8.16a6.75,6.75,0,0,1-1.79,2.55,4.36,4.36,0,0,1-2.76.78,4.2,4.2,0,0,1-1.1-.14,5.75,5.75,0,0,1-.92-.31l-.54,2.41c.08,0,.23.09.43.16l.67.18c.25.05.5.09.76.12a4.64,4.64,0,0,0,.73.05,8.12,8.12,0,0,0,2.36-.32,5.43,5.43,0,0,0,1.87-1,7.37,7.37,0,0,0,1.53-1.72,17.1,17.1,0,0,0,1.33-2.48q1.63-3.78,3-8.13t2.57-9h-3.08Q481.54,257.41,480.63,260.7Zm20.43-4.8a7,7,0,0,0-2.48-1.78,8.14,8.14,0,0,0-6.28,0,7.12,7.12,0,0,0-2.49,1.78,8.33,8.33,0,0,0-1.62,2.77,11.53,11.53,0,0,0,0,7.16,8.39,8.39,0,0,0,1.62,2.76,7.25,7.25,0,0,0,2.49,1.78,8.26,8.26,0,0,0,6.28,0,7.11,7.11,0,0,0,2.48-1.78,8.06,8.06,0,0,0,1.62-2.76,11.34,11.34,0,0,0,0-7.16A8,8,0,0,0,501.06,255.9Zm-2.18,10.81a4.42,4.42,0,0,1-6.89,0,8.56,8.56,0,0,1,0-8.94,4.42,4.42,0,0,1,6.89,0,8.5,8.5,0,0,1,0,8.94ZM517.75,268a2.62,2.62,0,0,1-.53.11l-.82.1-1,.08-1,0a3.76,3.76,0,0,1-3.24-1.31,7.58,7.58,0,0,1-1-4.36v-8.72h-3v9.36a12.38,12.38,0,0,0,.35,3.09,6.39,6.39,0,0,0,1.15,2.42,5.35,5.35,0,0,0,2.12,1.59,8.27,8.27,0,0,0,3.23.56,23.52,23.52,0,0,0,3.9-.29c1.12-.19,2-.37,2.71-.55V253.91h-3Zm16.12-14.25-1-.13c-.33,0-.62,0-.88,0a17.3,17.3,0,0,0-3.53.33,22.34,22.34,0,0,0-2.62.72v16h3v-14l1.07-.24a7.72,7.72,0,0,1,1.65-.18,10,10,0,0,1,2.1.18,11.48,11.48,0,0,1,1.17.3l.51-2.59a4.39,4.39,0,0,0-.59-.15Zm19.77,0-1-.13c-.33,0-.63,0-.88,0a17.23,17.23,0,0,0-3.53.33,22.57,22.57,0,0,0-2.63.72v16h3v-14l1.08-.24a7.58,7.58,0,0,1,1.65-.18,10.12,10.12,0,0,1,2.1.18q.81.18,1.17.3l.51-2.59a5.4,5.4,0,0,0-.59-.15Zm11-.24a7.49,7.49,0,0,0-2.82.55,7,7,0,0,0-2.44,1.63,8.23,8.23,0,0,0-1.7,2.74,10.8,10.8,0,0,0-.64,3.86,11.61,11.61,0,0,0,.5,3.48,7.41,7.41,0,0,0,1.52,2.74,7,7,0,0,0,2.62,1.81,9.72,9.72,0,0,0,3.76.66,13.65,13.65,0,0,0,3.09-.32,8.71,8.71,0,0,0,1.91-.61l-.42-2.5a9.39,9.39,0,0,1-1.61.53,11.08,11.08,0,0,1-2.65.27,5.53,5.53,0,0,1-4.1-1.34,6.12,6.12,0,0,1-1.51-3.95h11.41a4.6,4.6,0,0,0,0-.56V262q0-4.31-1.8-6.4A6.42,6.42,0,0,0,564.67,253.49Zm-4.42,7.15a6.78,6.78,0,0,1,.4-1.7,4.57,4.57,0,0,1,.85-1.47,4.19,4.19,0,0,1,1.33-1.05,4,4,0,0,1,1.81-.4,3.5,3.5,0,0,1,2.87,1.3,5,5,0,0,1,1,3.32Zm22.82-7.08a8.73,8.73,0,0,0-3.4.62,7.39,7.39,0,0,0-2.55,1.73,7.51,7.51,0,0,0-1.58,2.63,9.73,9.73,0,0,0-.55,3.35,9.9,9.9,0,0,0,.58,3.59,7.29,7.29,0,0,0,1.57,2.52,6.13,6.13,0,0,0,2.32,1.49,8.3,8.3,0,0,0,2.84.48,7.77,7.77,0,0,0,2.58-.4,8.2,8.2,0,0,0,1.49-.66v.7A4.35,4.35,0,0,1,585.2,273a5.67,5.67,0,0,1-3.83,1.06,12.65,12.65,0,0,1-2.71-.28,14.12,14.12,0,0,1-2.19-.62l-.55,2.6a18.88,18.88,0,0,0,2.42.61,16.49,16.49,0,0,0,3,.25q4.05,0,6-1.73t2-5.58V254.42c-.71-.17-1.58-.36-2.61-.56A19.45,19.45,0,0,0,583.07,253.56Zm3.27,12.72a5.59,5.59,0,0,1-1.57.79,6.92,6.92,0,0,1-2.18.33,4.49,4.49,0,0,1-1.69-.32,3.88,3.88,0,0,1-1.44-1,5,5,0,0,1-1-1.7,7.22,7.22,0,0,1-.37-2.47,6.32,6.32,0,0,1,1.3-4.17,4.54,4.54,0,0,1,3.7-1.57,13.75,13.75,0,0,1,2,.12,8.38,8.38,0,0,1,1.2.24ZM595.92,247a1.91,1.91,0,0,0-1.36.52,2.11,2.11,0,0,0,0,2.86,2,2,0,0,0,2.72,0,2.11,2.11,0,0,0,0-2.86A1.91,1.91,0,0,0,595.92,247Zm-1.47,23.59h3V253.91h-3Zm17.22-7.7a6.6,6.6,0,0,0-1.58-1c-.62-.29-1.33-.58-2.12-.88-.6-.21-1.11-.41-1.54-.61a5.59,5.59,0,0,1-1.07-.62,2.26,2.26,0,0,1-.64-.76,2.06,2.06,0,0,1-.21-1,1.64,1.64,0,0,1,.93-1.55,4.58,4.58,0,0,1,2.18-.5,9.86,9.86,0,0,1,2.47.27,8.14,8.14,0,0,1,1.5.53l.55-2.56c-.17-.07-.41-.14-.72-.23s-.67-.16-1.08-.24-.84-.13-1.31-.19a13.33,13.33,0,0,0-1.41-.08,7,7,0,0,0-4.46,1.3,4.68,4.68,0,0,0-1.25,5.4,4.13,4.13,0,0,0,1,1.31,6.34,6.34,0,0,0,1.52.95c.59.27,1.2.53,1.85.79a13.57,13.57,0,0,1,2.85,1.44,2.05,2.05,0,0,1,.86,1.73,1.63,1.63,0,0,1-.88,1.54,5.88,5.88,0,0,1-2.71.48,9.31,9.31,0,0,1-3-.39c-.75-.25-1.29-.45-1.63-.57l-.55,2.56a16.54,16.54,0,0,0,1.7.56,12.59,12.59,0,0,0,3.46.37,8.45,8.45,0,0,0,4.89-1.19,4,4,0,0,0,1.72-3.49,4.93,4.93,0,0,0-.36-2A3.81,3.81,0,0,0,611.67,262.88ZM624.88,268a6.45,6.45,0,0,1-2.16.3,4.19,4.19,0,0,1-1.35-.19,2,2,0,0,1-1-.66,3.1,3.1,0,0,1-.58-1.28,9.23,9.23,0,0,1-.19-2.07v-7.69H626v-2.5h-6.31v-5.16l-3,.51v14.87a14.3,14.3,0,0,0,.27,2.94,5.2,5.2,0,0,0,1,2.13,4.12,4.12,0,0,0,1.77,1.3,8,8,0,0,0,2.81.43,8.67,8.67,0,0,0,2.56-.34,10.44,10.44,0,0,0,1.57-.56l-.57-2.47Zm12.87-14.27-1-.13c-.33,0-.62,0-.88,0a17.3,17.3,0,0,0-3.53.33,22.34,22.34,0,0,0-2.62.72v16h3v-14l1.07-.24a7.58,7.58,0,0,1,1.65-.18,10.12,10.12,0,0,1,2.1.18q.81.18,1.17.3l.51-2.59a4.84,4.84,0,0,0-.59-.15Zm14.76,1.54a4.88,4.88,0,0,0-2-1.31,8.61,8.61,0,0,0-3-.47,16.67,16.67,0,0,0-2.92.24,9.38,9.38,0,0,0-1.92.5l.35,2.47a9.29,9.29,0,0,1,1.65-.44,15.07,15.07,0,0,1,2.59-.2,4.54,4.54,0,0,1,1.87.33,3,3,0,0,1,1.14.9,3.17,3.17,0,0,1,.57,1.28A6.54,6.54,0,0,1,651,260v.83l-.45-.09-.76-.15c-.29-.05-.59-.09-.91-.12a7.44,7.44,0,0,0-.93-.05,11.74,11.74,0,0,0-2.69.29,7.2,7.2,0,0,0-2.25.89,4.52,4.52,0,0,0-1.52,1.61,4.77,4.77,0,0,0-.56,2.37,5.82,5.82,0,0,0,.48,2.47,4.21,4.21,0,0,0,1.35,1.65,5.82,5.82,0,0,0,2,.91,11.07,11.07,0,0,0,2.6.29c.66,0,1.33,0,2-.08s1.3-.11,1.87-.18,1.1-.13,1.56-.21l1.07-.17V259.87a9.91,9.91,0,0,0-.32-2.58A5,5,0,0,0,652.51,255.27ZM651,268.2a7.62,7.62,0,0,1-1.37.18c-.54,0-1.17.05-1.87.05a5.29,5.29,0,0,1-2.79-.63,2.39,2.39,0,0,1-1-2.22,2.18,2.18,0,0,1,.42-1.4,3,3,0,0,1,1-.83,4.17,4.17,0,0,1,1.38-.4,10.33,10.33,0,0,1,1.43-.1,12.21,12.21,0,0,1,1.74.11,4,4,0,0,1,1,.28Zm15.88-.2a6.47,6.47,0,0,1-2.17.3,4.17,4.17,0,0,1-1.34-.19,2,2,0,0,1-1-.66,3.1,3.1,0,0,1-.58-1.28,9.23,9.23,0,0,1-.19-2.07v-7.69h6.31v-2.5h-6.31v-5.16l-3,.51v14.87a14.3,14.3,0,0,0,.27,2.94,5.19,5.19,0,0,0,.94,2.13,4.21,4.21,0,0,0,1.78,1.3,8,8,0,0,0,2.81.43,8.72,8.72,0,0,0,2.56-.34,10.44,10.44,0,0,0,1.57-.56l-.58-2.47Zm6.33-21a1.94,1.94,0,0,0-1.37.52,2.11,2.11,0,0,0,0,2.86,1.94,1.94,0,0,0,1.37.53,1.92,1.92,0,0,0,1.36-.53A2,2,0,0,0,673.2,247Zm-1.48,23.59h3V253.91h-3Zm20.63-14.68a7,7,0,0,0-2.49-1.78,8.14,8.14,0,0,0-6.28,0,7,7,0,0,0-2.48,1.78,8,8,0,0,0-1.62,2.77,11.34,11.34,0,0,0,0,7.16,8.06,8.06,0,0,0,1.62,2.76,7.11,7.11,0,0,0,2.48,1.78,8.26,8.26,0,0,0,6.28,0,7.15,7.15,0,0,0,2.49-1.78,8.39,8.39,0,0,0,1.62-2.76,11.53,11.53,0,0,0,0-7.16A8.33,8.33,0,0,0,692.35,255.9Zm-2.18,10.81a4.42,4.42,0,0,1-6.89,0,8.5,8.5,0,0,1,0-8.94,4.42,4.42,0,0,1,6.89,0,8.56,8.56,0,0,1,0,8.94Zm21.71-8.6a6,6,0,0,0-1.1-2.42,5.15,5.15,0,0,0-2.1-1.57,8.36,8.36,0,0,0-3.3-.56,23.82,23.82,0,0,0-3.91.28c-1.14.2-2,.38-2.73.55v16.19h3V256.5l.53-.09c.25,0,.53-.08.84-.11s.63-.06,1-.08.68,0,1,0a5.63,5.63,0,0,1,2,.31,2.7,2.7,0,0,1,1.29,1,4.29,4.29,0,0,1,.68,1.76,14.13,14.13,0,0,1,.21,2.63v8.72h3v-9.36A13.64,13.64,0,0,0,711.88,258.11Z" transform="translate(-72.66 -72.98)"/><path class="cls-1" d="M341,110.37a5.85,5.85,0,0,1,.51-.72c1.31-1.17,2-2,2-2.37,0-1-.77-1.6-2.3-1.8s-3.19-.32-5-.39q6.4-9.57,12.42-17.14a20.22,20.22,0,0,0,9.12-2.53,11.54,11.54,0,0,0,2.31-1.82,2.36,2.36,0,0,0,.81-1.44,3.69,3.69,0,0,0-.78-1.64c-.5-.74-1.58-1.1-3.23-1.1A11.33,11.33,0,0,0,352,80.55a24.76,24.76,0,0,0-5.11,3.36,101.26,101.26,0,0,1-15.26,1.27,103.55,103.55,0,0,1-10.41-.38c-2.25-.25-3.37-.64-3.37-1.17a1.52,1.52,0,0,1,.67-1.08A2.24,2.24,0,0,1,320,82c.51,0,.77-.1.77-.31,0-.39-.83-.58-2.49-.58a6.78,6.78,0,0,0-4.13,1.2,3.45,3.45,0,0,0-1.64,2.81q0,5.65,12.7,5.65A91.18,91.18,0,0,0,341,89.6,164.6,164.6,0,0,0,329.77,105q-6.33.08-11.69.58a23.19,23.19,0,0,0-2.33.31,3.11,3.11,0,0,0-1.3.86,5.07,5.07,0,0,0-.92,1.06,11.47,11.47,0,0,1-1,1.41,3.31,3.31,0,0,0-.8,2q0,1.2,1,1.2l1.62-.41q4.1-.37,11.08-.72Q314.67,126.68,313.84,129a5.15,5.15,0,0,0-.31,1.42,1,1,0,0,0,.62.82,6.84,6.84,0,0,0,1.86.55,11.5,11.5,0,0,0,1.93.22,1.76,1.76,0,0,0,1.15-.37,3.47,3.47,0,0,0,.86-1.12q.39-.74,12.51-19.52l2.23,0c.9,0,2.24,0,4,.1a6.52,6.52,0,0,0,1.22.14C340.3,111.19,340.66,110.92,341,110.37Zm15.38-28.93-1.35.55A10.13,10.13,0,0,1,356.41,81.44Zm.79,15.9c0,1.37.66,2.06,2,2.06a5.26,5.26,0,0,0,3.8-2,5.86,5.86,0,0,0,1.82-3.92,1.85,1.85,0,0,0-.55-1.44,2.06,2.06,0,0,0-1.48-.52,5.16,5.16,0,0,0-3.84,1.87A5.73,5.73,0,0,0,357.2,97.34Zm87.13-16.67a4.61,4.61,0,0,0-2.91-1q-5.35,0-15.51,14.33a73.25,73.25,0,0,0-8.11,15.37,52.83,52.83,0,0,0-3.2,11.1.67.67,0,0,0-.12.06c-.13.11-.55.56-1.25,1.33s-1.42,1.54-2.15,2.28a17.39,17.39,0,0,1-2.51,2.09,4.56,4.56,0,0,1-2.45,1c-.69,0-1-.63-1-1.88a3.79,3.79,0,0,1,.1-1,30.56,30.56,0,0,1,2.29-6.7,70.78,70.78,0,0,1,3.24-6.45,19.43,19.43,0,0,1,1.91-3,2,2,0,0,0,.44-1.41c0-1.19-.87-1.78-2.61-1.78a3.56,3.56,0,0,0-1.7.32,5.18,5.18,0,0,0-1.4,1.56,2.81,2.81,0,0,0-1.48-1.54,6.5,6.5,0,0,0-3-.61q-4.82,0-10.52,4.45a36.5,36.5,0,0,0-5,4.71,22.47,22.47,0,0,0-3.67,5.73,15.92,15.92,0,0,0-1.22,4.19,20.59,20.59,0,0,1-3,2.37,5.5,5.5,0,0,1-2.77,1.1c-1.38,0-2.07-.5-2.07-1.51a5.6,5.6,0,0,1,.48-2c.19-.43.36-.83.54-1.2s.4-.8.68-1.3l.73-1.27c.19-.34.45-.77.77-1.28s.55-.88.69-1.08l.64-1c.28-.45.46-.72.53-.82s.5-.74,1.31-1.91,1.45-2.13,1.94-2.89a26.77,26.77,0,0,0,1.46-2.61,5.87,5.87,0,0,0,.73-2.5,2.53,2.53,0,0,0-.95-1.9,3.66,3.66,0,0,0-2.55-.86,9.28,9.28,0,0,0-3.59.86q-4.1,1.74-10.05,8.33l1.45-2.16q3-4.45,3-6.07c0-.68-.28-1-.83-1-2.45,0-4.19.66-5.23,2a27.32,27.32,0,0,0-2.13,3.29q-.62,1.1-3.78,6.37c-2,3.32-3.49,5.84-4.51,7.61l-1.31,1.37a15.28,15.28,0,0,1-2.94,2.38,6.16,6.16,0,0,1-3.29,1.08c-1.05,0-1.58-.38-1.58-1.16a5.4,5.4,0,0,1,.69-2.3l.6-1.11q.25-.47.72-1.17c.31-.46.5-.77.57-.9q8.19-14.06,8.19-14.85a2.78,2.78,0,0,0-.86-1.74,2.55,2.55,0,0,0-1.94-1,6.23,6.23,0,0,0-3.14,1.49,24.78,24.78,0,0,0-3.47,3c-.95,1-1.43,1.65-1.43,1.89s.24.61.71,1.11.7.84.7,1a22.15,22.15,0,0,1-1.89,3.31c-1.26,2-2.52,4.25-3.78,6.65s-1.9,4.23-1.9,5.48a5.18,5.18,0,0,0,2,3.71,6.66,6.66,0,0,0,4.68,1.81,13.15,13.15,0,0,0,6.24-2l.56.22a5.85,5.85,0,0,0,1.94.47c.48,0,1.1-.49,1.86-1.48q4.06-5.37,7-8.6c1.94-2.15,4.42-4.67,7.41-7.57s4.87-4.39,5.63-4.46l.06.07a13.8,13.8,0,0,1-1.89,3.31q-1.79,2.65-3,4.66a35.89,35.89,0,0,0-2.39,4.81,13.32,13.32,0,0,0-1.17,5,4.8,4.8,0,0,0,1.79,3.76,5.73,5.73,0,0,0,3.61,1.57,9.41,9.41,0,0,0,3.34-.48,18.12,18.12,0,0,0,4.64-2.88,5.52,5.52,0,0,0,1.31,1.86,5.35,5.35,0,0,0,3.82,1.4q2.34,0,6-2.57a29.44,29.44,0,0,0,6.55-6.27,8.7,8.7,0,0,0-.68,3.58,5.92,5.92,0,0,0,1.3,3.72,4.84,4.84,0,0,0,4.08,1.68c1.85,0,3.9-.92,6.16-2.74a26.66,26.66,0,0,0,2.91-2.69,7.14,7.14,0,0,0,1.54,3.59,6.11,6.11,0,0,0,4.92,2,15.8,15.8,0,0,0,6.85-1.73,18.87,18.87,0,0,0,6.5-5.26,3.11,3.11,0,0,0,.49-2v-.69c0-1.66-.28-2.5-.83-2.5s-2,1.18-4.27,3.53a15.89,15.89,0,0,1-3.08,2.43,6.28,6.28,0,0,1-3.32,1.1,3.79,3.79,0,0,1-2.59-.91,2.65,2.65,0,0,1-1.05-2,9.45,9.45,0,0,1,.26-2.24,14.76,14.76,0,0,0,.29-1.53q5.51-6.06,11.49-13.67,3.78-4.8,6.78-9.07a74.75,74.75,0,0,0,5.12-8.36q2.15-4.1,2.14-6A3.44,3.44,0,0,0,444.33,80.67Zm-44.71,36.62a51.59,51.59,0,0,1-5.85,5.57c-2.94,2.53-4.72,3.79-5.37,3.79-.46,0-.68-.4-.68-1.2s.62-2.29,1.87-4.46a28.6,28.6,0,0,1,4.11-5.58q6.3-6.52,12.18-6.52Q401.2,115.31,399.62,117.29ZM432.7,97.94q-7.17,10.17-11.23,15a58.05,58.05,0,0,1,4.32-10.24,106.39,106.39,0,0,1,7.41-10.94q5.13-6.85,6.33-6.85c.23,0,.35.17.35.51Q439.88,87.78,432.7,97.94Zm55.35-7.59c.13.18.25.28.36.28a.72.72,0,0,0,.36-.14,11.74,11.74,0,0,1,2.54-.24c4.52-.21,7.29-.73,8.3-1.58l.43-.31a2.85,2.85,0,0,0,.48-.41,4,4,0,0,0,.5-.84,6.24,6.24,0,0,0,.31-2.38q0-1.74-4.55-2.81a24.14,24.14,0,0,0-5.47-.55,47.18,47.18,0,0,0-17.54,3.81,57.88,57.88,0,0,0-8.45,4.21A23.51,23.51,0,0,0,459,94.81a10.14,10.14,0,0,0-2.41,6.39,6.93,6.93,0,0,0,3.05,5.67q3,2.34,9.6,3.86a88.7,88.7,0,0,1,10,2.79c2.3.85,3.44,1.76,3.44,2.74,0,.78-.65,1.69-1.94,2.74a25.16,25.16,0,0,1-4.92,3,35.89,35.89,0,0,1-7,2.43,30.72,30.72,0,0,1-7.38,1,19.76,19.76,0,0,1-6.16-.91c-1.87-.61-2.81-1.24-2.81-1.9l.45-.93c0-.27-.21-.41-.62-.41a5,5,0,0,0-2.1.93,4,4,0,0,0-1.29,1.4,4.15,4.15,0,0,0-.53,2.08,4.53,4.53,0,0,0,.58,2.21q2.2,4.21,10.19,4.21,10.94,0,18.85-3.53a30.51,30.51,0,0,0,6.28-3.6,15.66,15.66,0,0,0,4-4.18,8.64,8.64,0,0,0,1.33-4.63,7.39,7.39,0,0,0-2.1-4.86,11.5,11.5,0,0,0-2.39-2,33.82,33.82,0,0,0-3.77-2,62.31,62.31,0,0,0-9.08-2.81c-4.38-1.12-7.06-2.19-8-3.22a2,2,0,0,1-.52-1.39q0-.84,2.34-2.88a40.85,40.85,0,0,1,5.85-4.14,45.06,45.06,0,0,1,8.28-3.79,32.59,32.59,0,0,1,9-1.92,5.16,5.16,0,0,0-1.34,2.26A1.47,1.47,0,0,0,488.05,90.35Zm66.9,14a9.41,9.41,0,0,0-3.73.89,35.42,35.42,0,0,0-10.5,7.5l9.81-14.87a2.67,2.67,0,0,0,.69-1.17,5.11,5.11,0,0,0-.31-1.2c-.21-.59-.49-.89-.83-.89l-.62.07-.65,0a2.16,2.16,0,0,0-1.24.41q-1.11.72-14.37,22c-.75,1.22-1.48,2.39-2.2,3.54a.64.64,0,0,0-.53-.27,1.72,1.72,0,0,0-.81.38c-.36.25-1.2.92-2.55,2a45.79,45.79,0,0,1-4.52,3.21,11,11,0,0,1-5.88,1.85q-4.58,0-4.58-2.67,0-1.52,7.26-5.56a15.23,15.23,0,0,1,1.51-.6,6.23,6.23,0,0,0,2-1.14c.6-.51.9-.91.9-1.22a2.6,2.6,0,0,0-.52-1.27,3,3,0,0,0-1-1,4,4,0,0,0-.88-.06,9.19,9.19,0,0,0-2.36.56,8.74,8.74,0,0,1-2.49.57c-.54,0-.81-.09-.81-.28,0-.55.74-1.38,2.2-2.5a34,34,0,0,1,3.72-2.53,15.11,15.11,0,0,1,2.75-1.27,4.66,4.66,0,0,0-.14,1.13,1.58,1.58,0,0,0,.25.94,1.12,1.12,0,0,0,1,.36,6,6,0,0,0,4.18-1.71,5.29,5.29,0,0,0,1.84-4,1.69,1.69,0,0,0-1.17-1.54,5.31,5.31,0,0,0-2.3-.55q-4.75,0-10.8,3.26a15,15,0,0,0-4.6,3.68,6.79,6.79,0,0,0-1.87,4.25,7.93,7.93,0,0,0,.38,2.91,3,3,0,0,0,1.68,1.49,16.82,16.82,0,0,0-2.88,1.37.45.45,0,0,0-.11,0,31.48,31.48,0,0,0-4.13,3.43,24.8,24.8,0,0,1-3.17,2.35,6,6,0,0,1-3.13,1.08c-.94,0-1.41-.45-1.41-1.34a13.73,13.73,0,0,1,.14-1.68q.31-2.27,5.32-11.26t7.79-13.25q.82,0,8.81-.82a4.78,4.78,0,0,0,1.87-.6A1.42,1.42,0,0,0,522.9,97a1.3,1.3,0,0,0-.45-1.08,6.26,6.26,0,0,1-1-1.07,2.47,2.47,0,0,0-.94-.85,4.84,4.84,0,0,0-1.54-.16c-.74,0-2,.07-3.8.21,0-.09.4-.65,1-1.66s1.22-1.93,1.7-2.73a4.86,4.86,0,0,0,.73-1.47,1,1,0,0,0-.24-.59.71.71,0,0,0-.55-.3L516.47,87l-1.62.21a1.31,1.31,0,0,0-.69.12q-.17.12-1.26,1.35c-.72.82-2,2.68-4,5.55l-3.1.14c-.32,0-.78,0-1.39.07l-1.65.07-1.53.08a6.2,6.2,0,0,0-2.36,1c-1,.62-1.65,1.18-1.81,1.68a2.73,2.73,0,0,1-.6.86,1.67,1.67,0,0,0-.5,1.13c0,.39.31.71.93,1a4.93,4.93,0,0,0,1.93.39h.31c.43,0,2-.15,4.64-.45l1.31-.17q-3.72,5.83-7.43,12.48a76,76,0,0,0-3.77,7.69,16.87,16.87,0,0,0-1.51,6.15,5.87,5.87,0,0,0,1.27,4,6.82,6.82,0,0,0,4,2,4.25,4.25,0,0,0,1,.1,8.79,8.79,0,0,0,4.75-1.51c1-.62,2.13-1.47,3.4-2.47a6.38,6.38,0,0,0,3.37,3,13.67,13.67,0,0,0,5.61,1,19.09,19.09,0,0,0,9.68-3q-7.05,11.39-10.19,16.6a5.25,5.25,0,0,0-.81,2.78,3.31,3.31,0,0,0,.6,2.09,4.32,4.32,0,0,0,1.12,1,1.87,1.87,0,0,0,.79.3c.17,0,.38-.16.64-.48s2.13-3.27,5.64-8.87,6.6-10.44,9.29-14.53c0,2.62,1.43,3.94,4.3,3.94a11.68,11.68,0,0,0,5-1.37A22.19,22.19,0,0,0,547,127.4a44.88,44.88,0,0,0,4.57-4.9,40.71,40.71,0,0,0,3.72-5.38,34.58,34.58,0,0,0,2.42-5,11.63,11.63,0,0,0,.9-4,3.78,3.78,0,0,0-1-2.7A3.52,3.52,0,0,0,555,104.34ZM550.8,115.1a32.53,32.53,0,0,1-4.06,5.43,28.55,28.55,0,0,1-5.16,4.47,8.89,8.89,0,0,1-4.54,1.89,3.23,3.23,0,0,1-2.65-1.1,86.77,86.77,0,0,1,9.55-10.38q6-5.7,7.86-5.69.69,0,.69.72A9.82,9.82,0,0,1,550.8,115.1Zm15.74,10.42a5.49,5.49,0,0,0-3.83,1.76,5.37,5.37,0,0,0-1.83,3.94c0,1.45.67,2.18,2,2.18a5.32,5.32,0,0,0,3.84-2,5.85,5.85,0,0,0,1.84-3.95A1.77,1.77,0,0,0,566.54,125.52Zm30.78-45.69-2.65-.34a3.63,3.63,0,0,0-2,.34q-1.58,1.23-7.26,9.34t-11.58,17.55q-5.89,9.44-5.9,11.74a1.14,1.14,0,0,0,1.28,1.3,1.87,1.87,0,0,0,1.06-.21,1.74,1.74,0,0,1,1-.2,3.19,3.19,0,0,0,1.21-.21.79.79,0,0,0,.22-.08l.12-.09.07,0a2.92,2.92,0,0,0,1.41-1.41Q587.38,96.42,598,80.82a1.32,1.32,0,0,0,.14-.44C598.18,80,597.89,79.83,597.32,79.83Z" transform="translate(-72.66 -72.98)"/></svg>