<?xml version="1.0" encoding="utf-8"?>
<!-- Generator: Adobe Illustrator 22.0.1, SVG Export Plug-In . SVG Version: 6.00 Build 0)  -->
<svg version="1.1" id="step" xmlns="http://www.w3.org/2000/svg" xmlns:xlink="http://www.w3.org/1999/xlink" x="0px" y="0px"
	 viewBox="0 0 188.5 203.6" style="enable-background:new 0 0 188.5 203.6;" xml:space="preserve">
<style type="text/css">
	.st0{fill:#FFFFFF;}
</style>
<title>step</title>
<path class="st0" d="M136.3,27.7c-1.7-1-3.5-1-5.4,0L95.6,51.5l-35-23.8c-1.7-1-3.5-1-5.4,0L17.3,53.3c-1.7,1.2-2.5,2.9-2.5,5v101.3
	c0,2.2,1,3.8,2.9,5c1.9,1,3.7,1,5.4,0l35-23.8l35,23.8c1.7,1,3.5,1,5.4,0l35-23.8l35,23.8c0.5,0.5,1.4,0.7,2.9,0.7
	c0.7,0,1.6-0.2,2.5-0.7c1.7-1,2.5-2.6,2.5-5V58.4c0-2.2-0.8-3.8-2.5-5L136.3,27.7z M26.4,149.2V62l25.6-18v87.2L26.4,149.2z
	 M63.5,86.8c0.2,0,0.5,0.1,0.7,0.4l0.4,0.4l3.6-4.7c-0.5-0.2-2-1.1-4.7-2.5V43.9l26.3,17.7v39.3c-1.9-0.7-3.8-1.7-5.8-2.9l-2.9,4.7
	c3.6,2.2,6,3.4,7.2,3.6l1.4-4v46.5l-26.3-17.7V86.8z M101.3,107.8h0.4c0.2,0,0.7-0.1,1.4-0.2c0.7-0.1,1.3-0.2,1.8-0.2l-1.1-5.4h-2.5
	V61.6l26.3-17.7v42.9l-1.8-1.8c-0.5,0.5-1,1.1-1.4,2c-0.5,0.8-1,1.4-1.4,1.6l-2.2,2.2l4.3,4l2.2-2.2v-0.4l0.4-0.4v39.3l-26.3,17.7
	V107.8z M139.2,131.2V81.8c0.5-0.2,1.3-0.5,2.5-0.7l1.8-0.4l-1.4-5.8c-0.2,0.2-0.7,0.4-1.3,0.4c-0.6,0-1.1,0.1-1.6,0.4V43.9
	l25.6,17.7v87.2L139.2,131.2z M50,83.2c-0.1,0-0.1-0.1,0.2-0.4l-1.8-5.4c-1.4,0.5-2.5,1-3.2,1.4c-1,0.5-2.4,1.4-4.3,2.9l4,4.3
	c1.7-1.2,3.4-2,5-2.5C50,83.4,50.1,83.2,50,83.2z M112.9,105.2c2.6-1.2,4.9-2.8,6.8-4.7l-4-4.3c-0.5,0.5-2.3,1.7-5.4,3.6
	L112.9,105.2z M41.5,90.4l-4.7-3.2c-1.2,1.9-2.3,4.3-3.2,7.2v0.4l5.4,1.8v-0.4C39.9,93.3,40.8,91.4,41.5,90.4L41.5,90.4z M73.6,88.3
	l-4.3,4l1.1,1.1c0.5,0.5,1.2,1.3,2.2,2.3c1,1.1,1.7,1.9,2.2,2.3l4-4.3c-1.4-1.2-2.8-2.5-4-4C74.2,89,73.8,88.5,73.6,88.3L73.6,88.3z
	 M154,82.9l4,4l4-4.3l-3.6-3.6l3.6-3.6l-4-4.3l-4,4l-3.6-4l-4,4.3l3.6,3.6l-3.6,3.6l4,4.3L154,82.9z"/>
</svg>
