<?xml version="1.0" encoding="utf-8"?>
<!-- Generator: Adobe Illustrator 21.1.0, SVG Export Plug-In . SVG Version: 6.00 Build 0)  -->
<svg version="1.1" id="Layer_1" xmlns="http://www.w3.org/2000/svg" xmlns:xlink="http://www.w3.org/1999/xlink" x="0px" y="0px"
	 viewBox="0 0 61 60.3" style="enable-background:new 0 0 61 60.3;" xml:space="preserve">
<style type="text/css">
	.st0{fill:#AF5A04;}
	.st1{fill:#F3C01D;stroke:#AB6900;stroke-width:0.5;stroke-miterlimit:10;}
	.st2{fill:#FDDD22;}
	.st3{fill:none;stroke:#E39E02;stroke-width:0.25;stroke-miterlimit:10;}
	.st4{fill:none;}
	.st5{fill:#D68B18;}
	.st6{fill:#FFFFFF;}
</style>
<g id="moneda">
	<path class="st0" d="M30.7,4c14.9,0,27,12.1,27,27.1s-12.1,27.1-27,27.1s-27-12.1-27-27.1C3.7,16.1,15.8,4,30.7,4z"/>
	<path class="st1" d="M28.7,2c14.9,0,27,12.1,27,27.1s-12.1,27.1-27,27.1s-27-12.1-27-27.1C1.7,14.1,13.8,2,28.7,2z"/>
	<g>
		<ellipse class="st2" cx="28.7" cy="29.1" rx="22.3" ry="22.4"/>
		<path class="st0" d="M8.2,30.9c0-12.4,10-22.4,22.3-22.4c5.7,0,10.8,2.1,14.8,5.6c-4.1-4.6-10-7.5-16.6-7.5
			C16.4,6.6,6.4,16.6,6.4,29c0,6.7,2.9,12.7,7.5,16.8C10.4,41.9,8.2,36.7,8.2,30.9z"/>
		<ellipse class="st3" cx="28.7" cy="29.1" rx="22.3" ry="22.4"/>
	</g>
	<g>
		<path class="st4" d="M44.6,34.2c-0.9,0-1.6-0.3-2.2-0.8c-1.8-1.8-8.4-8.3-8.4-8.3s-0.5-0.4-1.3-0.4c-0.4,0-0.8,0.1-1.3,0.4
			c-1.9,1-3.7,2-4.7,2.5c-0.4,0.2-0.9,0.4-1.4,0.4c-0.7,0-1.4-0.3-1.9-0.8s-0.8-1.1-0.8-1.7c0-1,0.6-1.8,1.7-2.4
			c2.4-1.5,7.4-4.3,9.4-5.3c0.6-0.3,1.1-0.5,1.6-0.5c0.8,0,1.6,0.4,2.6,1.3c2.1,1.8,4,3.4,4,3.4s0.4,0.3,0.9,0.3c0.1,0,0.3,0,0.4,0
			c1.2-0.3,2.7-0.6,4-0.9c-3.3-6.4-9.9-10.7-17.5-10.7c-7.3,0-13.6,4-17,9.8l1.3,0.4l0,0c0.5,0.2,1.1,0.3,1.6,0.3
			c1,0,1.6-0.4,1.6-0.4c0.2-0.1,5.2-3.4,7.7-3.4c2.6,0,3.7,1.5,3.8,1.5c0.1,0.1,0.1,0.2,0.1,0.3c0,0.1-0.1,0.2-0.2,0.2
			c0,0-3.6,1.9-5.2,3l0,0c-1.1,0.7-1.7,1.8-1.7,3.1c0,2,1.6,3.6,3.6,3.6c0.4,0,1.1-0.2,2.2-0.7l0,0c0.8-0.4,2.6-1.4,3.8-1.9
			s1.8-0.5,2.5,0.3c0.3,0.3,8,8.1,8,8.1c0.8,0.8,0.6,2.2-0.2,3c-0.4,0.4-1.1,0.7-1.6,0.7c-0.3,0-0.5-0.1-0.7-0.2
			c-0.3-0.1-0.4,0.1-0.3,0.2c0.4,0.7,0.3,1.6-0.3,2.2c-0.4,0.4-0.9,0.6-1.4,0.6c-0.4,0-0.8-0.1-1.1-0.3c-0.2-0.1-0.4,0.1-0.3,0.3
			c0.1,0.7,0,1.3-0.5,1.8c-0.4,0.4-0.9,0.6-1.5,0.6c-0.4,0-0.7-0.1-1-0.3c-0.2-0.1-0.4,0-0.4,0.3c0,0.5-0.2,1.1-0.6,1.5
			c-0.4,0.4-0.9,0.6-1.5,0.6s-1.1-0.2-1.5-0.6c-0.3-0.3-0.8-0.8-0.9-1l0,0c-0.1-0.1-0.1-0.2-0.1-0.3c0.2-1.2-0.2-2.4-1-3.2
			c-0.4-0.4-1-0.8-1.5-0.9c-0.1,0-0.2-0.1-0.2-0.2c-0.1-0.6-0.5-1.2-0.9-1.7c-0.4-0.4-0.9-0.7-1.5-0.9c-0.1,0-0.2-0.1-0.2-0.2
			c-0.2-0.6-0.4-1.1-0.9-1.5c-0.4-0.4-0.9-0.7-1.5-0.9c-0.1,0-0.2-0.1-0.2-0.2c-0.2-0.6-0.4-1.1-0.9-1.5c-0.7-0.7-1.6-1.1-2.7-1.1
			s-2.1,0.4-2.9,1.1c-0.5,0.4-0.8,1-1,1.6c0,0.1-0.1,0.2-0.2,0.2s-0.2,0-0.3,0c-0.6-0.2-1.2-0.4-1.6-0.6c1.6,9,9.7,16,19.3,16
			c9.8,0,18-7.2,19.5-16.7C48.1,33.5,45,34.2,44.6,34.2z M25.7,45.3c-0.7,0.6-1.7,1-2.7,1c-0.7,0-1.3-0.2-1.7-0.7
			c-0.6-0.6-0.6-1.3-0.4-1.8c0.1-0.4-0.2-0.4-0.3-0.4c-0.2,0-0.3,0-0.5,0c-0.6,0-1.1-0.2-1.5-0.7c-0.5-0.6-0.5-1.2-0.4-1.7
			c0.1-0.4-0.2-0.3-0.4-0.3c-0.1,0-0.3,0-0.4,0c-0.6,0-1-0.2-1.4-0.7c-0.5-0.7-0.5-1.3-0.4-1.8c0.1-0.3-0.1-0.3-0.3-0.3
			c-0.2,0-0.3,0.1-0.5,0.1c-0.6,0-1-0.2-1.4-0.7c-1-1.1-0.4-3,0.8-4.1c0.6-0.5,1.3-0.8,2-0.8s1.3,0.3,1.8,0.7c0.4,0.4,0.6,1,0.6,1.6
			c0,0.3,0.1,0.4,0.3,0.4c0.6,0,1.2,0.3,1.6,0.7s0.6,1,0.6,1.6c0,0.2,0,0.4,0.3,0.4c0.6,0,1.2,0.3,1.7,0.7c0.5,0.5,0.6,1.1,0.7,1.8
			c0,0.2,0.1,0.3,0.3,0.3c0.7,0.1,1.3,0.3,1.8,0.7c0.5,0.5,0.7,1.1,0.7,1.8C26.6,44,26.3,44.7,25.7,45.3z"/>
		<path class="st5" d="M24.2,40.8c-0.2,0-0.3-0.1-0.3-0.3c0-0.7-0.2-1.3-0.7-1.8c-0.4-0.4-1-0.7-1.7-0.7c-0.3,0-0.3-0.2-0.3-0.4
			c0-0.6-0.2-1.2-0.6-1.6c-0.4-0.4-1-0.7-1.6-0.7c-0.2,0-0.3-0.1-0.3-0.4c0-0.6-0.2-1.1-0.6-1.6c-0.5-0.5-1.1-0.7-1.8-0.7
			c-0.7,0-1.5,0.3-2,0.8c-1.1,1.1-1.7,3-0.8,4.1c0.4,0.5,0.9,0.7,1.4,0.7c0.2,0,0.3,0,0.5-0.1c0.1,0,0.4,0,0.3,0.3
			c-0.1,0.5-0.2,1.1,0.4,1.8c0.4,0.5,0.8,0.7,1.4,0.7c0.2,0,0.3,0,0.4,0c0.2,0,0.5-0.1,0.4,0.3c-0.1,0.5-0.2,1.1,0.4,1.7
			c0.4,0.4,0.9,0.7,1.5,0.7c0.2,0,0.3,0,0.5,0s0.5,0,0.3,0.4c-0.2,0.6-0.2,1.2,0.4,1.8c0.4,0.4,1,0.7,1.7,0.7c1,0,2-0.4,2.7-1.1
			c0.6-0.5,0.9-1.3,0.9-2s-0.2-1.3-0.7-1.8C25.5,41,24.8,40.9,24.2,40.8z"/>
		<path class="st5" d="M12.2,34.3c0.1,0,0.1-0.1,0.2-0.2c0.2-0.6,0.6-1.2,1-1.6c0.7-0.7,1.8-1.1,2.9-1.1c1,0,2,0.4,2.7,1.1
			c0.4,0.4,0.7,1,0.9,1.5c0,0.1,0.1,0.2,0.2,0.2c0.6,0.2,1.1,0.5,1.5,0.9s0.7,0.9,0.9,1.5c0,0.1,0.1,0.2,0.2,0.2
			c0.6,0.2,1.1,0.5,1.5,0.9c0.5,0.5,0.8,1,0.9,1.7c0,0.1,0.1,0.2,0.2,0.2c0.6,0.2,1.1,0.5,1.5,0.9c0.8,0.8,1.1,2,1,3.2
			c0,0.1,0,0.2,0.1,0.3l0,0c0.1,0.2,0.6,0.7,0.9,1c0.4,0.4,0.9,0.6,1.5,0.6s1.1-0.2,1.5-0.6c0.4-0.4,0.6-0.9,0.6-1.5
			c0-0.3,0.3-0.4,0.4-0.3c0.3,0.2,0.7,0.3,1,0.3c0.6,0,1.1-0.2,1.5-0.6c0.5-0.5,0.7-1.2,0.5-1.8c0-0.2,0.1-0.4,0.3-0.3
			c0.3,0.2,0.7,0.3,1.1,0.3c0.5,0,1.1-0.2,1.4-0.6c0.6-0.6,0.7-1.4,0.3-2.2c-0.1-0.2,0-0.4,0.3-0.2c0.2,0.1,0.5,0.2,0.7,0.2
			c0.6,0,1.2-0.3,1.6-0.7c0.8-0.8,1-2.2,0.2-3c0,0-7.6-7.8-8-8.1c-0.7-0.7-1.4-0.8-2.5-0.3c-1.2,0.5-3,1.5-3.8,1.9l0,0
			c-1,0.5-1.8,0.7-2.2,0.7c-2,0-3.6-1.6-3.6-3.6c0-1.3,0.6-2.4,1.7-3.1l0,0c1.5-1.1,5.1-3,5.2-3c0.1,0,0.2-0.1,0.2-0.2
			s0-0.2-0.1-0.3c0-0.1-1.2-1.5-3.8-1.5c-2.5,0-7.5,3.2-7.7,3.4c0,0-0.6,0.4-1.6,0.4c-0.5,0-1.1-0.1-1.6-0.3l0,0l-1.3-0.4
			c-1.7,2.9-2.7,6.3-2.7,10c0,1.2,0.1,2.4,0.3,3.6c0.4,0.1,1,0.3,1.6,0.6C12,34.4,12.1,34.4,12.2,34.3z"/>
		<path class="st5" d="M42.9,22c-0.6,0-0.9-0.3-0.9-0.3s-1.9-1.7-4-3.4c-1-0.9-1.8-1.3-2.6-1.3c-0.5,0-1,0.1-1.6,0.5
			c-2,1.1-7,3.9-9.4,5.3c-1.1,0.6-1.7,1.4-1.7,2.4c0,0.6,0.3,1.2,0.8,1.7s1.2,0.8,1.9,0.8c0.5,0,0.9-0.1,1.4-0.4
			c1-0.5,2.8-1.5,4.7-2.5c0.4-0.2,0.9-0.4,1.3-0.4c0.8,0,1.3,0.4,1.3,0.4c0.1,0.1,6.6,6.6,8.4,8.3c0.6,0.5,1.3,0.8,2.2,0.8
			c0.4,0,3.6-0.7,4.7-0.9c0.2-1,0.3-2.1,0.3-3.1c0-3.3-0.8-6.4-2.2-9.1c-1.3,0.3-2.8,0.6-4,0.9C43.2,21.9,43,22,42.9,22z"/>
	</g>
</g>
<g>
	<g>
		<path class="st6" d="M51,24.9c0-2.1,0.9-5.4,1.7-6.1c0.7-0.7,4-1.7,6.1-1.7c-2.1,0-5.3-0.8-6.1-1.7c-0.9-0.9-1.7-4-1.7-6.1
			c0,2.2-0.8,5.3-1.8,6.2c-1,1-3.9,1.6-6,1.6c2.1,0,5.3,0.8,6.1,1.7C50.2,19.6,51,22.8,51,24.9z"/>
	</g>
	<g>
		<path class="st6" d="M56.2,26.1c0-0.8,0.3-1.9,0.6-2.2c0.2-0.2,1.4-0.6,2.2-0.6c-0.8,0-1.9-0.3-2.2-0.6c-0.3-0.3-0.6-1.4-0.6-2.2
			c0,0.8-0.3,1.9-0.6,2.2c-0.3,0.3-1.4,0.6-2.1,0.6c0.8,0,1.9,0.3,2.2,0.6C55.9,24.3,56.2,25.4,56.2,26.1z"/>
	</g>
	<g>
		<path class="st6" d="M46.1,32c0-1.1,0.5-2.7,0.8-3s2-0.8,3-0.8c-1.1,0-2.6-0.4-3-0.8s-0.8-2-0.8-3c0,1.1-0.4,2.6-0.9,3.1
			s-1.9,0.8-3,0.8c1.1,0,2.6,0.4,3,0.8C45.7,29.4,46.1,30.9,46.1,32z"/>
	</g>
</g>
</svg>
